<svg width="281" height="281" viewBox="0 0 281 281" fill="none" xmlns="http://www.w3.org/2000/svg">
<path fill-rule="evenodd" clip-rule="evenodd" d="M159.068 252.631C180.702 266.629 209.272 252.631 212.015 226.679C213.438 213.095 222.47 201.581 235.15 197.13C259.398 188.644 266.463 157.18 248.218 138.809C238.669 129.21 235.46 114.85 239.963 101.964C248.555 77.3576 228.81 52.13 203.32 55.209C189.992 56.8133 176.95 50.4223 169.885 38.8046C156.35 16.6302 124.65 16.6302 111.115 38.8046C104.05 50.4223 91.0077 56.7874 77.6804 55.209C52.2162 52.1559 32.4451 77.3834 41.0367 101.964C45.5396 114.824 42.3306 129.184 32.7815 138.809C14.5373 157.18 21.6021 188.644 45.8501 197.13C58.5305 201.581 67.562 213.095 68.9853 226.679C71.7284 252.631 100.298 266.655 121.932 252.631C133.267 245.309 147.733 245.309 159.068 252.631Z" fill="white"/>
<path d="M139.745 93.4646L139.427 93.3241C136.339 91.9557 134.297 90.6771 133.185 89.4149C131.958 88.0219 131.98 86.7673 132.103 85.9446C132.305 84.594 133.183 83.8769 133.967 83.5485C133.818 82.8664 133.624 81.899 133.602 81.4013C133.531 79.806 133.924 78.5712 134.77 77.7314C135.435 77.0712 136.232 76.8189 136.795 76.7243C137.196 74.8376 138.287 73.0366 139.752 73.0366C141.216 73.0366 142.293 74.8383 142.693 76.7243C143.256 76.8189 144.053 77.0712 144.718 77.7314C145.564 78.5712 145.956 79.806 145.885 81.4013C145.863 81.899 145.669 82.8664 145.52 83.5485C146.305 83.8776 147.183 84.594 147.385 85.9453C147.642 87.6626 146.89 88.7486 146.302 89.4156C145.191 90.6771 143.148 91.9557 140.061 93.3247L139.743 93.4653L139.745 93.4646ZM134.976 84.8929C134.837 84.9094 133.824 85.0698 133.658 86.179C133.52 87.1032 133.264 88.8096 139.745 91.7397C146.226 88.8103 145.97 87.1032 145.832 86.179C145.666 85.0698 144.651 84.9094 144.513 84.8929L143.593 84.8278L143.824 83.9256C144.004 83.1714 144.296 81.8003 144.317 81.3314C144.367 80.2084 144.135 79.3782 143.626 78.864C142.987 78.2189 142.069 78.2456 142.06 78.2463L141.319 78.2998L141.244 77.56C141.012 75.7611 140.135 74.6134 139.754 74.6134C139.374 74.6134 138.481 75.7611 138.249 77.56L138.153 78.2984L137.426 78.2456C137.426 78.2456 136.504 78.2189 135.866 78.864C135.357 79.3782 135.124 80.2084 135.174 81.3314C135.195 81.801 135.487 83.1721 135.667 83.9256L135.882 84.8291L134.978 84.8936L134.976 84.8929Z" fill="#F60EA6"/>
<path d="M155.381 97.7309C154.684 97.7309 154.092 97.5362 153.639 97.3484C152.088 96.7046 150.218 95.184 147.923 92.6995L147.688 92.4438L147.717 92.0969C148.003 88.7225 148.544 86.3703 149.372 84.9052C150.285 83.288 151.475 82.9006 152.291 82.7498C153.63 82.5023 154.591 83.1015 155.157 83.7391C155.751 83.3757 156.6 82.8773 157.062 82.6943C158.543 82.1081 159.834 82.0793 160.902 82.6079C161.741 83.024 162.238 83.6979 162.51 84.2012C164.419 83.9681 166.472 84.4164 166.949 85.8061C167.422 87.1868 166.077 88.802 164.429 89.7954C164.522 90.3603 164.544 91.1981 164.138 92.0441C163.622 93.1198 162.585 93.8938 161.058 94.3456C160.582 94.4861 159.607 94.617 158.915 94.6979C158.86 95.5494 158.47 96.6148 157.262 97.2462C156.577 97.6048 155.945 97.7309 155.381 97.7309ZM149.314 91.883C152.604 95.3917 154.368 96.1664 155.421 96.1664C155.927 96.1664 156.269 95.9882 156.537 95.8476C157.58 95.3019 157.332 94.227 157.321 94.1817L157.106 93.298L158.009 93.2096C158.778 93.1342 160.166 92.9655 160.615 92.8325C161.698 92.5123 162.407 92.0167 162.723 91.3592C163.115 90.5427 162.795 89.7022 162.791 89.694L162.516 89.0159L163.17 88.691C164.791 87.8854 165.587 86.6809 165.464 86.3189C165.338 85.9521 163.968 85.4839 162.196 85.8493L161.469 85.9994L161.282 85.2926C161.282 85.2926 161.007 84.4103 160.192 84.0147C159.542 83.6993 158.683 83.7487 157.641 84.1614C157.206 84.3342 156.008 85.0574 155.355 85.4722L154.574 85.9699L154.219 85.1328C154.158 85.0067 153.678 84.0969 152.578 84.3006C151.662 84.4699 149.97 84.7825 149.316 91.883H149.314Z" fill="#F60EA6"/>
<path d="M124.081 97.7303C123.286 97.7303 122.675 97.48 122.228 97.2462C121.02 96.6148 120.63 95.5495 120.575 94.698C119.883 94.6171 118.908 94.4868 118.432 94.3456C116.905 93.8945 115.869 93.1198 115.352 92.0441C114.946 91.1988 114.967 90.3604 115.061 89.7954C113.413 88.8021 112.068 87.1868 112.541 85.8061C113.018 84.4171 115.071 83.9681 116.98 84.2012C117.252 83.698 117.75 83.0234 118.588 82.6079C119.655 82.0786 120.947 82.1074 122.428 82.6943C122.89 82.8773 123.739 83.3758 124.334 83.7391C124.899 83.1015 125.861 82.5023 127.199 82.7498C128.902 83.0645 129.681 84.1306 130.119 84.9053C130.946 86.3703 131.488 88.7225 131.773 92.0969L131.803 92.4438L131.567 92.6995C129.272 95.1834 127.402 96.704 125.852 97.3484C125.181 97.6267 124.593 97.7303 124.081 97.7303H124.081ZM122.17 94.179C122.141 94.3161 121.963 95.3294 122.954 95.8477C123.779 96.2796 125.306 97.0776 130.176 91.883C129.523 84.7825 127.83 84.4699 126.914 84.3006C125.815 84.0977 125.334 85.0067 125.273 85.1329L124.912 85.985L124.136 85.4722C123.483 85.0568 122.286 84.3335 121.851 84.1614C120.808 83.7487 119.95 83.6993 119.3 84.0147C118.484 84.4103 118.211 85.2906 118.208 85.2988L118.018 86.0186L117.296 85.8493C115.524 85.4839 114.154 85.9528 114.029 86.3189C113.905 86.6802 114.701 87.8854 116.322 88.691L116.987 89.0214L116.7 89.694C116.7 89.694 116.376 90.5592 116.776 91.3743C117.095 92.0242 117.802 92.5151 118.877 92.8332C119.326 92.9662 120.714 93.1349 121.483 93.2103L122.405 93.3001L122.171 94.179H122.17Z" fill="#F60EA6"/>
<path d="M140.524 98.8155L140.526 98.8039L138.959 98.7106V92.6029H140.531V95.7133C141.808 94.2846 144.117 92.6159 148.282 91.4059L148.719 92.9203C146.521 93.5586 143.523 94.7391 141.72 96.7376C140.671 97.9003 140.526 98.8059 140.524 98.8149V98.8155Z" fill="#F60EA6"/>
<path d="M138.966 98.8217C138.965 98.8128 138.819 97.9071 137.771 96.7444C135.969 94.746 132.97 93.5654 130.771 92.9271L131.209 91.4127C139.873 93.9288 140.504 98.4337 140.526 98.6242L138.965 98.81L138.966 98.8217Z" fill="#F60EA6"/>
<path d="M139.81 89.8626C139.478 89.8626 139.169 89.6501 139.062 89.3155C139.005 89.1393 137.694 84.9601 139.085 81.6001C139.251 81.1983 139.711 81.0071 140.112 81.1743C140.513 81.3409 140.703 81.8023 140.536 82.2047C139.37 85.0231 140.547 88.7958 140.559 88.8335C140.691 89.2483 140.463 89.6919 140.05 89.8242C139.97 89.8496 139.89 89.8619 139.81 89.8619L139.81 89.8626Z" fill="#F60EA6"/>
<path d="M151.724 92.245C151.619 92.245 151.514 92.2429 151.409 92.2381C150.976 92.2189 150.639 91.8508 150.658 91.4161C150.678 90.9808 151.045 90.6435 151.478 90.6633C154.517 90.7963 157.648 88.3962 157.679 88.3715C158.022 88.1048 158.516 88.1679 158.782 88.5113C159.048 88.8555 158.986 89.3498 158.643 89.6165C158.501 89.7269 155.23 92.245 151.724 92.245Z" fill="#F60EA6"/>
<path d="M127.402 92.838C127.393 92.838 127.384 92.838 127.375 92.838C127.19 92.8318 122.826 92.6583 120.142 90.2115C119.821 89.9188 119.798 89.4197 120.09 89.0975C120.382 88.7753 120.879 88.752 121.2 89.0447C123.461 91.1062 127.388 91.2605 127.428 91.2618C127.862 91.2762 128.201 91.641 128.187 92.0763C128.173 92.5027 127.824 92.8387 127.402 92.8387V92.838Z" fill="#F60EA6"/>
<path d="M149.27 100.39C146.713 98.7991 143.331 97.9222 139.745 97.9222C136.16 97.9222 132.777 98.7984 130.221 100.39C127.548 102.054 126.076 104.306 126.076 106.732C126.076 109.157 127.548 111.409 130.221 113.073C130.647 113.339 131.097 113.584 131.566 113.809C131.86 113.958 132.165 114.108 132.482 114.264C135.155 115.577 138.185 117.065 138.185 119.689V119.865C138.185 120.731 138.888 121.436 139.751 121.436C140.614 121.436 141.317 120.731 141.317 119.865V119.689C141.317 117.065 144.347 115.577 147.02 114.264C147.441 114.056 147.841 113.86 148.221 113.662C148.583 113.479 148.933 113.282 149.269 113.073C151.942 111.409 153.414 109.157 153.414 106.732C153.414 104.306 151.942 102.054 149.269 100.39H149.27ZM150.051 107.009C149.911 108.894 148.825 110.468 147.069 111.327C146.958 111.381 146.841 111.407 146.725 111.407C146.434 111.407 146.154 111.244 146.018 110.965C145.828 110.573 145.99 110.101 146.38 109.91C147.62 109.303 148.387 108.204 148.484 106.894C148.581 105.582 148 104.327 146.969 103.617C146.611 103.371 146.52 102.88 146.766 102.521C147.011 102.162 147.501 102.071 147.859 102.317C149.349 103.344 150.19 105.142 150.052 107.011L150.051 107.009Z" fill="#F60EA6"/>
<path d="M89.1973 150.493V136.717H92.4133L92.7253 139.597C93.1893 138.589 93.8933 137.781 94.8373 137.173C95.7813 136.565 96.9413 136.261 98.3173 136.261C100.269 136.261 101.773 136.837 102.829 137.989C103.901 139.125 104.437 140.653 104.437 142.573V150.493H100.693V143.461C100.693 142.181 100.429 141.173 99.9013 140.437C99.3733 139.701 98.4293 139.333 97.0693 139.333C95.6613 139.333 94.6213 139.733 93.9493 140.533C93.2933 141.333 92.9653 142.477 92.9653 143.965V150.493H89.1973Z" fill="#316AFA"/>
<path d="M114.367 150.901C111.519 150.901 109.439 150.277 108.127 149.029C106.831 147.765 106.183 146.013 106.183 143.773V143.629C106.183 142.093 106.527 140.773 107.215 139.669C107.919 138.565 108.887 137.725 110.119 137.149C111.367 136.557 112.807 136.261 114.439 136.261C116.119 136.261 117.575 136.557 118.807 137.149C120.055 137.725 121.015 138.565 121.687 139.669C122.375 140.757 122.719 142.077 122.719 143.629V143.773C122.719 145.949 122.015 147.685 120.607 148.981C119.215 150.261 117.135 150.901 114.367 150.901ZM114.439 147.805C116.007 147.805 117.151 147.461 117.871 146.773C118.591 146.069 118.951 145.061 118.951 143.749V143.629C118.951 142.237 118.575 141.173 117.823 140.437C117.087 139.685 115.975 139.309 114.487 139.309C113.031 139.309 111.911 139.677 111.127 140.413C110.343 141.133 109.951 142.205 109.951 143.629V143.749C109.951 145.061 110.319 146.069 111.055 146.773C111.807 147.461 112.935 147.805 114.439 147.805Z" fill="#316AFA"/>
<path d="M130.515 150.493V132.805H134.091V139.357C134.571 138.413 135.259 137.661 136.155 137.101C137.067 136.541 138.179 136.261 139.491 136.261C141.459 136.261 142.963 136.829 144.003 137.965C145.043 139.101 145.563 140.621 145.563 142.525V150.493H141.819V143.605C141.819 142.757 141.699 142.013 141.459 141.373C141.235 140.733 140.859 140.237 140.331 139.885C139.819 139.517 139.107 139.333 138.195 139.333C136.803 139.333 135.771 139.733 135.099 140.533C134.427 141.317 134.091 142.445 134.091 143.917V150.493H130.515Z" fill="#316AFA"/>
<path d="M149.786 134.845C148.922 134.845 148.298 134.677 147.914 134.341C147.546 134.005 147.362 133.397 147.362 132.517C147.362 131.669 147.57 131.077 147.986 130.741C148.402 130.405 149.002 130.237 149.786 130.237C150.554 130.237 151.146 130.405 151.562 130.741C151.978 131.077 152.186 131.669 152.186 132.517C152.186 133.333 151.986 133.925 151.586 134.293C151.186 134.661 150.586 134.845 149.786 134.845ZM147.818 150.493V136.717H151.61V150.493H147.818Z" fill="#316AFA"/>
<path d="M153.171 147.901C153.171 147.133 153.483 146.493 154.107 145.981C154.731 145.469 155.723 145.149 157.083 145.021C155.963 144.765 155.107 144.341 154.515 143.749C153.923 143.157 153.627 142.309 153.627 141.205C153.627 139.781 154.227 138.661 155.427 137.845C156.643 137.013 158.411 136.573 160.731 136.525C160.843 136.525 160.947 136.525 161.043 136.525C161.139 136.525 161.235 136.517 161.331 136.501C162.211 136.469 162.899 136.389 163.395 136.261C163.891 136.117 164.235 135.853 164.427 135.469C164.635 135.069 164.739 134.493 164.739 133.741V133.525H168.891V133.813C168.891 134.549 168.811 135.133 168.651 135.565C168.491 135.997 168.211 136.317 167.811 136.525C167.411 136.717 166.875 136.845 166.203 136.909C165.531 136.973 164.675 137.005 163.635 137.005C165.395 137.149 166.691 137.581 167.523 138.301C168.355 139.005 168.771 139.973 168.771 141.205V141.253C168.771 142.773 168.139 143.917 166.875 144.685C165.627 145.437 163.811 145.813 161.427 145.813H160.371C159.187 145.813 158.315 145.853 157.755 145.933C157.195 145.997 156.819 146.101 156.627 146.245C156.451 146.389 156.363 146.581 156.363 146.821C156.363 147.125 156.611 147.341 157.107 147.469C157.603 147.597 158.507 147.653 159.819 147.637H163.179C165.419 147.637 167.043 147.965 168.051 148.621C169.059 149.277 169.563 150.317 169.563 151.741V151.813C169.563 153.349 168.907 154.557 167.595 155.437C166.283 156.317 164.187 156.757 161.307 156.757H160.587C158.699 156.757 157.203 156.629 156.099 156.373C154.995 156.117 154.211 155.741 153.747 155.245C153.283 154.765 153.051 154.189 153.051 153.517C153.051 152.685 153.355 152.013 153.963 151.501C154.571 151.005 155.571 150.661 156.963 150.469C155.699 150.405 154.747 150.181 154.107 149.797C153.483 149.413 153.171 148.781 153.171 147.901ZM161.163 143.341C162.523 143.341 163.523 143.165 164.163 142.813C164.819 142.461 165.147 141.933 165.147 141.229V141.205C165.147 140.389 164.827 139.813 164.187 139.477C163.563 139.141 162.611 138.973 161.331 138.973H161.043C158.563 138.973 157.323 139.733 157.323 141.253V141.301C157.323 142.037 157.635 142.565 158.259 142.885C158.899 143.189 159.867 143.341 161.163 143.341ZM160.875 153.829H161.595C163.307 153.829 164.491 153.653 165.147 153.301C165.803 152.965 166.131 152.525 166.131 151.981V151.909C166.131 151.605 166.043 151.349 165.867 151.141C165.707 150.933 165.395 150.773 164.931 150.661C164.467 150.549 163.771 150.493 162.843 150.493H159.747C157.779 150.557 156.795 151.125 156.795 152.197V152.221C156.795 152.749 157.123 153.149 157.779 153.421C158.435 153.693 159.467 153.829 160.875 153.829Z" fill="#316AFA"/>
<path d="M170.496 150.493V132.805H174.072V139.357C174.552 138.413 175.24 137.661 176.136 137.101C177.048 136.541 178.16 136.261 179.472 136.261C181.44 136.261 182.944 136.829 183.984 137.965C185.024 139.101 185.544 140.621 185.544 142.525V150.493H181.8V143.605C181.8 142.757 181.68 142.013 181.44 141.373C181.216 140.733 180.84 140.237 180.312 139.885C179.8 139.517 179.088 139.333 178.176 139.333C176.784 139.333 175.752 139.733 175.08 140.533C174.408 141.317 174.072 142.445 174.072 143.917V150.493H170.496Z" fill="#316AFA"/>
<path d="M44.3369 162.717H47.5769V162.045C47.5769 160.717 47.7449 159.669 48.0809 158.901C48.4169 158.133 48.9769 157.581 49.7609 157.245C50.5449 156.909 51.6009 156.741 52.9289 156.741H55.2569V159.717H53.3369C52.7289 159.717 52.2649 159.781 51.9449 159.909C51.6249 160.021 51.4009 160.253 51.2729 160.605C51.1609 160.957 51.1049 161.485 51.1049 162.189V162.717H55.2569V165.837H51.1049L51.0809 176.493H47.5769V165.837H44.3369V162.717Z" fill="#316AFA"/>
<path d="M56.7734 176.493V162.717H59.9174L60.3494 166.293C60.6694 165.109 61.2534 164.197 62.1014 163.557C62.9494 162.901 64.1014 162.573 65.5574 162.573H66.9734V166.245H65.3174C64.0374 166.245 63.0454 166.405 62.3414 166.725C61.6534 167.029 61.1734 167.549 60.9014 168.285C60.6454 169.005 60.5174 169.981 60.5174 171.213V176.493H56.7734Z" fill="#316AFA"/>
<path d="M74.3999 176.877C72.4639 176.877 70.9999 176.317 70.0079 175.197C69.0159 174.077 68.5199 172.557 68.5199 170.637V162.717H72.2399V169.821C72.2399 171.069 72.5119 172.045 73.0559 172.749C73.5999 173.437 74.5279 173.781 75.8399 173.781C77.0559 173.781 77.9759 173.389 78.5999 172.605C79.2239 171.821 79.5359 170.773 79.5359 169.461V162.717H83.2799V176.493H80.1359L79.7999 173.565C79.3839 174.573 78.7199 175.381 77.8079 175.989C76.9119 176.581 75.7759 176.877 74.3999 176.877Z" fill="#316AFA"/>
<path d="M93.1992 176.805C90.3512 176.805 88.2712 176.197 86.9592 174.981C85.6632 173.749 85.0152 172.013 85.0152 169.773V169.629C85.0152 168.093 85.3592 166.773 86.0472 165.669C86.7512 164.565 87.7192 163.725 88.9512 163.149C90.1992 162.557 91.6392 162.261 93.2712 162.261C95.7032 162.261 97.6312 162.789 99.0552 163.845C100.479 164.885 101.303 166.413 101.527 168.429V168.453H97.5912V168.429C97.4312 167.389 96.9992 166.613 96.2952 166.101C95.5912 165.573 94.5992 165.309 93.3192 165.309C91.8792 165.309 90.7672 165.677 89.9832 166.413C89.1992 167.133 88.8072 168.205 88.8072 169.629V169.749C88.8072 171.061 89.1752 172.069 89.9112 172.773C90.6472 173.461 91.7672 173.805 93.2712 173.805C94.6312 173.805 95.6472 173.541 96.3192 173.013C97.0072 172.469 97.4312 171.669 97.5912 170.613H101.551V170.637C101.391 172.621 100.607 174.149 99.1992 175.221C97.8072 176.277 95.8072 176.805 93.1992 176.805Z" fill="#316AFA"/>
<path d="M105.168 170.205V165.885H101.808V162.861C102.16 162.861 102.512 162.861 102.864 162.861C103.216 162.845 103.552 162.829 103.872 162.813C104.384 162.765 104.736 162.637 104.928 162.429C105.136 162.205 105.296 161.805 105.408 161.229C105.472 160.909 105.512 160.525 105.528 160.077C105.544 159.629 105.552 159.253 105.552 158.949H108.672V162.717H113.616V165.885H108.672V169.605C108.672 170.661 108.744 171.445 108.888 171.957C109.048 172.469 109.36 172.805 109.824 172.965C110.304 173.125 111.016 173.205 111.96 173.205H113.616V176.493H111C109.48 176.493 108.296 176.293 107.448 175.893C106.6 175.493 106.008 174.837 105.672 173.925C105.336 172.997 105.168 171.757 105.168 170.205Z" fill="#316AFA"/>
<path d="M122.626 176.901C119.778 176.901 117.698 176.277 116.386 175.029C115.09 173.765 114.442 172.013 114.442 169.773V169.629C114.442 168.093 114.786 166.773 115.474 165.669C116.178 164.565 117.146 163.725 118.378 163.149C119.626 162.557 121.066 162.261 122.698 162.261C124.378 162.261 125.834 162.557 127.066 163.149C128.314 163.725 129.274 164.565 129.946 165.669C130.634 166.757 130.978 168.077 130.978 169.629V169.773C130.978 171.949 130.274 173.685 128.866 174.981C127.474 176.261 125.394 176.901 122.626 176.901ZM122.698 173.805C124.266 173.805 125.41 173.461 126.13 172.773C126.85 172.069 127.21 171.061 127.21 169.749V169.629C127.21 168.237 126.834 167.173 126.082 166.437C125.346 165.685 124.234 165.309 122.746 165.309C121.29 165.309 120.17 165.677 119.386 166.413C118.602 167.133 118.21 168.205 118.21 169.629V169.749C118.21 171.061 118.578 172.069 119.314 172.773C120.066 173.461 121.194 173.805 122.698 173.805Z" fill="#316AFA"/>
<path d="M139.963 176.901C137.419 176.901 135.475 176.485 134.131 175.653C132.803 174.821 131.987 173.581 131.683 171.933H135.859C136.051 172.669 136.475 173.197 137.131 173.517C137.787 173.821 138.779 173.973 140.107 173.973C141.403 173.973 142.299 173.829 142.795 173.541C143.307 173.237 143.563 172.837 143.563 172.341C143.563 171.989 143.419 171.725 143.131 171.549C142.859 171.357 142.379 171.221 141.691 171.141C141.019 171.045 140.091 170.965 138.907 170.901C137.483 170.821 136.275 170.653 135.283 170.397C134.291 170.125 133.531 169.709 133.003 169.149C132.491 168.589 132.235 167.837 132.235 166.893C132.235 165.565 132.803 164.461 133.939 163.581C135.091 162.701 136.827 162.261 139.147 162.261C141.483 162.261 143.283 162.653 144.547 163.437C145.811 164.221 146.627 165.389 146.995 166.941H143.059C142.899 166.253 142.483 165.765 141.811 165.477C141.139 165.189 140.235 165.045 139.099 165.045C138.251 165.045 137.587 165.117 137.107 165.261C136.627 165.405 136.291 165.597 136.099 165.837C135.923 166.061 135.835 166.317 135.835 166.605C135.835 166.941 135.963 167.205 136.219 167.397C136.491 167.573 136.955 167.717 137.611 167.829C138.283 167.925 139.211 168.013 140.395 168.093C141.979 168.189 143.275 168.373 144.283 168.645C145.291 168.901 146.027 169.309 146.491 169.869C146.971 170.429 147.211 171.205 147.211 172.197C147.211 173.557 146.603 174.685 145.387 175.581C144.187 176.461 142.379 176.901 139.963 176.901Z" fill="#316AFA"/>
<path d="M156.458 176.901C154.538 176.901 152.978 176.613 151.778 176.037C150.594 175.445 149.73 174.621 149.186 173.565C148.642 172.509 148.37 171.277 148.37 169.869V169.749C148.37 168.341 148.682 167.077 149.306 165.957C149.946 164.821 150.882 163.925 152.114 163.269C153.362 162.597 154.89 162.261 156.698 162.261C158.474 162.261 159.962 162.573 161.162 163.197C162.378 163.821 163.29 164.677 163.898 165.765C164.522 166.853 164.834 168.093 164.834 169.485V170.949H151.922C152.114 171.925 152.594 172.677 153.362 173.205C154.13 173.733 155.25 173.997 156.722 173.997C157.81 173.997 158.65 173.861 159.242 173.589C159.85 173.301 160.306 172.901 160.61 172.389H164.642C164.05 173.973 163.058 175.125 161.666 175.845C160.29 176.549 158.554 176.901 156.458 176.901ZM156.77 165.141C155.41 165.141 154.33 165.413 153.53 165.957C152.73 166.485 152.21 167.237 151.97 168.213H161.162C160.986 167.173 160.538 166.405 159.818 165.909C159.114 165.397 158.098 165.141 156.77 165.141Z" fill="#316AFA"/>
<path d="M180.098 176.805C177.25 176.805 175.17 176.197 173.858 174.981C172.562 173.749 171.914 172.013 171.914 169.773V169.629C171.914 168.093 172.258 166.773 172.946 165.669C173.65 164.565 174.618 163.725 175.85 163.149C177.098 162.557 178.538 162.261 180.17 162.261C182.602 162.261 184.53 162.789 185.954 163.845C187.378 164.885 188.202 166.413 188.426 168.429V168.453H184.49V168.429C184.33 167.389 183.898 166.613 183.194 166.101C182.49 165.573 181.498 165.309 180.218 165.309C178.778 165.309 177.666 165.677 176.882 166.413C176.098 167.133 175.706 168.205 175.706 169.629V169.749C175.706 171.061 176.074 172.069 176.81 172.773C177.546 173.461 178.666 173.805 180.17 173.805C181.53 173.805 182.546 173.541 183.218 173.013C183.906 172.469 184.33 171.669 184.49 170.613H188.45V170.637C188.29 172.621 187.506 174.149 186.098 175.221C184.706 176.277 182.706 176.805 180.098 176.805Z" fill="#316AFA"/>
<path d="M197.73 176.901C194.882 176.901 192.802 176.277 191.49 175.029C190.194 173.765 189.546 172.013 189.546 169.773V169.629C189.546 168.093 189.89 166.773 190.578 165.669C191.282 164.565 192.25 163.725 193.482 163.149C194.73 162.557 196.17 162.261 197.802 162.261C199.482 162.261 200.938 162.557 202.17 163.149C203.418 163.725 204.378 164.565 205.05 165.669C205.738 166.757 206.082 168.077 206.082 169.629V169.773C206.082 171.949 205.378 173.685 203.97 174.981C202.578 176.261 200.498 176.901 197.73 176.901ZM197.802 173.805C199.37 173.805 200.514 173.461 201.234 172.773C201.954 172.069 202.314 171.061 202.314 169.749V169.629C202.314 168.237 201.938 167.173 201.186 166.437C200.45 165.685 199.338 165.309 197.85 165.309C196.394 165.309 195.274 165.677 194.49 166.413C193.706 167.133 193.314 168.205 193.314 169.629V169.749C193.314 171.061 193.682 172.069 194.418 172.773C195.17 173.461 196.298 173.805 197.802 173.805Z" fill="#316AFA"/>
<path d="M207.917 176.493V162.717H211.061L211.493 166.293C211.813 165.109 212.397 164.197 213.245 163.557C214.093 162.901 215.245 162.573 216.701 162.573H218.117V166.245H216.461C215.181 166.245 214.189 166.405 213.485 166.725C212.797 167.029 212.317 167.549 212.045 168.285C211.789 169.005 211.661 169.981 211.661 171.213V176.493H207.917Z" fill="#316AFA"/>
<path d="M219.713 176.493V162.717H222.929L223.241 165.597C223.705 164.589 224.409 163.781 225.353 163.173C226.297 162.565 227.457 162.261 228.833 162.261C230.785 162.261 232.289 162.837 233.345 163.989C234.417 165.125 234.953 166.653 234.953 168.573V176.493H231.209V169.461C231.209 168.181 230.945 167.173 230.417 166.437C229.889 165.701 228.945 165.333 227.585 165.333C226.177 165.333 225.137 165.733 224.465 166.533C223.809 167.333 223.481 168.477 223.481 169.965V176.493H219.713Z" fill="#316AFA"/>
<path d="M109.048 202.901C106.504 202.901 104.56 202.485 103.216 201.653C101.888 200.821 101.072 199.581 100.768 197.933H104.944C105.136 198.669 105.56 199.197 106.216 199.517C106.872 199.821 107.864 199.973 109.192 199.973C110.488 199.973 111.384 199.829 111.88 199.541C112.392 199.237 112.648 198.837 112.648 198.341C112.648 197.989 112.504 197.725 112.216 197.549C111.944 197.357 111.464 197.221 110.776 197.141C110.104 197.045 109.176 196.965 107.992 196.901C106.568 196.821 105.36 196.653 104.368 196.397C103.376 196.125 102.616 195.709 102.088 195.149C101.576 194.589 101.32 193.837 101.32 192.893C101.32 191.565 101.888 190.461 103.024 189.581C104.176 188.701 105.912 188.261 108.232 188.261C110.568 188.261 112.368 188.653 113.632 189.437C114.896 190.221 115.712 191.389 116.08 192.941H112.144C111.984 192.253 111.568 191.765 110.896 191.477C110.224 191.189 109.32 191.045 108.184 191.045C107.336 191.045 106.672 191.117 106.192 191.261C105.712 191.405 105.376 191.597 105.184 191.837C105.008 192.061 104.92 192.317 104.92 192.605C104.92 192.941 105.048 193.205 105.304 193.397C105.576 193.573 106.04 193.717 106.696 193.829C107.368 193.925 108.296 194.013 109.48 194.093C111.064 194.189 112.36 194.373 113.368 194.645C114.376 194.901 115.112 195.309 115.576 195.869C116.056 196.429 116.296 197.205 116.296 198.197C116.296 199.557 115.688 200.685 114.472 201.581C113.272 202.461 111.464 202.901 109.048 202.901Z" fill="#316AFA"/>
<path d="M116.558 208.277V205.061H118.406C119.126 205.061 119.702 204.989 120.134 204.845C120.582 204.701 120.958 204.453 121.262 204.101C121.566 203.749 121.878 203.277 122.198 202.685L122.582 201.917L115.79 188.717H119.822L124.334 197.861L124.478 198.365L124.646 197.909L129.086 188.717H133.046L125.606 203.309C125.046 204.381 124.542 205.245 124.094 205.901C123.646 206.557 123.166 207.053 122.654 207.389C122.158 207.741 121.566 207.973 120.878 208.085C120.19 208.213 119.326 208.277 118.286 208.277H116.558Z" fill="#316AFA"/>
<path d="M133.81 202.493V188.717H136.954L137.386 192.293C137.706 191.109 138.29 190.197 139.138 189.557C139.986 188.901 141.138 188.573 142.594 188.573H144.01V192.245H142.354C141.074 192.245 140.082 192.405 139.378 192.725C138.69 193.029 138.21 193.549 137.938 194.285C137.682 195.005 137.554 195.981 137.554 197.213V202.493H133.81Z" fill="#316AFA"/>
<path d="M151.437 202.877C149.501 202.877 148.037 202.317 147.045 201.197C146.053 200.077 145.557 198.557 145.557 196.637V188.717H149.277V195.821C149.277 197.069 149.549 198.045 150.093 198.749C150.637 199.437 151.565 199.781 152.877 199.781C154.093 199.781 155.013 199.389 155.637 198.605C156.261 197.821 156.573 196.773 156.573 195.461V188.717H160.317V202.493H157.173L156.837 199.565C156.421 200.573 155.757 201.381 154.845 201.989C153.949 202.581 152.813 202.877 151.437 202.877Z" fill="#316AFA"/>
<path d="M162.839 207.365V188.717H165.983L166.295 191.309C166.823 190.349 167.583 189.613 168.575 189.101C169.583 188.573 170.759 188.309 172.103 188.309C174.263 188.309 175.967 188.941 177.215 190.205C178.479 191.453 179.111 193.269 179.111 195.653V195.773C179.111 197.341 178.791 198.653 178.151 199.709C177.511 200.765 176.647 201.557 175.559 202.085C174.487 202.597 173.303 202.853 172.007 202.853C170.631 202.853 169.479 202.637 168.551 202.205C167.639 201.757 166.943 201.125 166.463 200.309V207.365H162.839ZM170.855 199.805C172.423 199.805 173.559 199.461 174.263 198.773C174.983 198.069 175.343 197.061 175.343 195.749V195.653C175.343 192.757 173.863 191.309 170.903 191.309C169.495 191.309 168.391 191.693 167.591 192.461C166.791 193.213 166.391 194.269 166.391 195.629V195.725C166.391 197.037 166.767 198.045 167.519 198.749C168.271 199.453 169.383 199.805 170.855 199.805Z" fill="#316AFA"/>
</svg>
