<svg width="281" height="281" viewBox="0 0 281 281" fill="none" xmlns="http://www.w3.org/2000/svg">
<path d="M160.426 250.532L160.424 250.531C148.264 242.675 132.736 242.675 120.576 250.531L120.572 250.533C100.561 263.505 74.0274 250.583 71.4717 226.419C69.9494 211.89 60.2864 199.548 46.678 194.771L46.676 194.771C24.1956 186.903 17.5824 157.662 34.5554 140.571L34.5563 140.57C44.7847 130.26 48.2124 114.894 43.3967 101.139C35.39 78.2318 53.831 54.8674 77.3828 57.6913L77.3864 57.6917C91.6938 59.3861 105.681 52.5504 113.25 40.1053C125.81 19.5302 155.189 19.5299 167.749 40.1046C175.316 52.5468 189.304 59.4142 203.618 57.6911L203.619 57.691C227.191 54.8437 245.611 78.2021 237.603 101.139C232.789 114.917 236.213 130.284 246.445 140.571C263.418 157.662 256.804 186.903 234.324 194.771L234.322 194.771C220.714 199.548 211.051 211.89 209.528 226.419C206.973 250.579 180.44 263.482 160.426 250.532Z" fill="#F60EA6" stroke="white" stroke-width="5"/>
<g clip-path="url(#clip0_1773_324)">
<path d="M151.711 131.893C151.704 131.893 151.697 131.893 151.691 131.893L133.855 131.83C130.758 131.819 128.391 129.229 128.349 125.807C128.324 123.727 128.955 121.92 129.911 119.847C130.893 117.718 131.86 115.924 132.713 114.34C134.031 111.894 135.169 109.783 135.964 107.229C136.945 104.073 137.52 100.937 137.674 97.907L137.713 97.1318L148.08 97.1686L148.114 97.9438C148.245 100.974 148.798 104.115 149.758 107.277C150.535 109.837 151.658 111.957 152.958 114.412C153.8 116.001 154.755 117.803 155.722 119.939C156.75 122.212 157.261 124.218 157.241 125.903C157.222 127.488 156.678 128.97 155.711 130.076C154.686 131.248 153.266 131.893 151.712 131.893L151.711 131.893ZM142.708 130.234L151.697 130.266C151.702 130.266 151.706 130.266 151.711 130.266C153.092 130.266 153.982 129.581 154.485 129.005C155.198 128.19 155.599 127.081 155.613 125.883C155.63 124.438 155.168 122.664 154.238 120.609C153.291 118.519 152.39 116.818 151.519 115.173C150.179 112.644 149.022 110.459 148.2 107.749C147.283 104.724 146.721 101.714 146.529 98.7896L139.25 98.7642C139.037 101.687 138.455 104.694 137.516 107.712C136.675 110.416 135.503 112.592 134.145 115.112C133.262 116.75 132.349 118.445 131.388 120.529C130.5 122.454 129.954 124.005 129.976 125.787C129.991 126.991 130.386 128.105 131.09 128.923C131.589 129.504 132.476 130.198 133.861 130.203L142.708 130.234Z" fill="white"/>
<path d="M148.007 98.7613C148.007 98.7613 148.002 98.7613 148 98.7613L137.934 98.726C136.874 98.7224 136.014 97.8567 136.018 96.7966L136.022 95.6034C136.024 95.09 136.226 94.6076 136.59 94.2455C136.953 93.8855 137.434 93.6868 137.945 93.6868H137.952L148.018 93.7221C149.078 93.7257 149.938 94.5913 149.934 95.6515L149.93 96.8447C149.928 97.3581 149.726 97.8405 149.362 98.2026C148.999 98.5626 148.518 98.7613 148.007 98.7613ZM137.945 95.3135C137.839 95.3135 137.769 95.3672 137.737 95.3997C137.704 95.4323 137.65 95.5023 137.649 95.6091L137.645 96.8022C137.645 96.9656 137.777 97.0993 137.94 97.0993L148.005 97.1346H148.007C148.113 97.1346 148.183 97.0809 148.215 97.0484C148.248 97.0158 148.302 96.9458 148.303 96.839L148.307 95.6459C148.307 95.4825 148.175 95.3488 148.012 95.3488L137.947 95.3135H137.945Z" fill="white"/>
<path fill-rule="evenodd" clip-rule="evenodd" d="M147.921 111.246C149.015 114.575 150.883 116.908 152.899 121.021C153.631 122.516 153.968 124.018 154.1 125.326C154.315 127.462 152.499 129.306 150.177 129.297L142.721 129.271H142.846L135.391 129.245C133.069 129.237 131.266 127.381 131.496 125.247C131.638 123.94 131.985 122.44 132.728 120.951C134.772 116.851 136.657 114.532 137.774 111.21C141.653 111.21 145.195 108.719 147.921 111.246Z" fill="white"/>
<path d="M146.672 89.5493C147.765 89.5493 148.651 88.663 148.651 87.5697C148.651 86.4764 147.765 85.5901 146.672 85.5901C145.578 85.5901 144.692 86.4764 144.692 87.5697C144.692 88.663 145.578 89.5493 146.672 89.5493Z" fill="white"/>
<path d="M142.792 91.8281C143.265 91.8281 143.649 91.4446 143.649 90.9716C143.649 90.4986 143.265 90.1151 142.792 90.1151C142.319 90.1151 141.936 90.4986 141.936 90.9716C141.936 91.4446 142.319 91.8281 142.792 91.8281Z" fill="white"/>
<path d="M144.424 108.186C145.32 108.186 146.046 107.46 146.046 106.564C146.046 105.669 145.32 104.943 144.424 104.943C143.528 104.943 142.802 105.669 142.802 106.564C142.802 107.46 143.528 108.186 144.424 108.186Z" fill="white"/>
<path d="M141.774 101.875C142.404 101.875 142.914 101.364 142.914 100.734C142.914 100.105 142.404 99.5944 141.774 99.5944C141.144 99.5944 140.634 100.105 140.634 100.734C140.634 101.364 141.144 101.875 141.774 101.875Z" fill="white"/>
<path d="M112.002 135.237C111.776 135.237 111.552 135.143 111.391 134.961C111.094 134.623 111.127 134.11 111.464 133.813L123.675 123.064C124.013 122.767 124.527 122.8 124.823 123.137C125.12 123.474 125.087 123.988 124.75 124.285L112.539 135.034C112.384 135.169 112.192 135.237 112.002 135.237Z" fill="white"/>
<path d="M153.908 98.3483C153.682 98.3483 153.458 98.2549 153.297 98.0724C153 97.7351 153.033 97.2216 153.369 96.9246L166.418 85.4394C166.755 85.1424 167.269 85.1756 167.565 85.5123C167.863 85.8497 167.829 86.3631 167.493 86.6602L154.445 98.1446C154.29 98.2804 154.099 98.3476 153.908 98.3476L153.908 98.3483Z" fill="white"/>
</g>
<path d="M63.5868 163.493V149.717H66.8028L67.1148 152.597C67.5788 151.589 68.2828 150.781 69.2268 150.173C70.1708 149.565 71.3308 149.261 72.7068 149.261C74.6588 149.261 76.1628 149.837 77.2188 150.989C78.2908 152.125 78.8268 153.653 78.8268 155.573V163.493H75.0828V156.461C75.0828 155.181 74.8188 154.173 74.2908 153.437C73.7628 152.701 72.8188 152.333 71.4588 152.333C70.0508 152.333 69.0108 152.733 68.3388 153.533C67.6828 154.333 67.3548 155.477 67.3548 156.965V163.493H63.5868Z" fill="white"/>
<path d="M88.756 163.901C85.908 163.901 83.828 163.277 82.516 162.029C81.22 160.765 80.572 159.013 80.572 156.773V156.629C80.572 155.093 80.916 153.773 81.604 152.669C82.308 151.565 83.276 150.725 84.508 150.149C85.756 149.557 87.196 149.261 88.828 149.261C90.508 149.261 91.964 149.557 93.196 150.149C94.444 150.725 95.404 151.565 96.076 152.669C96.764 153.757 97.108 155.077 97.108 156.629V156.773C97.108 158.949 96.404 160.685 94.996 161.981C93.604 163.261 91.524 163.901 88.756 163.901ZM88.828 160.805C90.396 160.805 91.54 160.461 92.26 159.773C92.98 159.069 93.34 158.061 93.34 156.749V156.629C93.34 155.237 92.964 154.173 92.212 153.437C91.476 152.685 90.364 152.309 88.876 152.309C87.42 152.309 86.3 152.677 85.516 153.413C84.732 154.133 84.34 155.205 84.34 156.629V156.749C84.34 158.061 84.708 159.069 85.444 159.773C86.196 160.461 87.324 160.805 88.828 160.805Z" fill="white"/>
<path d="M109.464 163.901C107.736 163.901 106.416 163.581 105.504 162.941C104.592 162.285 104.136 161.333 104.136 160.085V160.061C104.136 158.477 104.816 157.325 106.176 156.605C106.608 156.381 107.064 156.197 107.544 156.053C108.024 155.909 108.64 155.781 109.392 155.669C110.16 155.557 111.16 155.453 112.392 155.357C113.816 155.245 114.792 155.093 115.32 154.901C115.848 154.709 116.112 154.365 116.112 153.869C116.112 153.357 115.864 152.925 115.368 152.573C114.872 152.205 113.96 152.021 112.632 152.021C111.112 152.021 110.032 152.229 109.392 152.645C108.768 153.061 108.416 153.693 108.336 154.541H104.52C104.696 152.829 105.448 151.525 106.776 150.629C108.12 149.733 109.976 149.285 112.344 149.285C114.824 149.285 116.664 149.693 117.864 150.509C119.064 151.325 119.664 152.701 119.664 154.637V163.493H116.664L116.328 160.421C115.784 161.429 114.944 162.261 113.808 162.917C112.672 163.573 111.224 163.901 109.464 163.901ZM110.64 161.213C111.728 161.213 112.688 161.005 113.52 160.589C114.352 160.173 115 159.645 115.464 159.005C115.928 158.365 116.16 157.709 116.16 157.037V156.701C115.68 157.149 114.592 157.445 112.896 157.589C111.776 157.685 110.92 157.789 110.328 157.901C109.752 158.013 109.288 158.165 108.936 158.357C108.376 158.677 108.096 159.117 108.096 159.677C108.096 160.173 108.296 160.557 108.696 160.829C109.096 161.085 109.744 161.213 110.64 161.213Z" fill="white"/>
<path d="M121.996 163.493V149.717H125.14L125.572 153.293C125.892 152.109 126.476 151.197 127.324 150.557C128.172 149.901 129.324 149.573 130.78 149.573H132.196V153.245H130.54C129.26 153.245 128.268 153.405 127.564 153.725C126.876 154.029 126.396 154.549 126.124 155.285C125.868 156.005 125.74 156.981 125.74 158.213V163.493H121.996Z" fill="white"/>
<path d="M136.675 157.205V152.885H133.315V149.861C133.667 149.861 134.019 149.861 134.371 149.861C134.723 149.845 135.059 149.829 135.379 149.813C135.891 149.765 136.243 149.637 136.435 149.429C136.643 149.205 136.803 148.805 136.915 148.229C136.979 147.909 137.019 147.525 137.035 147.077C137.051 146.629 137.059 146.253 137.059 145.949H140.179V149.717H145.123V152.885H140.179V156.605C140.179 157.661 140.251 158.445 140.395 158.957C140.555 159.469 140.867 159.805 141.331 159.965C141.811 160.125 142.523 160.205 143.467 160.205H145.123V163.493H142.507C140.987 163.493 139.803 163.293 138.955 162.893C138.107 162.493 137.515 161.837 137.179 160.925C136.843 159.997 136.675 158.757 136.675 157.205Z" fill="white"/>
<path d="M148.892 147.845C148.028 147.845 147.404 147.677 147.02 147.341C146.652 147.005 146.468 146.397 146.468 145.517C146.468 144.669 146.676 144.077 147.092 143.741C147.508 143.405 148.108 143.237 148.892 143.237C149.66 143.237 150.252 143.405 150.668 143.741C151.084 144.077 151.292 144.669 151.292 145.517C151.292 146.333 151.092 146.925 150.692 147.293C150.292 147.661 149.692 147.845 148.892 147.845ZM146.924 163.493V149.717H150.716V163.493H146.924Z" fill="white"/>
<path d="M152.007 149.717H155.247V149.045C155.247 147.717 155.415 146.669 155.751 145.901C156.087 145.133 156.647 144.581 157.431 144.245C158.215 143.909 159.271 143.741 160.599 143.741H162.927V146.717H161.007C160.399 146.717 159.935 146.781 159.615 146.909C159.295 147.021 159.071 147.253 158.943 147.605C158.831 147.957 158.775 148.485 158.775 149.189V149.717H162.927V152.837H158.775L158.751 163.493H155.247V152.837H152.007V149.717Z" fill="white"/>
<path d="M166.577 147.845C165.713 147.845 165.089 147.677 164.705 147.341C164.337 147.005 164.153 146.397 164.153 145.517C164.153 144.669 164.361 144.077 164.777 143.741C165.193 143.405 165.793 143.237 166.577 143.237C167.345 143.237 167.937 143.405 168.353 143.741C168.769 144.077 168.977 144.669 168.977 145.517C168.977 146.333 168.777 146.925 168.377 147.293C167.977 147.661 167.377 147.845 166.577 147.845ZM164.609 163.493V149.717H168.401V163.493H164.609Z" fill="white"/>
<path d="M178.363 163.805C175.515 163.805 173.435 163.197 172.123 161.981C170.827 160.749 170.179 159.013 170.179 156.773V156.629C170.179 155.093 170.523 153.773 171.211 152.669C171.915 151.565 172.883 150.725 174.115 150.149C175.363 149.557 176.803 149.261 178.435 149.261C180.867 149.261 182.795 149.789 184.219 150.845C185.643 151.885 186.467 153.413 186.691 155.429V155.453H182.755V155.429C182.595 154.389 182.163 153.613 181.459 153.101C180.755 152.573 179.763 152.309 178.483 152.309C177.043 152.309 175.931 152.677 175.147 153.413C174.363 154.133 173.971 155.205 173.971 156.629V156.749C173.971 158.061 174.339 159.069 175.075 159.773C175.811 160.461 176.931 160.805 178.435 160.805C179.795 160.805 180.811 160.541 181.483 160.013C182.171 159.469 182.595 158.669 182.755 157.613H186.715V157.637C186.555 159.621 185.771 161.149 184.363 162.221C182.971 163.277 180.971 163.805 178.363 163.805Z" fill="white"/>
<path d="M190.426 147.845C189.562 147.845 188.938 147.677 188.554 147.341C188.186 147.005 188.002 146.397 188.002 145.517C188.002 144.669 188.21 144.077 188.626 143.741C189.042 143.405 189.642 143.237 190.426 143.237C191.194 143.237 191.786 143.405 192.202 143.741C192.618 144.077 192.826 144.669 192.826 145.517C192.826 146.333 192.626 146.925 192.226 147.293C191.826 147.661 191.226 147.845 190.426 147.845ZM188.458 163.493V149.717H192.25V163.493H188.458Z" fill="white"/>
<path d="M199.212 163.901C197.484 163.901 196.164 163.581 195.252 162.941C194.34 162.285 193.884 161.333 193.884 160.085V160.061C193.884 158.477 194.564 157.325 195.924 156.605C196.356 156.381 196.812 156.197 197.292 156.053C197.772 155.909 198.388 155.781 199.14 155.669C199.908 155.557 200.908 155.453 202.14 155.357C203.564 155.245 204.54 155.093 205.068 154.901C205.596 154.709 205.86 154.365 205.86 153.869C205.86 153.357 205.612 152.925 205.116 152.573C204.62 152.205 203.708 152.021 202.38 152.021C200.86 152.021 199.78 152.229 199.14 152.645C198.516 153.061 198.164 153.693 198.084 154.541H194.268C194.444 152.829 195.196 151.525 196.524 150.629C197.868 149.733 199.724 149.285 202.092 149.285C204.572 149.285 206.412 149.693 207.612 150.509C208.812 151.325 209.412 152.701 209.412 154.637V163.493H206.412L206.076 160.421C205.532 161.429 204.692 162.261 203.556 162.917C202.42 163.573 200.972 163.901 199.212 163.901ZM200.388 161.213C201.476 161.213 202.436 161.005 203.268 160.589C204.1 160.173 204.748 159.645 205.212 159.005C205.676 158.365 205.908 157.709 205.908 157.037V156.701C205.428 157.149 204.34 157.445 202.644 157.589C201.524 157.685 200.668 157.789 200.076 157.901C199.5 158.013 199.036 158.165 198.684 158.357C198.124 158.677 197.844 159.117 197.844 159.677C197.844 160.173 198.044 160.557 198.444 160.829C198.844 161.085 199.492 161.213 200.388 161.213Z" fill="white"/>
<path d="M211.792 145.805H215.512V163.493H211.792V145.805Z" fill="white"/>
<path d="M64.6169 189.901C62.0729 189.901 60.1289 189.485 58.7849 188.653C57.4569 187.821 56.6409 186.581 56.3369 184.933H60.5129C60.7049 185.669 61.1289 186.197 61.7849 186.517C62.4409 186.821 63.4329 186.973 64.7609 186.973C66.0569 186.973 66.9529 186.829 67.4489 186.541C67.9609 186.237 68.2169 185.837 68.2169 185.341C68.2169 184.989 68.0729 184.725 67.7849 184.549C67.5129 184.357 67.0329 184.221 66.3449 184.141C65.6729 184.045 64.7449 183.965 63.5609 183.901C62.1369 183.821 60.9289 183.653 59.9369 183.397C58.9449 183.125 58.1849 182.709 57.6569 182.149C57.1449 181.589 56.8889 180.837 56.8889 179.893C56.8889 178.565 57.4569 177.461 58.5929 176.581C59.7449 175.701 61.4809 175.261 63.8009 175.261C66.1369 175.261 67.9369 175.653 69.2009 176.437C70.4649 177.221 71.2809 178.389 71.6489 179.941H67.7129C67.5529 179.253 67.1369 178.765 66.4649 178.477C65.7929 178.189 64.8889 178.045 63.7529 178.045C62.9049 178.045 62.2409 178.117 61.7609 178.261C61.2809 178.405 60.9449 178.597 60.7529 178.837C60.5769 179.061 60.4889 179.317 60.4889 179.605C60.4889 179.941 60.6169 180.205 60.8729 180.397C61.1449 180.573 61.6089 180.717 62.2649 180.829C62.9369 180.925 63.8649 181.013 65.0489 181.093C66.6329 181.189 67.9289 181.373 68.9369 181.645C69.9449 181.901 70.6809 182.309 71.1449 182.869C71.6249 183.429 71.8649 184.205 71.8649 185.197C71.8649 186.557 71.2569 187.685 70.0409 188.581C68.8409 189.461 67.0329 189.901 64.6169 189.901Z" fill="white"/>
<path d="M76.1997 189.493L71.7597 175.717H75.5517L78.2877 184.909L82.4157 175.717H85.1757L89.0157 184.957L92.2557 175.717H95.9517L90.8157 189.493H87.6237L83.7117 180.253L79.4397 189.493H76.1997Z" fill="white"/>
<path d="M103.923 189.901C102.003 189.901 100.443 189.613 99.2425 189.037C98.0585 188.445 97.1945 187.621 96.6505 186.565C96.1065 185.509 95.8345 184.277 95.8345 182.869V182.749C95.8345 181.341 96.1465 180.077 96.7705 178.957C97.4105 177.821 98.3465 176.925 99.5785 176.269C100.827 175.597 102.355 175.261 104.163 175.261C105.939 175.261 107.427 175.573 108.627 176.197C109.843 176.821 110.755 177.677 111.363 178.765C111.987 179.853 112.299 181.093 112.299 182.485V183.949H99.3865C99.5785 184.925 100.059 185.677 100.827 186.205C101.595 186.733 102.715 186.997 104.187 186.997C105.275 186.997 106.115 186.861 106.707 186.589C107.315 186.301 107.771 185.901 108.075 185.389H112.107C111.515 186.973 110.523 188.125 109.131 188.845C107.755 189.549 106.019 189.901 103.923 189.901ZM104.235 178.141C102.875 178.141 101.795 178.413 100.995 178.957C100.195 179.485 99.6745 180.237 99.4345 181.213H108.627C108.451 180.173 108.003 179.405 107.283 178.909C106.579 178.397 105.563 178.141 104.235 178.141Z" fill="white"/>
<path d="M121.742 189.901C119.822 189.901 118.262 189.613 117.062 189.037C115.878 188.445 115.014 187.621 114.47 186.565C113.926 185.509 113.654 184.277 113.654 182.869V182.749C113.654 181.341 113.966 180.077 114.59 178.957C115.23 177.821 116.166 176.925 117.398 176.269C118.646 175.597 120.174 175.261 121.982 175.261C123.758 175.261 125.246 175.573 126.446 176.197C127.662 176.821 128.574 177.677 129.182 178.765C129.806 179.853 130.118 181.093 130.118 182.485V183.949H117.206C117.398 184.925 117.878 185.677 118.646 186.205C119.414 186.733 120.534 186.997 122.006 186.997C123.094 186.997 123.934 186.861 124.526 186.589C125.134 186.301 125.59 185.901 125.894 185.389H129.926C129.334 186.973 128.342 188.125 126.95 188.845C125.574 189.549 123.838 189.901 121.742 189.901ZM122.054 178.141C120.694 178.141 119.614 178.413 118.814 178.957C118.014 179.485 117.494 180.237 117.254 181.213H126.446C126.27 180.173 125.822 179.405 125.102 178.909C124.398 178.397 123.382 178.141 122.054 178.141Z" fill="white"/>
<path d="M133.737 183.205V178.885H130.377V175.861C130.729 175.861 131.081 175.861 131.433 175.861C131.785 175.845 132.121 175.829 132.441 175.813C132.953 175.765 133.305 175.637 133.497 175.429C133.705 175.205 133.865 174.805 133.977 174.229C134.041 173.909 134.081 173.525 134.097 173.077C134.113 172.629 134.121 172.253 134.121 171.949H137.241V175.717H142.185V178.885H137.241V182.605C137.241 183.661 137.313 184.445 137.457 184.957C137.617 185.469 137.929 185.805 138.393 185.965C138.873 186.125 139.585 186.205 140.529 186.205H142.185V189.493H139.569C138.049 189.493 136.865 189.293 136.017 188.893C135.169 188.493 134.577 187.837 134.241 186.925C133.905 185.997 133.737 184.757 133.737 183.205Z" fill="white"/>
<path d="M151.098 189.901C149.178 189.901 147.618 189.613 146.418 189.037C145.234 188.445 144.37 187.621 143.826 186.565C143.282 185.509 143.01 184.277 143.01 182.869V182.749C143.01 181.341 143.322 180.077 143.946 178.957C144.586 177.821 145.522 176.925 146.754 176.269C148.002 175.597 149.53 175.261 151.338 175.261C153.114 175.261 154.602 175.573 155.802 176.197C157.018 176.821 157.93 177.677 158.538 178.765C159.162 179.853 159.474 181.093 159.474 182.485V183.949H146.562C146.754 184.925 147.234 185.677 148.002 186.205C148.77 186.733 149.89 186.997 151.362 186.997C152.45 186.997 153.29 186.861 153.882 186.589C154.49 186.301 154.946 185.901 155.25 185.389H159.282C158.69 186.973 157.698 188.125 156.306 188.845C154.93 189.549 153.194 189.901 151.098 189.901ZM151.41 178.141C150.05 178.141 148.97 178.413 148.17 178.957C147.37 179.485 146.85 180.237 146.61 181.213H155.802C155.626 180.173 155.178 179.405 154.458 178.909C153.754 178.397 152.738 178.141 151.41 178.141Z" fill="white"/>
<path d="M161.148 189.493V175.717H164.364L164.676 178.597C165.14 177.589 165.844 176.781 166.788 176.173C167.732 175.565 168.892 175.261 170.268 175.261C172.22 175.261 173.724 175.837 174.78 176.989C175.852 178.125 176.388 179.653 176.388 181.573V189.493H172.644V182.461C172.644 181.181 172.38 180.173 171.852 179.437C171.324 178.701 170.38 178.333 169.02 178.333C167.612 178.333 166.572 178.733 165.9 179.533C165.244 180.333 164.916 181.477 164.916 182.965V189.493H161.148Z" fill="white"/>
<path d="M186.221 189.901C184.301 189.901 182.741 189.613 181.541 189.037C180.357 188.445 179.493 187.621 178.949 186.565C178.405 185.509 178.133 184.277 178.133 182.869V182.749C178.133 181.341 178.445 180.077 179.069 178.957C179.709 177.821 180.645 176.925 181.877 176.269C183.125 175.597 184.653 175.261 186.461 175.261C188.237 175.261 189.725 175.573 190.925 176.197C192.141 176.821 193.053 177.677 193.661 178.765C194.285 179.853 194.597 181.093 194.597 182.485V183.949H181.685C181.877 184.925 182.357 185.677 183.125 186.205C183.893 186.733 185.013 186.997 186.485 186.997C187.573 186.997 188.413 186.861 189.005 186.589C189.613 186.301 190.069 185.901 190.373 185.389H194.405C193.813 186.973 192.821 188.125 191.429 188.845C190.053 189.549 188.317 189.901 186.221 189.901ZM186.533 178.141C185.173 178.141 184.093 178.413 183.293 178.957C182.493 179.485 181.973 180.237 181.733 181.213H190.925C190.749 180.173 190.301 179.405 189.581 178.909C188.877 178.397 187.861 178.141 186.533 178.141Z" fill="white"/>
<path d="M196.27 189.493V175.717H199.414L199.846 179.293C200.166 178.109 200.75 177.197 201.598 176.557C202.446 175.901 203.598 175.573 205.054 175.573H206.47V179.245H204.814C203.534 179.245 202.542 179.405 201.838 179.725C201.15 180.029 200.67 180.549 200.398 181.285C200.142 182.005 200.014 182.981 200.014 184.213V189.493H196.27Z" fill="white"/>
<path d="M215.192 189.901C212.648 189.901 210.704 189.485 209.36 188.653C208.032 187.821 207.216 186.581 206.912 184.933H211.088C211.28 185.669 211.704 186.197 212.36 186.517C213.016 186.821 214.008 186.973 215.336 186.973C216.632 186.973 217.528 186.829 218.024 186.541C218.536 186.237 218.792 185.837 218.792 185.341C218.792 184.989 218.648 184.725 218.36 184.549C218.088 184.357 217.608 184.221 216.92 184.141C216.248 184.045 215.32 183.965 214.136 183.901C212.712 183.821 211.504 183.653 210.512 183.397C209.52 183.125 208.76 182.709 208.232 182.149C207.72 181.589 207.464 180.837 207.464 179.893C207.464 178.565 208.032 177.461 209.168 176.581C210.32 175.701 212.056 175.261 214.376 175.261C216.712 175.261 218.512 175.653 219.776 176.437C221.04 177.221 221.856 178.389 222.224 179.941H218.288C218.128 179.253 217.712 178.765 217.04 178.477C216.368 178.189 215.464 178.045 214.328 178.045C213.48 178.045 212.816 178.117 212.336 178.261C211.856 178.405 211.52 178.597 211.328 178.837C211.152 179.061 211.064 179.317 211.064 179.605C211.064 179.941 211.192 180.205 211.448 180.397C211.72 180.573 212.184 180.717 212.84 180.829C213.512 180.925 214.44 181.013 215.624 181.093C217.208 181.189 218.504 181.373 219.512 181.645C220.52 181.901 221.256 182.309 221.72 182.869C222.2 183.429 222.44 184.205 222.44 185.197C222.44 186.557 221.832 187.685 220.616 188.581C219.416 189.461 217.608 189.901 215.192 189.901Z" fill="white"/>
<defs>
<clipPath id="clip0_1773_324">
<rect width="60" height="50" fill="white" transform="translate(109.388 85.2366)"/>
</clipPath>
</defs>
</svg>
