<svg width="281" height="281" viewBox="0 0 281 281" fill="none" xmlns="http://www.w3.org/2000/svg">
<path fill-rule="evenodd" clip-rule="evenodd" d="M159.068 252.631C180.702 266.629 209.272 252.631 212.015 226.679C213.438 213.095 222.47 201.581 235.15 197.13C259.398 188.644 266.463 157.18 248.218 138.809C238.669 129.21 235.46 114.85 239.963 101.964C248.555 77.3576 228.81 52.13 203.32 55.209C189.992 56.8133 176.95 50.4223 169.885 38.8046C156.35 16.6302 124.65 16.6302 111.115 38.8046C104.05 50.4223 91.0077 56.7874 77.6804 55.209C52.2162 52.1559 32.4451 77.3834 41.0367 101.964C45.5396 114.824 42.3306 129.184 32.7815 138.809C14.5373 157.18 21.6021 188.644 45.8501 197.13C58.5305 201.581 67.562 213.095 68.9853 226.679C71.7284 252.631 100.298 266.655 121.932 252.631C133.267 245.309 147.733 245.309 159.068 252.631Z" fill="white"/>
<path d="M137.688 116.019C137.619 115.598 135.957 105.652 131.642 101.313C130.565 100.23 128.854 98.8374 126.817 98.3525C124.698 97.848 122.688 98.4548 121.002 100.106L120.959 100.149C119.273 101.802 118.637 103.79 119.119 105.9C119.581 107.928 120.962 109.646 122.039 110.728C126.354 115.067 136.349 116.844 136.771 116.917C136.817 116.925 136.862 116.928 136.908 116.928C137.112 116.928 137.312 116.849 137.461 116.704L137.752 116.418L137.687 116.019H137.688Z" fill="#F60EA6"/>
<path d="M137.913 133.071C137.844 132.65 136.182 122.704 131.867 118.365C130.79 117.282 129.079 115.889 127.042 115.404C124.923 114.899 122.913 115.506 121.227 117.159L121.184 117.201C119.499 118.854 118.863 120.842 119.344 122.952C119.807 124.98 121.188 126.698 122.265 127.781C126.579 132.119 136.575 133.896 136.997 133.969C137.042 133.977 137.088 133.98 137.133 133.98C137.338 133.98 137.538 133.901 137.686 133.756L137.977 133.47L137.913 133.072V133.071Z" fill="#F60EA6"/>
<path d="M144.436 89.0443C143.285 87.2077 141.425 86.2366 139.057 86.2366H138.996C136.628 86.2366 134.769 87.2077 133.618 89.0443C132.512 90.8104 132.28 92.9958 132.28 94.5175C132.28 100.616 138.135 108.852 138.385 109.201C138.533 109.406 138.773 109.529 139.028 109.529L139.436 109.527L139.671 109.2C139.92 108.853 145.776 100.616 145.776 94.5181C145.776 92.9958 145.544 90.8111 144.438 89.045L144.436 89.0443ZM144.114 93.4725C144.09 93.8274 143.793 94.0989 143.439 94.0989C143.424 94.0989 143.408 94.0989 143.392 94.0976C143.019 94.0719 142.737 93.7515 142.763 93.3811C142.836 92.3125 142.199 91.1829 141.1 90.4339C139.863 89.5908 138.329 89.4215 137.098 89.991C136.759 90.1481 136.356 90.0025 136.198 89.6659C136.04 89.3294 136.186 88.9291 136.525 88.772C138.188 88.0014 140.235 88.2133 141.866 89.3246C143.381 90.3574 144.222 91.9082 144.114 93.4725H144.114Z" fill="#F60EA6"/>
<path d="M156.967 100.256L156.923 100.213C155.238 98.5611 153.228 97.9543 151.109 98.4588C149.072 98.9437 147.36 100.337 146.283 101.42C141.977 105.75 140.313 115.667 140.239 116.123C140.197 116.372 140.28 116.626 140.459 116.805L140.752 117.092L141.153 117.022C141.577 116.949 151.573 115.172 155.887 110.834C156.963 109.751 158.345 108.035 158.807 106.006C159.288 103.895 158.652 101.907 156.967 100.255V100.256ZM156.302 108.06C156.169 108.238 155.964 108.332 155.757 108.332C155.617 108.332 155.476 108.29 155.355 108.2C155.054 107.98 154.991 107.558 155.213 107.26C155.855 106.399 155.932 105.107 155.412 103.887C154.827 102.515 153.627 101.552 152.281 101.374C151.91 101.325 151.65 100.987 151.699 100.619C151.748 100.251 152.088 99.9927 152.459 100.041C154.278 100.282 155.888 101.555 156.659 103.364C157.375 105.045 157.242 106.801 156.302 108.061V108.06Z" fill="#F60EA6"/>
<path d="M156.869 117.2L156.826 117.158C155.141 115.507 153.13 114.9 151.012 115.405C148.975 115.889 147.264 117.282 146.187 118.365C141.872 122.704 140.21 132.65 140.14 133.075C140.101 133.324 140.186 133.579 140.367 133.755L140.659 134.037L141.056 133.968C141.48 133.895 151.475 132.118 155.79 127.78C156.867 126.697 158.248 124.98 158.71 122.951C159.191 120.841 158.555 118.853 156.869 117.2ZM156.63 125.005C156.497 125.183 156.292 125.278 156.085 125.278C155.945 125.278 155.804 125.235 155.683 125.145C155.382 124.925 155.319 124.503 155.541 124.205C156.183 123.344 156.26 122.052 155.74 120.832C155.155 119.46 153.955 118.497 152.609 118.319C152.238 118.27 151.978 117.931 152.027 117.563C152.076 117.195 152.416 116.936 152.787 116.986C154.606 117.226 156.216 118.499 156.987 120.308C157.703 121.989 157.57 123.744 156.63 125.005Z" fill="#F60EA6"/>
<path d="M57.8369 157.397H62.2049V149.597H59.2769V146.741C60.4769 146.661 61.3409 146.389 61.8689 145.925C62.3969 145.445 62.7329 144.741 62.8769 143.813H65.9249V157.397H69.9809V160.925H57.8369V157.397Z" fill="#316AFA"/>
<path d="M79.2224 161.357C77.3824 161.357 75.7904 161.053 74.4464 160.445C73.1024 159.821 72.0624 158.877 71.3264 157.613C70.6064 156.349 70.2464 154.741 70.2464 152.789V152.141C70.2464 150.285 70.6224 148.709 71.3744 147.413C72.1264 146.117 73.1744 145.133 74.5184 144.461C75.8624 143.773 77.4224 143.429 79.1984 143.429C80.9584 143.429 82.5184 143.765 83.8784 144.437C85.2384 145.093 86.3024 146.069 87.0704 147.365C87.8384 148.661 88.2224 150.245 88.2224 152.117V152.813C88.2224 154.717 87.8384 156.301 87.0704 157.565C86.3184 158.829 85.2624 159.781 83.9024 160.421C82.5584 161.045 80.9984 161.357 79.2224 161.357ZM79.1984 158.021C80.8464 158.021 82.1264 157.613 83.0384 156.797C83.9504 155.965 84.4064 154.613 84.4064 152.741V152.261C84.4064 150.341 83.9504 148.941 83.0384 148.061C82.1424 147.181 80.8704 146.741 79.2224 146.741C77.5424 146.741 76.2624 147.197 75.3824 148.109C74.5024 149.005 74.0624 150.381 74.0624 152.237V152.717C74.0624 154.493 74.5024 155.821 75.3824 156.701C76.2624 157.581 77.5344 158.021 79.1984 158.021Z" fill="#316AFA"/>
<path d="M98.9868 161.357C97.1468 161.357 95.5548 161.053 94.2108 160.445C92.8668 159.821 91.8268 158.877 91.0908 157.613C90.3708 156.349 90.0108 154.741 90.0108 152.789V152.141C90.0108 150.285 90.3868 148.709 91.1388 147.413C91.8908 146.117 92.9388 145.133 94.2828 144.461C95.6268 143.773 97.1868 143.429 98.9628 143.429C100.723 143.429 102.283 143.765 103.643 144.437C105.003 145.093 106.067 146.069 106.835 147.365C107.603 148.661 107.987 150.245 107.987 152.117V152.813C107.987 154.717 107.603 156.301 106.835 157.565C106.083 158.829 105.027 159.781 103.667 160.421C102.323 161.045 100.763 161.357 98.9868 161.357ZM98.9628 158.021C100.611 158.021 101.891 157.613 102.803 156.797C103.715 155.965 104.171 154.613 104.171 152.741V152.261C104.171 150.341 103.715 148.941 102.803 148.061C101.907 147.181 100.635 146.741 98.9868 146.741C97.3068 146.741 96.0268 147.197 95.1468 148.109C94.2668 149.005 93.8268 150.381 93.8268 152.237V152.717C93.8268 154.493 94.2668 155.821 95.1468 156.701C96.0268 157.581 97.2988 158.021 98.9628 158.021Z" fill="#316AFA"/>
<path d="M113.072 151.469C111.68 151.469 110.632 151.133 109.928 150.461C109.224 149.773 108.872 148.821 108.872 147.605V147.557C108.872 146.373 109.264 145.421 110.048 144.701C110.832 143.965 111.872 143.597 113.168 143.597C114.448 143.597 115.464 143.957 116.216 144.677C116.984 145.381 117.368 146.341 117.368 147.557V147.605C117.368 148.789 116.992 149.733 116.24 150.437C115.488 151.125 114.432 151.469 113.072 151.469ZM108.608 160.925L124.184 143.813H128.456L113.072 160.925H108.608ZM113.096 149.165C113.608 149.165 114.008 149.029 114.296 148.757C114.6 148.485 114.752 148.093 114.752 147.581V147.557C114.752 147.045 114.6 146.653 114.296 146.381C114.008 146.109 113.608 145.973 113.096 145.973C112.6 145.973 112.2 146.109 111.896 146.381C111.608 146.637 111.464 147.029 111.464 147.557V147.581C111.464 148.637 112.008 149.165 113.096 149.165ZM123.896 161.165C122.504 161.165 121.448 160.829 120.728 160.157C120.024 159.485 119.672 158.541 119.672 157.325V157.253C119.672 156.069 120.064 155.117 120.848 154.397C121.648 153.677 122.696 153.317 123.992 153.317C125.272 153.317 126.288 153.677 127.04 154.397C127.808 155.101 128.192 156.053 128.192 157.253V157.325C128.192 158.509 127.816 159.445 127.064 160.133C126.312 160.821 125.256 161.165 123.896 161.165ZM123.92 158.885C124.432 158.885 124.832 158.749 125.12 158.477C125.424 158.205 125.576 157.813 125.576 157.301V157.253C125.576 156.741 125.424 156.357 125.12 156.101C124.832 155.829 124.432 155.693 123.92 155.693C123.424 155.693 123.024 155.829 122.72 156.101C122.432 156.357 122.288 156.741 122.288 157.253V157.301C122.288 158.357 122.832 158.885 123.92 158.885Z" fill="#316AFA"/>
<path d="M134.693 158.333C134.693 157.565 135.005 156.925 135.629 156.413C136.253 155.901 137.245 155.581 138.605 155.453C137.485 155.197 136.629 154.773 136.037 154.181C135.445 153.589 135.149 152.741 135.149 151.637C135.149 150.213 135.749 149.093 136.949 148.277C138.165 147.445 139.933 147.005 142.253 146.957C142.365 146.957 142.469 146.957 142.565 146.957C142.661 146.957 142.757 146.949 142.853 146.933C143.733 146.901 144.421 146.821 144.917 146.693C145.413 146.549 145.757 146.285 145.949 145.901C146.157 145.501 146.261 144.925 146.261 144.173V143.957H150.413V144.245C150.413 144.981 150.333 145.565 150.173 145.997C150.013 146.429 149.733 146.749 149.333 146.957C148.933 147.149 148.397 147.277 147.725 147.341C147.053 147.405 146.197 147.437 145.157 147.437C146.917 147.581 148.213 148.013 149.045 148.733C149.877 149.437 150.293 150.405 150.293 151.637V151.685C150.293 153.205 149.661 154.349 148.397 155.117C147.149 155.869 145.333 156.245 142.949 156.245H141.893C140.709 156.245 139.837 156.285 139.277 156.365C138.717 156.429 138.341 156.533 138.149 156.677C137.973 156.821 137.885 157.013 137.885 157.253C137.885 157.557 138.133 157.773 138.629 157.901C139.125 158.029 140.029 158.085 141.341 158.069H144.701C146.941 158.069 148.565 158.397 149.573 159.053C150.581 159.709 151.085 160.749 151.085 162.173V162.245C151.085 163.781 150.429 164.989 149.117 165.869C147.805 166.749 145.709 167.189 142.829 167.189H142.109C140.221 167.189 138.725 167.061 137.621 166.805C136.517 166.549 135.733 166.173 135.269 165.677C134.805 165.197 134.573 164.621 134.573 163.949C134.573 163.117 134.877 162.445 135.485 161.933C136.093 161.437 137.093 161.093 138.485 160.901C137.221 160.837 136.269 160.613 135.629 160.229C135.005 159.845 134.693 159.213 134.693 158.333ZM142.685 153.773C144.045 153.773 145.045 153.597 145.685 153.245C146.341 152.893 146.669 152.365 146.669 151.661V151.637C146.669 150.821 146.349 150.245 145.709 149.909C145.085 149.573 144.133 149.405 142.853 149.405H142.565C140.085 149.405 138.845 150.165 138.845 151.685V151.733C138.845 152.469 139.157 152.997 139.781 153.317C140.421 153.621 141.389 153.773 142.685 153.773ZM142.397 164.261H143.117C144.829 164.261 146.013 164.085 146.669 163.733C147.325 163.397 147.653 162.957 147.653 162.413V162.341C147.653 162.037 147.565 161.781 147.389 161.573C147.229 161.365 146.917 161.205 146.453 161.093C145.989 160.981 145.293 160.925 144.365 160.925H141.269C139.301 160.989 138.317 161.557 138.317 162.629V162.653C138.317 163.181 138.645 163.581 139.301 163.853C139.957 164.125 140.989 164.261 142.397 164.261Z" fill="#316AFA"/>
<path d="M152.018 143.237H155.738V160.925H152.018V143.237Z" fill="#316AFA"/>
<path d="M163.761 161.309C161.825 161.309 160.361 160.749 159.369 159.629C158.377 158.509 157.881 156.989 157.881 155.069V147.149H161.601V154.253C161.601 155.501 161.873 156.477 162.417 157.181C162.961 157.869 163.889 158.213 165.201 158.213C166.417 158.213 167.337 157.821 167.961 157.037C168.585 156.253 168.897 155.205 168.897 153.893V147.149H172.641V160.925H169.497L169.161 157.997C168.745 159.005 168.081 159.813 167.169 160.421C166.273 161.013 165.137 161.309 163.761 161.309Z" fill="#316AFA"/>
<path d="M177.437 154.637V150.317H174.077V147.293C174.429 147.293 174.781 147.293 175.133 147.293C175.485 147.277 175.821 147.261 176.141 147.245C176.653 147.197 177.005 147.069 177.197 146.861C177.405 146.637 177.565 146.237 177.677 145.661C177.741 145.341 177.781 144.957 177.797 144.509C177.813 144.061 177.821 143.685 177.821 143.381H180.941V147.149H185.885V150.317H180.941V154.037C180.941 155.093 181.013 155.877 181.157 156.389C181.317 156.901 181.629 157.237 182.093 157.397C182.573 157.557 183.285 157.637 184.229 157.637H185.885V160.925H183.269C181.749 160.925 180.565 160.725 179.717 160.325C178.869 159.925 178.277 159.269 177.941 158.357C177.605 157.429 177.437 156.189 177.437 154.637Z" fill="#316AFA"/>
<path d="M194.799 161.333C192.879 161.333 191.319 161.045 190.119 160.469C188.935 159.877 188.071 159.053 187.527 157.997C186.983 156.941 186.711 155.709 186.711 154.301V154.181C186.711 152.773 187.023 151.509 187.647 150.389C188.287 149.253 189.223 148.357 190.455 147.701C191.703 147.029 193.231 146.693 195.039 146.693C196.815 146.693 198.303 147.005 199.503 147.629C200.719 148.253 201.631 149.109 202.239 150.197C202.863 151.285 203.175 152.525 203.175 153.917V155.381H190.263C190.455 156.357 190.935 157.109 191.703 157.637C192.471 158.165 193.591 158.429 195.063 158.429C196.151 158.429 196.991 158.293 197.583 158.021C198.191 157.733 198.647 157.333 198.951 156.821H202.983C202.391 158.405 201.399 159.557 200.007 160.277C198.631 160.981 196.895 161.333 194.799 161.333ZM195.111 149.573C193.751 149.573 192.671 149.845 191.871 150.389C191.071 150.917 190.551 151.669 190.311 152.645H199.503C199.327 151.605 198.879 150.837 198.159 150.341C197.455 149.829 196.439 149.573 195.111 149.573Z" fill="#316AFA"/>
<path d="M204.848 160.925V147.149H208.064L208.376 150.029C208.84 149.021 209.544 148.213 210.488 147.605C211.432 146.997 212.592 146.693 213.968 146.693C215.92 146.693 217.424 147.269 218.48 148.421C219.552 149.557 220.088 151.085 220.088 153.005V160.925H216.344V153.893C216.344 152.613 216.08 151.605 215.552 150.869C215.024 150.133 214.08 149.765 212.72 149.765C211.312 149.765 210.272 150.165 209.6 150.965C208.944 151.765 208.616 152.909 208.616 154.397V160.925H204.848Z" fill="#316AFA"/>
<path d="M110.215 173.149H113.455V172.477C113.455 171.149 113.623 170.101 113.959 169.333C114.295 168.565 114.855 168.013 115.639 167.677C116.423 167.341 117.479 167.173 118.807 167.173H121.135V170.149H119.215C118.607 170.149 118.143 170.213 117.823 170.341C117.503 170.453 117.279 170.685 117.151 171.037C117.039 171.389 116.983 171.917 116.983 172.621V173.149H121.135V176.269H116.983L116.959 186.925H113.455V176.269H110.215V173.149Z" fill="#316AFA"/>
<path d="M122.652 186.925V173.149H125.796L126.228 176.725C126.548 175.541 127.132 174.629 127.98 173.989C128.828 173.333 129.98 173.005 131.436 173.005H132.852V176.677H131.196C129.916 176.677 128.924 176.837 128.22 177.157C127.532 177.461 127.052 177.981 126.78 178.717C126.524 179.437 126.396 180.413 126.396 181.645V186.925H122.652Z" fill="#316AFA"/>
<path d="M141.42 187.333C139.5 187.333 137.94 187.045 136.74 186.469C135.556 185.877 134.692 185.053 134.148 183.997C133.604 182.941 133.332 181.709 133.332 180.301V180.181C133.332 178.773 133.644 177.509 134.268 176.389C134.908 175.253 135.844 174.357 137.076 173.701C138.324 173.029 139.852 172.693 141.66 172.693C143.436 172.693 144.924 173.005 146.124 173.629C147.34 174.253 148.252 175.109 148.86 176.197C149.484 177.285 149.796 178.525 149.796 179.917V181.381H136.884C137.076 182.357 137.556 183.109 138.324 183.637C139.092 184.165 140.212 184.429 141.684 184.429C142.772 184.429 143.612 184.293 144.204 184.021C144.812 183.733 145.268 183.333 145.572 182.821H149.604C149.012 184.405 148.02 185.557 146.628 186.277C145.252 186.981 143.516 187.333 141.42 187.333ZM141.732 175.573C140.372 175.573 139.292 175.845 138.492 176.389C137.692 176.917 137.172 177.669 136.932 178.645H146.124C145.948 177.605 145.5 176.837 144.78 176.341C144.076 175.829 143.06 175.573 141.732 175.573Z" fill="#316AFA"/>
<path d="M159.239 187.333C157.319 187.333 155.759 187.045 154.559 186.469C153.375 185.877 152.511 185.053 151.967 183.997C151.423 182.941 151.151 181.709 151.151 180.301V180.181C151.151 178.773 151.463 177.509 152.087 176.389C152.727 175.253 153.663 174.357 154.895 173.701C156.143 173.029 157.671 172.693 159.479 172.693C161.255 172.693 162.743 173.005 163.943 173.629C165.159 174.253 166.071 175.109 166.679 176.197C167.303 177.285 167.615 178.525 167.615 179.917V181.381H154.703C154.895 182.357 155.375 183.109 156.143 183.637C156.911 184.165 158.031 184.429 159.503 184.429C160.591 184.429 161.431 184.293 162.023 184.021C162.631 183.733 163.087 183.333 163.391 182.821H167.423C166.831 184.405 165.839 185.557 164.447 186.277C163.071 186.981 161.335 187.333 159.239 187.333ZM159.551 175.573C158.191 175.573 157.111 175.845 156.311 176.389C155.511 176.917 154.991 177.669 154.751 178.645H163.943C163.767 177.605 163.319 176.837 162.599 176.341C161.895 175.829 160.879 175.573 159.551 175.573Z" fill="#316AFA"/>
</svg>
