<svg width="236" height="236" viewBox="0 0 236 236" fill="none" xmlns="http://www.w3.org/2000/svg">
<path fill-rule="evenodd" clip-rule="evenodd" d="M136.568 230.457C158.202 244.455 186.772 230.457 189.515 204.505C190.938 190.921 199.97 179.407 212.65 174.957C236.898 166.47 243.963 135.006 225.718 116.636C216.169 107.036 212.96 92.6758 217.463 79.7903C226.055 55.1837 206.31 29.9562 180.82 33.0352C167.492 34.6394 154.45 28.2484 147.385 16.6308C133.85 -5.5436 102.15 -5.5436 88.6152 16.6308C81.5504 28.2484 68.5077 34.6136 55.1804 33.0352C29.7162 29.982 9.94513 55.2096 18.5367 79.7903C23.0396 92.6499 19.8306 107.01 10.2815 116.636C-7.96266 135.006 -0.897876 166.47 23.3501 174.957C36.0305 179.407 45.062 190.921 46.4853 204.505C49.2284 230.457 77.798 244.481 99.4323 230.457C110.767 223.135 125.233 223.135 136.568 230.457Z" fill="#316AFA"/>
<g clip-path="url(#clip0_764_2020)">
<path d="M89.1992 123.501C88.9629 123.501 88.7282 123.405 88.5579 123.215C88.2392 122.861 88.2677 122.316 88.6224 121.997L106.055 106.31C106.409 105.991 106.955 106.021 107.273 106.375C107.592 106.729 107.564 107.274 107.209 107.593L89.7759 123.28C89.6109 123.428 89.4047 123.501 89.1992 123.501Z" fill="white"/>
<path d="M130.551 86.5798C130.307 86.5798 130.064 86.4763 129.893 86.2761C129.585 85.9131 129.629 85.3686 129.992 85.0603L146.915 70.6843C147.278 70.3761 147.823 70.4203 148.131 70.7833C148.439 71.1463 148.395 71.6908 148.032 71.9991L131.109 86.3751C130.947 86.5131 130.748 86.5806 130.551 86.5806V86.5798Z" fill="white"/>
<path d="M95.2645 95.5947C95.548 96.4377 96.1772 97.127 96.9902 97.4862L106.643 101.75C107.065 101.936 107.513 102.038 107.961 102.06L104.444 84.5727L90.8537 80.8032C90.6932 81.3837 90.6992 82.016 90.9055 82.631L95.2645 95.5947Z" fill="white"/>
<path d="M116.285 75.7093L106.253 74.2925C105.326 74.1613 104.375 74.2693 103.501 74.6045C101.468 75.3845 96.3489 77.348 92.7497 78.722C92.3102 78.89 91.9307 79.145 91.6232 79.4608L104.994 83.1695L117.648 76.22C117.244 75.9583 116.782 75.779 116.285 75.7093Z" fill="white"/>
<path d="M127.677 95.7824L127.646 95.8304L144.301 95.6797C144.171 95.6197 144.032 95.5604 143.882 95.5012L143.823 95.4757L132.312 89.7809C132.042 89.6474 131.774 89.5619 131.516 89.5267L117.911 88.1264C117.766 88.1069 117.621 88.0979 117.479 88.0979C117.072 88.0979 116.679 88.1744 116.315 88.3139L127.677 95.7832V95.7824Z" fill="white"/>
<path d="M122.139 119.765C122.297 119.765 122.456 119.755 122.615 119.73L137.885 117.318C138.995 117.142 139.91 116.375 140.276 115.314L145.443 98.3827L145.447 98.3714C145.608 97.8989 145.681 97.5059 145.652 97.1692L127.807 97.3304L122.14 119.766L122.139 119.765Z" fill="white"/>
<path d="M111.377 106.342C111.229 107.143 111.432 107.971 111.936 108.612L119.81 118.628C120.054 118.939 120.355 119.193 120.689 119.381L126.407 96.7424L114.998 89.2417C114.636 89.6647 114.377 90.1845 114.269 90.7695L111.378 106.341L111.377 106.342Z" fill="white"/>
<path d="M112.497 99.3374L112.719 99.1147L112.721 99.1072L112.497 99.3374Z" fill="white"/>
<path d="M112.906 90.4379C113.369 87.9456 115.697 86.2529 118.209 86.5791L120.011 86.7644L119.206 78.8324C119.166 78.2916 118.997 77.7824 118.729 77.3376L105.932 84.3659L109.445 101.834C109.846 101.687 110.224 101.472 110.558 101.191L110.974 100.84L112.905 90.4386L112.906 90.4379Z" fill="white"/>
</g>
<path d="M71.5269 133.471C71.5269 131.743 72.2949 130.655 73.8949 130.367L74.1189 131.343C73.2709 131.535 72.8389 131.983 72.7429 132.831C72.8549 132.815 72.9669 132.799 73.0949 132.799C73.9749 132.799 74.2949 133.007 74.2949 133.983C74.2949 134.927 73.8949 135.247 72.9509 135.247C71.9269 135.247 71.5269 134.815 71.5269 133.471ZM75.4629 133.471C75.4629 131.743 76.2469 130.655 77.8309 130.367L78.0549 131.343C77.2069 131.535 76.7749 131.983 76.6789 132.847C76.7909 132.815 76.9189 132.799 77.0309 132.799C77.9109 132.799 78.2309 133.007 78.2309 133.983C78.2309 134.927 77.8309 135.247 76.8869 135.247C75.8629 135.247 75.4629 134.815 75.4629 133.471Z" fill="white"/>
<path d="M79.8869 141.871V132.687H82.0309L82.2389 134.607C82.8629 133.263 84.1269 132.383 85.9669 132.383C88.5749 132.383 90.0469 134.031 90.0469 136.591V141.871H87.5509V137.183C87.5509 135.487 86.9429 134.431 85.1349 134.431C83.2469 134.431 82.3989 135.535 82.3989 137.519V141.871H79.8869Z" fill="white"/>
<path d="M96.6664 142.143C92.8584 142.143 91.2104 140.383 91.2104 137.391V137.295C91.2104 134.223 93.4344 132.383 96.7144 132.383C100.058 132.383 102.234 134.191 102.234 137.295V137.391C102.234 140.303 100.362 142.143 96.6664 142.143ZM96.7144 140.079C98.8104 140.079 99.7224 139.119 99.7224 137.375V137.295C99.7224 135.439 98.7304 134.415 96.7464 134.415C94.8104 134.415 93.7224 135.407 93.7224 137.295V137.375C93.7224 139.135 94.6984 140.079 96.7144 140.079Z" fill="white"/>
<path d="M110.472 142.143C108.168 142.143 106.92 141.263 106.92 139.599V139.583C106.92 138.543 107.368 137.759 108.28 137.279C109.128 136.831 109.96 136.655 112.424 136.447C114.312 136.303 114.904 136.127 114.904 135.455C114.904 134.767 114.344 134.223 112.584 134.223C110.552 134.223 109.816 134.783 109.72 135.903H107.176C107.4 133.615 109.224 132.399 112.392 132.399C115.704 132.399 117.272 133.391 117.272 135.967V141.871H115.272L115.048 139.823C114.328 141.167 112.824 142.143 110.472 142.143ZM111.256 140.351C113.432 140.351 114.936 138.927 114.936 137.567V137.343C114.616 137.647 113.928 137.839 112.76 137.935C111.272 138.063 110.584 138.191 110.12 138.447C109.72 138.671 109.56 138.927 109.56 139.327C109.56 139.999 110.056 140.351 111.256 140.351Z" fill="white"/>
<path d="M123.146 142.111C120.426 142.111 118.442 140.623 118.442 137.343V137.247C118.442 134.159 120.33 132.415 123.242 132.415C124.906 132.415 126.154 133.055 126.858 134.207V130.079H129.258V141.871H127.162L126.954 140.063C126.346 141.359 125.066 142.111 123.146 142.111ZM123.898 140.079C125.882 140.079 126.922 139.087 126.922 137.327V137.263C126.922 135.471 125.818 134.415 123.93 134.415C121.914 134.415 120.954 135.455 120.954 137.263V137.327C120.954 139.183 121.93 140.079 123.898 140.079Z" fill="white"/>
<path d="M135.151 142.111C132.431 142.111 130.447 140.623 130.447 137.343V137.247C130.447 134.159 132.335 132.415 135.247 132.415C136.911 132.415 138.159 133.055 138.863 134.207V130.079H141.263V141.871H139.167L138.959 140.063C138.351 141.359 137.071 142.111 135.151 142.111ZM135.903 140.079C137.887 140.079 138.927 139.087 138.927 137.327V137.263C138.927 135.471 137.823 134.415 135.935 134.415C133.919 134.415 132.959 135.455 132.959 137.263V137.327C132.959 139.183 133.935 140.079 135.903 140.079Z" fill="white"/>
<path d="M147.843 142.143C143.987 142.143 142.451 140.287 142.451 137.455V137.375C142.451 134.559 144.387 132.383 148.003 132.383C151.555 132.383 153.427 134.415 153.427 137.199V138.175H144.819C145.075 139.487 146.051 140.207 148.019 140.207C149.459 140.207 150.211 139.823 150.611 139.135H153.299C152.499 141.247 150.627 142.143 147.843 142.143ZM148.051 134.303C146.227 134.303 145.171 135.055 144.851 136.351H150.979C150.739 134.959 149.811 134.303 148.051 134.303Z" fill="white"/>
<path d="M159.034 142.111C156.314 142.111 154.33 140.623 154.33 137.343V137.247C154.33 134.159 156.218 132.415 159.13 132.415C160.794 132.415 162.042 133.055 162.746 134.207V130.079H165.146V141.871H163.05L162.842 140.063C162.234 141.359 160.954 142.111 159.034 142.111ZM159.786 140.079C161.77 140.079 162.81 139.087 162.81 137.327V137.263C162.81 135.471 161.706 134.415 159.818 134.415C157.802 134.415 156.842 135.455 156.842 137.263V137.327C156.842 139.183 157.818 140.079 159.786 140.079Z" fill="white"/>
<path d="M93.1708 160.143C89.7788 160.143 88.0508 159.039 87.6508 156.831H90.4348C90.6908 157.807 91.4908 158.191 93.2668 158.191C94.9948 158.191 95.5708 157.775 95.5708 157.103C95.5708 156.415 94.8348 156.271 92.4668 156.143C89.6188 155.983 88.0188 155.375 88.0188 153.471C88.0188 151.695 89.5228 150.383 92.6268 150.383C95.7308 150.383 97.3628 151.439 97.8588 153.503H95.2348C95.0268 152.591 94.0988 152.239 92.5948 152.239C90.8828 152.239 90.4188 152.719 90.4188 153.279C90.4188 153.951 91.0748 154.111 93.4588 154.271C96.6268 154.463 98.0028 155.039 98.0028 157.007C98.0028 158.831 96.3868 160.143 93.1708 160.143Z" fill="white"/>
<path d="M102.781 160.127C100.205 160.127 98.8607 158.527 98.8607 155.967V150.687H101.341V155.423C101.341 157.087 101.981 158.063 103.741 158.063C105.357 158.063 106.205 156.927 106.205 155.183V150.687H108.701V159.871H106.605L106.381 157.919C105.821 159.263 104.621 160.127 102.781 160.127Z" fill="white"/>
<path d="M109.666 158.143C109.666 157.119 110.466 156.399 112.274 156.223C110.77 155.887 109.97 155.151 109.97 153.679C109.97 151.791 111.602 150.623 114.706 150.559C114.85 150.559 114.978 150.559 115.106 150.543C116.866 150.495 117.378 150.223 117.378 148.703V148.559H120.146V148.751C120.146 150.719 119.394 150.879 116.642 150.879C118.978 151.071 120.066 152.047 120.066 153.679V153.711C120.066 155.743 118.354 156.751 115.17 156.751H114.466C112.13 156.751 111.794 156.959 111.794 157.423C111.794 157.839 112.354 157.983 114.098 157.967H116.338C119.314 157.967 120.594 158.815 120.594 160.703V160.751C120.594 162.799 118.93 164.047 115.09 164.047H114.61C110.818 164.047 109.586 163.247 109.586 161.887C109.586 160.783 110.338 160.111 112.194 159.855C110.514 159.775 109.666 159.311 109.666 158.143ZM114.994 155.103C116.802 155.103 117.65 154.639 117.65 153.695V153.679C117.65 152.591 116.818 152.191 115.106 152.191H114.914C113.234 152.191 112.434 152.671 112.434 153.711V153.743C112.434 154.735 113.266 155.103 114.994 155.103ZM114.802 162.095H115.282C117.554 162.095 118.306 161.599 118.306 160.863V160.815C118.306 160.223 117.954 159.871 116.114 159.871H114.05C112.738 159.919 112.082 160.287 112.082 161.007V161.023C112.082 161.727 112.93 162.095 114.802 162.095Z" fill="white"/>
<path d="M124.177 160.143C121.873 160.143 120.625 159.263 120.625 157.599V157.583C120.625 156.543 121.073 155.759 121.985 155.279C122.833 154.831 123.665 154.655 126.129 154.447C128.017 154.303 128.609 154.127 128.609 153.455C128.609 152.767 128.049 152.223 126.289 152.223C124.257 152.223 123.521 152.783 123.425 153.903H120.881C121.105 151.615 122.929 150.399 126.097 150.399C129.409 150.399 130.977 151.391 130.977 153.967V159.871H128.977L128.753 157.823C128.033 159.167 126.529 160.143 124.177 160.143ZM124.961 158.351C127.137 158.351 128.641 156.927 128.641 155.567V155.343C128.321 155.647 127.633 155.839 126.465 155.935C124.977 156.063 124.289 156.191 123.825 156.447C123.425 156.671 123.265 156.927 123.265 157.327C123.265 157.999 123.761 158.351 124.961 158.351Z" fill="white"/>
<path d="M132.532 159.871V150.687H134.628L134.916 153.071C135.348 151.503 136.436 150.591 138.388 150.591H139.332V153.039H138.228C135.652 153.039 135.028 153.887 135.028 156.351V159.871H132.532Z" fill="white"/>
<path d="M141.433 152.255C142.297 152.063 142.729 151.615 142.809 150.767C142.697 150.783 142.585 150.799 142.457 150.799C141.593 150.799 141.257 150.591 141.257 149.615C141.257 148.671 141.657 148.351 142.617 148.351C143.625 148.351 144.025 148.783 144.025 150.127C144.025 151.855 143.257 152.943 141.657 153.231L141.433 152.255ZM145.369 152.255C146.233 152.063 146.665 151.615 146.745 150.767C146.633 150.783 146.521 150.799 146.393 150.799C145.529 150.799 145.193 150.591 145.193 149.615C145.193 148.671 145.593 148.351 146.553 148.351C147.561 148.351 147.961 148.783 147.961 150.127C147.961 151.855 147.193 152.943 145.609 153.231L145.369 152.255Z" fill="white"/>
<defs>
<clipPath id="clip0_764_2020">
<rect width="60" height="50" fill="white" transform="translate(88.3367 72.0789)"/>
</clipPath>
</defs>
</svg>
