<svg width="281" height="281" viewBox="0 0 281 281" fill="none" xmlns="http://www.w3.org/2000/svg">
<path d="M160.426 250.532L160.424 250.531C148.264 242.675 132.736 242.675 120.576 250.531L120.572 250.533C100.561 263.505 74.0274 250.583 71.4717 226.419C69.9494 211.89 60.2864 199.548 46.678 194.771L46.676 194.771C24.1956 186.903 17.5824 157.662 34.5554 140.571L34.5563 140.57C44.7847 130.26 48.2124 114.894 43.3967 101.139C35.39 78.2318 53.831 54.8674 77.3828 57.6913L77.3864 57.6917C91.6938 59.3861 105.681 52.5504 113.25 40.1053C125.81 19.5302 155.189 19.5299 167.749 40.1046C175.316 52.5468 189.304 59.4142 203.618 57.6911L203.619 57.691C227.191 54.8437 245.611 78.2021 237.603 101.139C232.789 114.917 236.213 130.284 246.445 140.571C263.418 157.662 256.804 186.903 234.324 194.771L234.322 194.771C220.714 199.548 211.051 211.89 209.528 226.419C206.973 250.579 180.44 263.482 160.426 250.532Z" fill="#F60EA6" stroke="white" stroke-width="5"/>
<g clip-path="url(#clip0_1773_318)">
<path d="M109.144 136.659C108.908 136.659 108.673 136.563 108.503 136.373C108.184 136.019 108.213 135.474 108.567 135.155L126 119.468C126.354 119.149 126.9 119.178 127.218 119.532C127.537 119.886 127.509 120.432 127.154 120.75L109.721 136.437C109.556 136.586 109.35 136.659 109.144 136.659Z" fill="white"/>
<path d="M150.496 99.7375C150.252 99.7375 150.009 99.634 149.838 99.4338C149.53 99.0708 149.574 98.5263 149.937 98.218L166.86 83.842C167.223 83.5338 167.768 83.578 168.076 83.941C168.384 84.304 168.34 84.8485 167.977 85.1568L151.054 99.5328C150.892 99.6708 150.693 99.7383 150.496 99.7383V99.7375Z" fill="white"/>
<path d="M115.209 108.753C115.493 109.596 116.122 110.285 116.935 110.644L126.588 114.908C127.01 115.094 127.458 115.196 127.906 115.218L124.389 97.7306L110.799 93.9611C110.638 94.5416 110.644 95.1738 110.85 95.7888L115.209 108.753Z" fill="white"/>
<path d="M136.229 88.867L126.198 87.4502C125.271 87.319 124.319 87.427 123.446 87.7622C121.412 88.5422 116.294 90.5057 112.694 91.8797C112.255 92.0477 111.875 92.3027 111.568 92.6185L124.939 96.3272L137.593 89.3777C137.189 89.116 136.727 88.9367 136.229 88.867Z" fill="white"/>
<path d="M147.622 108.94L147.591 108.988L164.246 108.837C164.116 108.777 163.977 108.718 163.827 108.659L163.768 108.633L152.257 102.938C151.987 102.805 151.72 102.719 151.461 102.684L137.857 101.284C137.711 101.264 137.566 101.255 137.424 101.255C137.017 101.255 136.624 101.332 136.26 101.471L147.622 108.941V108.94Z" fill="white"/>
<path d="M142.084 132.923C142.242 132.923 142.401 132.913 142.56 132.888L157.829 130.476C158.939 130.3 159.854 129.533 160.22 128.472L165.388 111.54L165.392 111.529C165.553 111.057 165.626 110.664 165.597 110.327L147.752 110.488L142.085 132.924L142.084 132.923Z" fill="white"/>
<path d="M131.322 119.499C131.174 120.301 131.377 121.128 131.881 121.77L139.755 131.786C139.999 132.097 140.3 132.351 140.634 132.539L146.352 109.9L134.943 102.399C134.581 102.822 134.322 103.342 134.214 103.927L131.323 119.499L131.322 119.499Z" fill="white"/>
<path d="M132.442 112.495L132.664 112.272L132.666 112.265L132.442 112.495Z" fill="white"/>
<path d="M132.851 103.595C133.313 101.103 135.642 99.4105 138.154 99.7367L139.955 99.922L139.151 91.99C139.111 91.4492 138.941 90.94 138.674 90.4952L125.876 97.5235L129.39 114.992C129.791 114.845 130.169 114.629 130.502 114.348L130.919 113.998L132.85 103.596L132.851 103.595Z" fill="white"/>
</g>
<path d="M74.3369 160.925V147.149H77.5529L77.8649 150.029C78.3289 149.021 79.0329 148.213 79.9769 147.605C80.9209 146.997 82.0809 146.693 83.4569 146.693C85.4089 146.693 86.9129 147.269 87.9689 148.421C89.0409 149.557 89.5769 151.085 89.5769 153.005V160.925H85.8329V153.893C85.8329 152.613 85.5689 151.605 85.0409 150.869C84.5129 150.133 83.5689 149.765 82.2089 149.765C80.8009 149.765 79.7609 150.165 79.0889 150.965C78.4329 151.765 78.1049 152.909 78.1049 154.397V160.925H74.3369Z" fill="white"/>
<path d="M99.5062 161.333C96.6582 161.333 94.5782 160.709 93.2662 159.461C91.9702 158.197 91.3222 156.445 91.3222 154.205V154.061C91.3222 152.525 91.6662 151.205 92.3542 150.101C93.0582 148.997 94.0262 148.157 95.2582 147.581C96.5062 146.989 97.9462 146.693 99.5782 146.693C101.258 146.693 102.714 146.989 103.946 147.581C105.194 148.157 106.154 148.997 106.826 150.101C107.514 151.189 107.858 152.509 107.858 154.061V154.205C107.858 156.381 107.154 158.117 105.746 159.413C104.354 160.693 102.274 161.333 99.5062 161.333ZM99.5782 158.237C101.146 158.237 102.29 157.893 103.01 157.205C103.73 156.501 104.09 155.493 104.09 154.181V154.061C104.09 152.669 103.714 151.605 102.962 150.869C102.226 150.117 101.114 149.741 99.6262 149.741C98.1702 149.741 97.0502 150.109 96.2662 150.845C95.4822 151.565 95.0902 152.637 95.0902 154.061V154.181C95.0902 155.493 95.4582 156.501 96.1942 157.205C96.9462 157.893 98.0742 158.237 99.5782 158.237Z" fill="white"/>
<path d="M120.215 161.333C118.487 161.333 117.167 161.013 116.255 160.373C115.343 159.717 114.887 158.765 114.887 157.517V157.493C114.887 155.909 115.567 154.757 116.927 154.037C117.359 153.813 117.815 153.629 118.295 153.485C118.775 153.341 119.391 153.213 120.143 153.101C120.911 152.989 121.911 152.885 123.143 152.789C124.567 152.677 125.543 152.525 126.071 152.333C126.599 152.141 126.863 151.797 126.863 151.301C126.863 150.789 126.615 150.357 126.119 150.005C125.623 149.637 124.711 149.453 123.383 149.453C121.863 149.453 120.783 149.661 120.143 150.077C119.519 150.493 119.167 151.125 119.087 151.973H115.271C115.447 150.261 116.199 148.957 117.527 148.061C118.871 147.165 120.727 146.717 123.095 146.717C125.575 146.717 127.415 147.125 128.615 147.941C129.815 148.757 130.415 150.133 130.415 152.069V160.925H127.415L127.079 157.853C126.535 158.861 125.695 159.693 124.559 160.349C123.423 161.005 121.975 161.333 120.215 161.333ZM121.391 158.645C122.479 158.645 123.439 158.437 124.271 158.021C125.103 157.605 125.751 157.077 126.215 156.437C126.679 155.797 126.911 155.141 126.911 154.469V154.133C126.431 154.581 125.343 154.877 123.647 155.021C122.527 155.117 121.671 155.221 121.079 155.333C120.503 155.445 120.039 155.597 119.687 155.789C119.127 156.109 118.847 156.549 118.847 157.109C118.847 157.605 119.047 157.989 119.447 158.261C119.847 158.517 120.495 158.645 121.391 158.645Z" fill="white"/>
<path d="M139.226 161.285C137.85 161.285 136.634 161.029 135.578 160.517C134.522 160.005 133.69 159.221 133.082 158.165C132.474 157.109 132.17 155.765 132.17 154.133V153.989C132.17 152.437 132.466 151.125 133.058 150.053C133.65 148.981 134.482 148.165 135.554 147.605C136.626 147.029 137.898 146.741 139.37 146.741C140.618 146.741 141.698 146.973 142.61 147.437C143.538 147.901 144.266 148.565 144.794 149.429V143.237H148.394V160.925H145.25L144.938 158.213C144.49 159.189 143.786 159.949 142.826 160.493C141.866 161.021 140.666 161.285 139.226 161.285ZM140.354 158.237C141.842 158.237 142.97 157.877 143.738 157.157C144.506 156.437 144.89 155.421 144.89 154.109V154.013C144.89 152.669 144.498 151.621 143.714 150.869C142.93 150.117 141.826 149.741 140.402 149.741C138.898 149.741 137.778 150.117 137.042 150.869C136.306 151.605 135.938 152.653 135.938 154.013V154.109C135.938 156.861 137.41 158.237 140.354 158.237Z" fill="white"/>
<path d="M157.233 161.285C155.857 161.285 154.641 161.029 153.585 160.517C152.529 160.005 151.697 159.221 151.089 158.165C150.481 157.109 150.177 155.765 150.177 154.133V153.989C150.177 152.437 150.473 151.125 151.065 150.053C151.657 148.981 152.489 148.165 153.561 147.605C154.633 147.029 155.905 146.741 157.377 146.741C158.625 146.741 159.705 146.973 160.617 147.437C161.545 147.901 162.273 148.565 162.801 149.429V143.237H166.401V160.925H163.257L162.945 158.213C162.497 159.189 161.793 159.949 160.833 160.493C159.873 161.021 158.673 161.285 157.233 161.285ZM158.361 158.237C159.849 158.237 160.977 157.877 161.745 157.157C162.513 156.437 162.897 155.421 162.897 154.109V154.013C162.897 152.669 162.505 151.621 161.721 150.869C160.937 150.117 159.833 149.741 158.409 149.741C156.905 149.741 155.785 150.117 155.049 150.869C154.313 151.605 153.945 152.653 153.945 154.013V154.109C153.945 156.861 155.417 158.237 158.361 158.237Z" fill="white"/>
<path d="M176.271 161.333C174.351 161.333 172.791 161.045 171.591 160.469C170.407 159.877 169.543 159.053 168.999 157.997C168.455 156.941 168.183 155.709 168.183 154.301V154.181C168.183 152.773 168.495 151.509 169.119 150.389C169.759 149.253 170.695 148.357 171.927 147.701C173.175 147.029 174.703 146.693 176.511 146.693C178.287 146.693 179.775 147.005 180.975 147.629C182.191 148.253 183.103 149.109 183.711 150.197C184.335 151.285 184.647 152.525 184.647 153.917V155.381H171.735C171.927 156.357 172.407 157.109 173.175 157.637C173.943 158.165 175.063 158.429 176.535 158.429C177.623 158.429 178.463 158.293 179.055 158.021C179.663 157.733 180.119 157.333 180.423 156.821H184.455C183.863 158.405 182.871 159.557 181.479 160.277C180.103 160.981 178.367 161.333 176.271 161.333ZM176.583 149.573C175.223 149.573 174.143 149.845 173.343 150.389C172.543 150.917 172.023 151.669 171.783 152.645H180.975C180.799 151.605 180.351 150.837 179.631 150.341C178.927 149.829 177.911 149.573 176.583 149.573Z" fill="white"/>
<path d="M193.058 161.285C191.682 161.285 190.466 161.029 189.41 160.517C188.354 160.005 187.522 159.221 186.914 158.165C186.306 157.109 186.002 155.765 186.002 154.133V153.989C186.002 152.437 186.298 151.125 186.89 150.053C187.482 148.981 188.314 148.165 189.386 147.605C190.458 147.029 191.73 146.741 193.202 146.741C194.45 146.741 195.53 146.973 196.442 147.437C197.37 147.901 198.098 148.565 198.626 149.429V143.237H202.226V160.925H199.082L198.77 158.213C198.322 159.189 197.618 159.949 196.658 160.493C195.698 161.021 194.498 161.285 193.058 161.285ZM194.186 158.237C195.674 158.237 196.802 157.877 197.57 157.157C198.338 156.437 198.722 155.421 198.722 154.109V154.013C198.722 152.669 198.33 151.621 197.546 150.869C196.762 150.117 195.658 149.741 194.234 149.741C192.73 149.741 191.61 150.117 190.874 150.869C190.138 151.605 189.77 152.653 189.77 154.013V154.109C189.77 156.861 191.242 158.237 194.186 158.237Z" fill="white"/>
<path d="M107.687 187.333C105.143 187.333 103.199 186.917 101.855 186.085C100.527 185.253 99.7114 184.013 99.4074 182.365H103.583C103.775 183.101 104.199 183.629 104.855 183.949C105.511 184.253 106.503 184.405 107.831 184.405C109.127 184.405 110.023 184.261 110.519 183.973C111.031 183.669 111.287 183.269 111.287 182.773C111.287 182.421 111.143 182.157 110.855 181.981C110.583 181.789 110.103 181.653 109.415 181.573C108.743 181.477 107.815 181.397 106.631 181.333C105.207 181.253 103.999 181.085 103.007 180.829C102.015 180.557 101.255 180.141 100.727 179.581C100.215 179.021 99.9594 178.269 99.9594 177.325C99.9594 175.997 100.527 174.893 101.663 174.013C102.815 173.133 104.551 172.693 106.871 172.693C109.207 172.693 111.007 173.085 112.271 173.869C113.535 174.653 114.351 175.821 114.719 177.373H110.783C110.623 176.685 110.207 176.197 109.535 175.909C108.863 175.621 107.959 175.477 106.823 175.477C105.975 175.477 105.311 175.549 104.831 175.693C104.351 175.837 104.015 176.029 103.823 176.269C103.647 176.493 103.559 176.749 103.559 177.037C103.559 177.373 103.687 177.637 103.943 177.829C104.215 178.005 104.679 178.149 105.335 178.261C106.007 178.357 106.935 178.445 108.119 178.525C109.703 178.621 110.999 178.805 112.007 179.077C113.015 179.333 113.751 179.741 114.215 180.301C114.695 180.861 114.935 181.637 114.935 182.629C114.935 183.989 114.327 185.117 113.111 186.013C111.911 186.893 110.103 187.333 107.687 187.333Z" fill="white"/>
<path d="M122.102 187.309C120.166 187.309 118.702 186.749 117.71 185.629C116.718 184.509 116.222 182.989 116.222 181.069V173.149H119.942V180.253C119.942 181.501 120.214 182.477 120.758 183.181C121.302 183.869 122.23 184.213 123.542 184.213C124.758 184.213 125.678 183.821 126.302 183.037C126.926 182.253 127.238 181.205 127.238 179.893V173.149H130.982V186.925H127.838L127.502 183.997C127.086 185.005 126.422 185.813 125.51 186.421C124.614 187.013 123.478 187.309 122.102 187.309Z" fill="white"/>
<path d="M132.429 184.333C132.429 183.565 132.741 182.925 133.365 182.413C133.989 181.901 134.981 181.581 136.341 181.453C135.221 181.197 134.365 180.773 133.773 180.181C133.181 179.589 132.885 178.741 132.885 177.637C132.885 176.213 133.485 175.093 134.685 174.277C135.901 173.445 137.669 173.005 139.989 172.957C140.101 172.957 140.205 172.957 140.301 172.957C140.397 172.957 140.493 172.949 140.589 172.933C141.469 172.901 142.157 172.821 142.653 172.693C143.149 172.549 143.493 172.285 143.685 171.901C143.893 171.501 143.997 170.925 143.997 170.173V169.957H148.149V170.245C148.149 170.981 148.069 171.565 147.909 171.997C147.749 172.429 147.469 172.749 147.069 172.957C146.669 173.149 146.133 173.277 145.461 173.341C144.789 173.405 143.933 173.437 142.893 173.437C144.653 173.581 145.949 174.013 146.781 174.733C147.613 175.437 148.029 176.405 148.029 177.637V177.685C148.029 179.205 147.397 180.349 146.133 181.117C144.885 181.869 143.069 182.245 140.685 182.245H139.629C138.445 182.245 137.573 182.285 137.013 182.365C136.453 182.429 136.077 182.533 135.885 182.677C135.709 182.821 135.621 183.013 135.621 183.253C135.621 183.557 135.869 183.773 136.365 183.901C136.861 184.029 137.765 184.085 139.077 184.069H142.437C144.677 184.069 146.301 184.397 147.309 185.053C148.317 185.709 148.821 186.749 148.821 188.173V188.245C148.821 189.781 148.165 190.989 146.853 191.869C145.541 192.749 143.445 193.189 140.565 193.189H139.845C137.957 193.189 136.461 193.061 135.357 192.805C134.253 192.549 133.469 192.173 133.005 191.677C132.541 191.197 132.309 190.621 132.309 189.949C132.309 189.117 132.613 188.445 133.221 187.933C133.829 187.437 134.829 187.093 136.221 186.901C134.957 186.837 134.005 186.613 133.365 186.229C132.741 185.845 132.429 185.213 132.429 184.333ZM140.421 179.773C141.781 179.773 142.781 179.597 143.421 179.245C144.077 178.893 144.405 178.365 144.405 177.661V177.637C144.405 176.821 144.085 176.245 143.445 175.909C142.821 175.573 141.869 175.405 140.589 175.405H140.301C137.821 175.405 136.581 176.165 136.581 177.685V177.733C136.581 178.469 136.893 178.997 137.517 179.317C138.157 179.621 139.125 179.773 140.421 179.773ZM140.133 190.261H140.853C142.565 190.261 143.749 190.085 144.405 189.733C145.061 189.397 145.389 188.957 145.389 188.413V188.341C145.389 188.037 145.301 187.781 145.125 187.573C144.965 187.365 144.653 187.205 144.189 187.093C143.725 186.981 143.029 186.925 142.101 186.925H139.005C137.037 186.989 136.053 187.557 136.053 188.629V188.653C136.053 189.181 136.381 189.581 137.037 189.853C137.693 190.125 138.725 190.261 140.133 190.261Z" fill="white"/>
<path d="M154.197 187.333C152.469 187.333 151.149 187.013 150.237 186.373C149.325 185.717 148.869 184.765 148.869 183.517V183.493C148.869 181.909 149.549 180.757 150.909 180.037C151.341 179.813 151.797 179.629 152.277 179.485C152.757 179.341 153.373 179.213 154.125 179.101C154.893 178.989 155.893 178.885 157.125 178.789C158.549 178.677 159.525 178.525 160.053 178.333C160.581 178.141 160.845 177.797 160.845 177.301C160.845 176.789 160.597 176.357 160.101 176.005C159.605 175.637 158.693 175.453 157.365 175.453C155.845 175.453 154.765 175.661 154.125 176.077C153.501 176.493 153.149 177.125 153.069 177.973H149.253C149.429 176.261 150.181 174.957 151.509 174.061C152.853 173.165 154.709 172.717 157.077 172.717C159.557 172.717 161.397 173.125 162.597 173.941C163.797 174.757 164.397 176.133 164.397 178.069V186.925H161.397L161.061 183.853C160.517 184.861 159.677 185.693 158.541 186.349C157.405 187.005 155.957 187.333 154.197 187.333ZM155.373 184.645C156.461 184.645 157.421 184.437 158.253 184.021C159.085 183.605 159.733 183.077 160.197 182.437C160.661 181.797 160.893 181.141 160.893 180.469V180.133C160.413 180.581 159.325 180.877 157.629 181.021C156.509 181.117 155.653 181.221 155.061 181.333C154.485 181.445 154.021 181.597 153.669 181.789C153.109 182.109 152.829 182.549 152.829 183.109C152.829 183.605 153.029 183.989 153.429 184.261C153.829 184.517 154.477 184.645 155.373 184.645Z" fill="white"/>
<path d="M166.728 186.925V173.149H169.872L170.304 176.725C170.624 175.541 171.208 174.629 172.056 173.989C172.904 173.333 174.056 173.005 175.512 173.005H176.928V176.677H175.272C173.992 176.677 173 176.837 172.296 177.157C171.608 177.461 171.128 177.981 170.856 178.717C170.6 179.437 170.472 180.413 170.472 181.645V186.925H166.728Z" fill="white"/>
<defs>
<clipPath id="clip0_1773_318">
<rect width="60" height="50" fill="white" transform="translate(108.282 85.2366)"/>
</clipPath>
</defs>
</svg>
