<svg width="281" height="281" viewBox="0 0 281 281" fill="none" xmlns="http://www.w3.org/2000/svg">
<path fill-rule="evenodd" clip-rule="evenodd" d="M159.068 252.631C180.702 266.629 209.272 252.631 212.015 226.679C213.438 213.095 222.47 201.581 235.15 197.13C259.398 188.644 266.463 157.18 248.218 138.809C238.669 129.21 235.46 114.85 239.963 101.964C248.555 77.3576 228.81 52.13 203.32 55.209C189.992 56.8133 176.95 50.4223 169.885 38.8046C156.35 16.6302 124.65 16.6302 111.115 38.8046C104.05 50.4223 91.0077 56.7874 77.6804 55.209C52.2162 52.1559 32.4451 77.3834 41.0367 101.964C45.5396 114.824 42.3306 129.184 32.7815 138.809C14.5373 157.18 21.6021 188.644 45.8501 197.13C58.5305 201.581 67.562 213.095 68.9853 226.679C71.7284 252.631 100.298 266.655 121.932 252.631C133.267 245.309 147.733 245.309 159.068 252.631Z" fill="white"/>
<g clip-path="url(#clip0_1773_305)">
<path d="M148.9 85.8501C144.729 85.8501 141.152 88.4516 139.688 92.1258C138.224 88.4516 134.646 85.8501 130.476 85.8501C124.998 85.8501 120.541 90.3255 120.541 95.8262C120.541 99.1112 122.399 102.629 125.913 106.001C129.157 109.113 133.625 111.955 138.834 114.217L139.66 114.562L139.92 114.464C140.055 114.414 143.209 113.234 144.016 112.901C148.348 111.109 152.072 108.479 154.784 105.292C157.395 102.224 158.834 98.863 158.834 95.8262C158.834 90.3255 154.378 85.8501 148.9 85.8501ZM154.082 95.0801C154.058 95.4404 153.759 95.7162 153.404 95.7162C153.389 95.7162 153.373 95.7162 153.357 95.7148C152.983 95.6887 152.7 95.3634 152.725 94.9872C152.799 93.9021 152.159 92.7551 151.056 91.9945C149.813 91.1383 148.273 90.9664 147.038 91.5447C146.697 91.7043 146.293 91.5564 146.134 91.2147C145.975 90.8729 146.122 90.4665 146.462 90.3069C148.133 89.5243 150.187 89.7396 151.825 90.8681C153.346 91.9168 154.19 93.4916 154.082 95.0801H154.082Z" fill="#F60EA6"/>
<path d="M151.012 134.25H128.365C124.978 134.25 122.032 133.525 119.608 132.097C117.653 130.945 116.04 129.342 114.815 127.33C112.743 123.932 112.5 120.569 112.491 120.427C112.47 120.101 112.65 119.795 112.945 119.658C115.756 118.346 118.518 117.665 121.153 117.637C123.556 117.613 125.92 118.126 128.18 119.167C131.809 120.84 135.297 123.913 138.841 128.563C138.846 128.569 138.85 128.575 138.855 128.581C139.116 128.945 139.418 129.377 139.682 129.756C139.972 129.341 140.354 128.811 140.817 128.2C140.819 128.198 140.82 128.195 140.822 128.193C144.331 123.667 147.793 120.684 151.407 119.073C153.641 118.078 155.977 117.596 158.35 117.639C160.947 117.687 163.667 118.366 166.435 119.658C166.73 119.796 166.91 120.102 166.889 120.428C166.879 120.57 166.636 123.932 164.565 127.331C163.338 129.342 161.726 130.946 159.772 132.098C157.347 133.527 154.401 134.251 151.014 134.251L151.012 134.25ZM114.127 120.858C114.28 121.885 114.763 124.239 116.19 126.556C117.282 128.33 118.711 129.742 120.437 130.752C122.61 132.023 125.278 132.669 128.365 132.669H151.012C154.115 132.669 156.793 132.017 158.972 130.733C160.701 129.714 162.13 128.291 163.22 126.504C164.628 124.193 165.103 121.875 165.252 120.858C162.866 119.812 160.536 119.261 158.32 119.22C156.177 119.181 154.067 119.618 152.045 120.519C148.675 122.021 145.41 124.848 142.067 129.161C140.99 130.582 140.357 131.57 140.35 131.58C140.208 131.803 139.964 131.94 139.7 131.944C139.436 131.947 139.188 131.819 139.038 131.601C139.03 131.589 138.193 130.367 137.582 129.516C134.2 125.081 130.91 122.167 127.522 120.606C125.475 119.662 123.338 119.196 121.169 119.22C118.919 119.244 116.553 119.795 114.126 120.858L114.127 120.858Z" fill="#F60EA6"/>
<path d="M150.348 124.981C150.096 124.981 149.848 124.86 149.696 124.636C149.451 124.275 149.544 123.783 149.904 123.537C153.49 121.083 157.168 120.36 161.151 121.325C161.573 121.428 161.833 121.855 161.731 122.28C161.629 122.704 161.203 122.965 160.781 122.863C157.256 122.008 153.988 122.656 150.791 124.844C150.655 124.937 150.5 124.982 150.348 124.982V124.981Z" fill="#F60EA6"/>
<path d="M128.799 125.121C128.629 125.121 128.458 125.066 128.313 124.951C125.461 122.703 122.221 121.928 118.407 122.583C117.979 122.657 117.572 122.368 117.499 121.937C117.425 121.506 117.714 121.098 118.142 121.024C122.419 120.289 126.065 121.167 129.286 123.708C129.628 123.978 129.688 124.475 129.419 124.819C129.264 125.017 129.033 125.121 128.799 125.121V125.121Z" fill="#F60EA6"/>
<path d="M139.106 131.052C138.139 126.943 135.874 117.324 140.591 111.519L141.811 112.519C137.585 117.719 139.725 126.807 140.638 130.688L139.106 131.052Z" fill="#F60EA6"/>
</g>
<path d="M98.86 154.45V150.13H95.5V147.106C95.852 147.106 96.204 147.106 96.556 147.106C96.908 147.09 97.244 147.074 97.564 147.058C98.076 147.01 98.428 146.882 98.62 146.674C98.828 146.45 98.988 146.05 99.1 145.474C99.164 145.154 99.204 144.77 99.22 144.322C99.236 143.874 99.244 143.498 99.244 143.194H102.364V146.962H107.308V150.13H102.364V153.85C102.364 154.906 102.436 155.69 102.58 156.202C102.74 156.714 103.052 157.05 103.516 157.21C103.996 157.37 104.708 157.45 105.652 157.45H107.308V160.738H104.692C103.172 160.738 101.988 160.538 101.14 160.138C100.292 159.738 99.7 159.082 99.364 158.17C99.028 157.242 98.86 156.002 98.86 154.45Z" fill="#316AFA"/>
<path d="M116.318 161.146C113.47 161.146 111.39 160.522 110.078 159.274C108.782 158.01 108.134 156.258 108.134 154.018V153.874C108.134 152.338 108.478 151.018 109.166 149.914C109.87 148.81 110.838 147.97 112.07 147.394C113.318 146.802 114.758 146.506 116.39 146.506C118.07 146.506 119.526 146.802 120.758 147.394C122.006 147.97 122.966 148.81 123.638 149.914C124.326 151.002 124.67 152.322 124.67 153.874V154.018C124.67 156.194 123.966 157.93 122.558 159.226C121.166 160.506 119.086 161.146 116.318 161.146ZM116.39 158.05C117.958 158.05 119.102 157.706 119.822 157.018C120.542 156.314 120.902 155.306 120.902 153.994V153.874C120.902 152.482 120.526 151.418 119.774 150.682C119.038 149.93 117.926 149.554 116.438 149.554C114.982 149.554 113.862 149.922 113.078 150.658C112.294 151.378 111.902 152.45 111.902 153.874V153.994C111.902 155.306 112.27 156.314 113.006 157.018C113.758 157.706 114.886 158.05 116.39 158.05Z" fill="#316AFA"/>
<path d="M128.357 154.45V150.13H124.997V147.106C125.349 147.106 125.701 147.106 126.053 147.106C126.405 147.09 126.742 147.074 127.062 147.058C127.574 147.01 127.926 146.882 128.118 146.674C128.326 146.45 128.485 146.05 128.597 145.474C128.661 145.154 128.701 144.77 128.717 144.322C128.733 143.874 128.742 143.498 128.742 143.194H131.861V146.962H136.806V150.13H131.861V153.85C131.861 154.906 131.933 155.69 132.077 156.202C132.237 156.714 132.549 157.05 133.014 157.21C133.494 157.37 134.205 157.45 135.149 157.45H136.806V160.738H134.189C132.669 160.738 131.486 160.538 130.638 160.138C129.79 159.738 129.197 159.082 128.861 158.17C128.525 157.242 128.357 156.002 128.357 154.45Z" fill="#316AFA"/>
<path d="M143.237 161.146C141.509 161.146 140.189 160.826 139.277 160.186C138.365 159.53 137.909 158.578 137.909 157.33V157.306C137.909 155.722 138.589 154.57 139.949 153.85C140.381 153.626 140.837 153.442 141.317 153.298C141.797 153.154 142.413 153.026 143.165 152.914C143.933 152.802 144.933 152.698 146.165 152.602C147.589 152.49 148.565 152.338 149.093 152.146C149.621 151.954 149.885 151.61 149.885 151.114C149.885 150.602 149.637 150.17 149.141 149.818C148.645 149.45 147.733 149.266 146.405 149.266C144.885 149.266 143.805 149.474 143.165 149.89C142.541 150.306 142.189 150.938 142.109 151.786H138.293C138.469 150.074 139.221 148.77 140.549 147.874C141.893 146.978 143.749 146.53 146.117 146.53C148.597 146.53 150.437 146.938 151.637 147.754C152.837 148.57 153.437 149.946 153.437 151.882V160.738H150.437L150.101 157.666C149.557 158.674 148.717 159.506 147.581 160.162C146.445 160.818 144.997 161.146 143.237 161.146ZM144.413 158.458C145.501 158.458 146.461 158.25 147.293 157.834C148.125 157.418 148.773 156.89 149.237 156.25C149.701 155.61 149.933 154.954 149.933 154.282V153.946C149.453 154.394 148.365 154.69 146.669 154.834C145.549 154.93 144.693 155.034 144.101 155.146C143.525 155.258 143.061 155.41 142.709 155.602C142.149 155.922 141.869 156.362 141.869 156.922C141.869 157.418 142.069 157.802 142.469 158.074C142.869 158.33 143.517 158.458 144.413 158.458Z" fill="#316AFA"/>
<path d="M155.817 143.05H159.537V160.738H155.817V143.05Z" fill="#316AFA"/>
<path d="M162.034 143.05H165.754V160.738H162.034V143.05Z" fill="#316AFA"/>
<path d="M167.388 166.522V163.306H169.236C169.956 163.306 170.532 163.234 170.964 163.09C171.412 162.946 171.788 162.698 172.092 162.346C172.396 161.994 172.708 161.522 173.028 160.93L173.412 160.162L166.62 146.962H170.652L175.164 156.106L175.308 156.61L175.476 156.154L179.916 146.962H183.876L176.436 161.554C175.876 162.626 175.372 163.49 174.924 164.146C174.476 164.802 173.996 165.298 173.484 165.634C172.988 165.986 172.396 166.218 171.708 166.33C171.02 166.458 170.156 166.522 169.116 166.522H167.388Z" fill="#316AFA"/>
<path d="M103.78 186.738L97.1081 172.962H101.14L105.58 182.802L110.164 172.962H114.22L107.212 186.738H103.78Z" fill="#316AFA"/>
<path d="M121.795 187.146C119.875 187.146 118.315 186.858 117.115 186.282C115.931 185.69 115.067 184.866 114.523 183.81C113.979 182.754 113.707 181.522 113.707 180.114V179.994C113.707 178.586 114.019 177.322 114.643 176.202C115.283 175.066 116.219 174.17 117.451 173.514C118.699 172.842 120.227 172.506 122.035 172.506C123.811 172.506 125.299 172.818 126.499 173.442C127.715 174.066 128.627 174.922 129.235 176.01C129.859 177.098 130.171 178.338 130.171 179.73V181.194H117.259C117.451 182.17 117.931 182.922 118.699 183.45C119.467 183.978 120.587 184.242 122.059 184.242C123.147 184.242 123.987 184.106 124.579 183.834C125.187 183.546 125.643 183.146 125.947 182.634H129.979C129.387 184.218 128.395 185.37 127.003 186.09C125.627 186.794 123.891 187.146 121.795 187.146ZM122.107 175.386C120.747 175.386 119.667 175.658 118.867 176.202C118.067 176.73 117.547 177.482 117.307 178.458H126.499C126.323 177.418 125.875 176.65 125.155 176.154C124.451 175.642 123.435 175.386 122.107 175.386Z" fill="#316AFA"/>
<path d="M131.004 184.146C131.004 183.378 131.316 182.738 131.94 182.226C132.564 181.714 133.556 181.394 134.916 181.266C133.796 181.01 132.94 180.586 132.348 179.994C131.756 179.402 131.46 178.554 131.46 177.45C131.46 176.026 132.06 174.906 133.26 174.09C134.476 173.258 136.244 172.818 138.564 172.77C138.676 172.77 138.78 172.77 138.876 172.77C138.972 172.77 139.068 172.762 139.164 172.746C140.044 172.714 140.732 172.634 141.228 172.506C141.724 172.362 142.068 172.098 142.26 171.714C142.468 171.314 142.572 170.738 142.572 169.986V169.77H146.724V170.058C146.724 170.794 146.644 171.378 146.484 171.81C146.324 172.242 146.044 172.562 145.644 172.77C145.244 172.962 144.708 173.09 144.036 173.154C143.364 173.218 142.508 173.25 141.468 173.25C143.228 173.394 144.524 173.826 145.356 174.546C146.188 175.25 146.604 176.218 146.604 177.45V177.498C146.604 179.018 145.972 180.162 144.708 180.93C143.46 181.682 141.644 182.058 139.26 182.058H138.204C137.02 182.058 136.148 182.098 135.588 182.178C135.028 182.242 134.652 182.346 134.46 182.49C134.284 182.634 134.196 182.826 134.196 183.066C134.196 183.37 134.444 183.586 134.94 183.714C135.436 183.842 136.34 183.898 137.652 183.882H141.012C143.252 183.882 144.876 184.21 145.884 184.866C146.892 185.522 147.396 186.562 147.396 187.986V188.058C147.396 189.594 146.74 190.802 145.428 191.682C144.116 192.562 142.02 193.002 139.14 193.002H138.42C136.532 193.002 135.036 192.874 133.932 192.618C132.828 192.362 132.044 191.986 131.58 191.49C131.116 191.01 130.884 190.434 130.884 189.762C130.884 188.93 131.188 188.258 131.796 187.746C132.404 187.25 133.404 186.906 134.796 186.714C133.532 186.65 132.58 186.426 131.94 186.042C131.316 185.658 131.004 185.026 131.004 184.146ZM138.996 179.586C140.356 179.586 141.356 179.41 141.996 179.058C142.652 178.706 142.98 178.178 142.98 177.474V177.45C142.98 176.634 142.66 176.058 142.02 175.722C141.396 175.386 140.444 175.218 139.164 175.218H138.876C136.396 175.218 135.156 175.978 135.156 177.498V177.546C135.156 178.282 135.468 178.81 136.092 179.13C136.732 179.434 137.7 179.586 138.996 179.586ZM138.708 190.074H139.428C141.14 190.074 142.324 189.898 142.98 189.546C143.636 189.21 143.964 188.77 143.964 188.226V188.154C143.964 187.85 143.876 187.594 143.7 187.386C143.54 187.178 143.228 187.018 142.764 186.906C142.3 186.794 141.604 186.738 140.676 186.738H137.58C135.612 186.802 134.628 187.37 134.628 188.442V188.466C134.628 188.994 134.956 189.394 135.612 189.666C136.268 189.938 137.3 190.074 138.708 190.074Z" fill="#316AFA"/>
<path d="M152.771 187.146C151.043 187.146 149.723 186.826 148.811 186.186C147.899 185.53 147.443 184.578 147.443 183.33V183.306C147.443 181.722 148.123 180.57 149.483 179.85C149.915 179.626 150.371 179.442 150.851 179.298C151.331 179.154 151.947 179.026 152.699 178.914C153.467 178.802 154.467 178.698 155.699 178.602C157.123 178.49 158.099 178.338 158.627 178.146C159.155 177.954 159.419 177.61 159.419 177.114C159.419 176.602 159.171 176.17 158.675 175.818C158.179 175.45 157.267 175.266 155.939 175.266C154.419 175.266 153.339 175.474 152.699 175.89C152.075 176.306 151.723 176.938 151.643 177.786H147.827C148.003 176.074 148.755 174.77 150.083 173.874C151.427 172.978 153.283 172.53 155.651 172.53C158.131 172.53 159.971 172.938 161.171 173.754C162.371 174.57 162.971 175.946 162.971 177.882V186.738H159.971L159.635 183.666C159.091 184.674 158.251 185.506 157.115 186.162C155.979 186.818 154.531 187.146 152.771 187.146ZM153.947 184.458C155.035 184.458 155.995 184.25 156.827 183.834C157.659 183.418 158.307 182.89 158.771 182.25C159.235 181.61 159.467 180.954 159.467 180.282V179.946C158.987 180.394 157.899 180.69 156.203 180.834C155.083 180.93 154.227 181.034 153.635 181.146C153.059 181.258 152.595 181.41 152.243 181.602C151.683 181.922 151.403 182.362 151.403 182.922C151.403 183.418 151.603 183.802 152.003 184.074C152.403 184.33 153.051 184.458 153.947 184.458Z" fill="#316AFA"/>
<path d="M165.303 186.738V172.962H168.519L168.831 175.842C169.295 174.834 169.999 174.026 170.943 173.418C171.887 172.81 173.047 172.506 174.423 172.506C176.375 172.506 177.879 173.082 178.935 174.234C180.007 175.37 180.543 176.898 180.543 178.818V186.738H176.799V179.706C176.799 178.426 176.535 177.418 176.007 176.682C175.479 175.946 174.535 175.578 173.175 175.578C171.767 175.578 170.727 175.978 170.055 176.778C169.399 177.578 169.071 178.722 169.071 180.21V186.738H165.303Z" fill="#316AFA"/>
<defs>
<clipPath id="clip0_1773_305">
<rect width="60" height="50" fill="white" transform="translate(109.688 85.05)"/>
</clipPath>
</defs>
</svg>
