<svg width="281" height="281" viewBox="0 0 281 281" fill="none" xmlns="http://www.w3.org/2000/svg">
<path fill-rule="evenodd" clip-rule="evenodd" d="M159.068 252.631C180.702 266.629 209.272 252.631 212.015 226.679C213.438 213.095 222.47 201.581 235.15 197.13C259.398 188.644 266.463 157.18 248.218 138.809C238.669 129.21 235.46 114.85 239.963 101.964C248.555 77.3576 228.81 52.13 203.32 55.209C189.992 56.8133 176.95 50.4223 169.885 38.8046C156.35 16.6302 124.65 16.6302 111.115 38.8046C104.05 50.4223 91.0077 56.7874 77.6804 55.209C52.2162 52.1559 32.4451 77.3834 41.0367 101.964C45.5396 114.824 42.3306 129.184 32.7815 138.809C14.5373 157.18 21.6021 188.644 45.8501 197.13C58.5305 201.581 67.562 213.095 68.9853 226.679C71.7284 252.631 100.298 266.655 121.932 252.631C133.267 245.309 147.733 245.309 159.068 252.631Z" fill="white"/>
<path d="M127.072 115.935C125.79 115.935 124.585 115.405 123.536 114.369L123.502 114.336C121.08 111.945 121.388 108.725 124.326 105.724C127.731 102.246 135.598 100.814 135.932 100.754C136.18 100.71 136.435 100.788 136.616 100.965L136.618 100.967C136.798 101.143 136.884 101.396 136.848 101.646L136.846 101.656C136.793 101.992 135.501 109.915 132.097 113.393C131.241 114.267 129.878 115.393 128.246 115.79C127.85 115.886 127.458 115.934 127.072 115.934L127.072 115.935ZM135.086 102.54C135.086 102.54 135.084 102.535 135.081 102.535C134.277 102.718 133.117 103.01 131.848 103.422C128.9 104.38 126.685 105.557 125.443 106.826C124.73 107.554 123.82 108.692 123.534 109.975C123.265 111.181 123.613 112.24 124.599 113.214L124.633 113.247C125.62 114.221 126.681 114.553 127.876 114.262C129.148 113.953 130.266 113.019 130.979 112.291C132.221 111.021 133.355 108.777 134.259 105.802C134.647 104.521 134.918 103.35 135.086 102.54Z" fill="#F60EA6"/>
<path d="M123.011 102.855C121.795 102.855 120.097 102.669 118.703 101.816C117.196 100.892 116.39 99.3879 116.373 97.4659V97.418C116.356 95.496 117.137 93.978 118.628 93.029C120.045 92.1264 121.799 91.9247 123.02 91.9144C125.075 91.898 127.646 92.6748 130.672 94.2276C132.936 95.39 134.653 96.59 134.725 96.6406C134.931 96.7849 135.055 97.0194 135.06 97.271V97.2738C135.065 97.5261 134.949 97.7661 134.748 97.9179L134.736 97.9274C134.665 97.9794 132.968 99.2088 130.724 100.41C127.726 102.014 125.165 102.837 123.113 102.855C123.079 102.855 123.045 102.855 123.01 102.855L123.011 102.855ZM117.94 97.4522C117.952 98.8409 118.468 99.829 119.519 100.473C120.637 101.158 122.081 101.292 123.101 101.282C124.873 101.267 127.255 100.485 129.989 99.0221C131.165 98.3924 132.181 97.7572 132.87 97.3032C132.873 97.3018 132.873 97.2984 132.87 97.2963C132.173 96.8539 131.147 96.2365 129.96 95.6273C127.2 94.2112 124.802 93.4707 123.034 93.4864C122.017 93.4953 120.573 93.6532 119.467 94.3568C118.427 95.0187 117.928 96.015 117.939 97.4044V97.4522H117.94Z" fill="#F60EA6"/>
<path d="M136.555 93.5691C136.377 93.7503 136.123 93.8344 135.873 93.7948H135.87C135.538 93.7414 127.647 92.4437 124.184 89.0249C123.313 88.1654 122.193 86.7965 121.797 85.1582C121.382 83.4344 121.871 81.7996 123.213 80.4286L123.246 80.3944C125.626 77.9623 128.832 78.272 131.821 81.2225C135.284 84.6413 136.712 92.5414 136.77 92.8765C136.814 93.1274 136.735 93.3852 136.557 93.5671L136.555 93.5691ZM124.329 81.5315C123.36 82.5223 123.029 83.5876 123.319 84.7883C123.627 86.0655 124.556 87.1876 125.282 87.9035C126.546 89.1514 128.78 90.2898 131.744 91.1972C133.019 91.5876 134.185 91.8597 134.992 92.0279C134.994 92.0279 134.997 92.0259 134.996 92.0231C134.815 91.2163 134.524 90.0505 134.113 88.776C133.159 85.816 131.987 83.5917 130.724 82.3445C129.999 81.6286 128.865 80.7144 127.588 80.4273C126.387 80.1572 125.332 80.5073 124.363 81.4973L124.329 81.5315Z" fill="#F60EA6"/>
<path d="M140.226 92.0026C139.974 92.004 139.736 91.8837 139.586 91.6792V91.6779C139.533 91.6054 138.309 89.9035 137.112 87.6484C135.515 84.6379 134.696 82.0662 134.678 80.0054C134.643 75.7968 136.649 73.2669 140.045 73.2368H140.093C142.004 73.2204 143.518 74.0026 144.464 75.5008C145.362 76.9243 145.563 78.685 145.573 79.911C145.591 81.9719 144.816 84.5572 143.27 87.5951C142.112 89.8707 140.917 91.5937 140.867 91.6655L140.863 91.6717C140.716 91.8775 140.48 92.0006 140.227 92.002L140.226 92.0026ZM140.058 74.8095C138.675 74.8211 137.691 75.3401 137.05 76.3951C136.368 77.5172 136.235 78.9702 136.244 79.9917C136.259 81.7715 137.038 84.1633 138.495 86.9086C139.122 88.0908 139.754 89.111 140.207 89.803C140.208 89.8057 140.211 89.8057 140.213 89.803C140.653 89.1035 141.268 88.0731 141.875 86.8799C143.286 84.1093 144.022 81.7045 144.007 79.9254C143.999 78.9038 143.841 77.4536 143.141 76.3432C142.49 75.3114 141.512 74.8095 140.154 74.8095C140.138 74.8095 140.122 74.8095 140.106 74.8095H140.059H140.058Z" fill="#F60EA6"/>
<path d="M143.928 93.5049L143.919 93.496C143.74 93.3175 143.659 93.0625 143.702 92.8122C143.765 92.4218 145.059 84.5435 148.451 81.0796C149.307 80.2051 150.67 79.0796 152.301 78.6823C154.018 78.2652 155.646 78.7568 157.011 80.1039L157.045 80.1374C159.467 82.5285 159.159 85.7476 156.221 88.7493C152.816 92.2269 144.949 93.6594 144.615 93.7189H144.611C144.361 93.764 144.107 93.684 143.928 93.5049H143.928ZM153.484 80.1093C153.22 80.1093 152.949 80.1435 152.67 80.2112C151.399 80.5203 150.281 81.4536 149.568 82.1825C148.326 83.4516 147.192 85.6957 146.288 88.6714C145.899 89.9521 145.628 91.1227 145.461 91.9329C145.461 91.9357 145.463 91.9384 145.466 91.9377C146.269 91.7551 147.43 91.4632 148.699 91.0509C151.647 90.0929 153.862 88.9162 155.104 87.6471C155.817 86.9189 156.727 85.7811 157.013 84.4984C157.282 83.2922 156.934 82.2331 155.948 81.2594L155.914 81.2259C155.156 80.4786 154.356 80.1093 153.484 80.1093Z" fill="#F60EA6"/>
<path d="M157.457 102.559C155.416 102.559 152.865 101.781 149.874 100.246C147.609 99.0836 145.893 97.8836 145.821 97.833C145.615 97.6887 145.49 97.4542 145.485 97.2026V97.1998C145.481 96.9475 145.596 96.7075 145.797 96.5557L145.81 96.5462C145.88 96.4942 147.577 95.2648 149.822 94.0634C152.82 92.4593 155.381 91.6368 157.433 91.619C161.625 91.5834 164.143 93.5978 164.172 97.0077V97.0556C164.189 98.9776 163.409 100.496 161.918 101.445C160.5 102.347 158.747 102.549 157.526 102.559C157.504 102.559 157.48 102.559 157.457 102.559ZM147.675 97.1698C147.675 97.1698 147.673 97.1745 147.675 97.1766C148.373 97.619 149.399 98.2364 150.586 98.8457C153.317 100.247 155.692 100.987 157.458 100.987C157.476 100.987 157.494 100.987 157.512 100.987C158.529 100.978 159.973 100.82 161.079 100.116C162.119 99.4542 162.618 98.458 162.606 97.0686V97.0207C162.594 95.632 162.078 94.644 161.027 93.9998C159.91 93.3154 158.466 93.1821 157.446 93.191C155.673 93.206 153.291 93.9875 150.558 95.4508C149.381 96.0805 148.365 96.7157 147.676 97.1698H147.675Z" fill="#F60EA6"/>
<path d="M153.712 115.707C153.352 115.707 152.987 115.665 152.616 115.581C150.978 115.213 149.596 114.111 148.725 113.251C145.262 109.832 143.835 101.932 143.776 101.597V101.592C143.731 101.342 143.811 101.086 143.989 100.907L143.998 100.898C144.176 100.718 144.43 100.636 144.679 100.68C145.07 100.742 152.91 102.04 156.363 105.448C159.352 108.399 159.715 111.612 157.334 114.044L157.3 114.078C156.247 115.154 155.022 115.705 153.711 115.705L153.712 115.707ZM145.555 102.446C145.555 102.446 145.55 102.448 145.55 102.451C145.732 103.258 146.023 104.424 146.434 105.698C147.388 108.658 148.559 110.883 149.823 112.13C150.548 112.846 151.681 113.76 152.959 114.047C154.16 114.317 155.215 113.967 156.184 112.977L156.218 112.943C157.187 111.952 157.518 110.887 157.228 109.686C156.92 108.409 155.991 107.287 155.265 106.571C154.001 105.323 151.766 104.184 148.803 103.277C147.526 102.886 146.361 102.615 145.555 102.446Z" fill="#F60EA6"/>
<path d="M145.868 114.468C145.851 112.407 145.031 109.836 143.434 106.825C142.256 104.606 141.052 102.922 140.965 102.801C140.82 102.594 140.583 102.47 140.33 102.471H140.315C140.063 102.471 139.827 102.595 139.683 102.803L139.679 102.807C139.629 102.88 138.434 104.604 137.276 106.878C135.73 109.916 134.955 112.501 134.973 114.562C135.009 118.747 137.034 121.237 140.395 121.237C140.415 121.237 140.435 121.237 140.454 121.237H140.501C142.415 121.22 143.913 120.411 144.833 118.898C145.707 117.459 145.878 115.695 145.868 114.469L145.868 114.468ZM143.805 116.565C143.224 118.313 141.957 119.555 140.415 119.886C140.368 119.897 140.32 119.901 140.273 119.901C139.927 119.901 139.62 119.633 139.598 119.257C139.579 118.917 139.828 118.628 140.158 118.552C141.201 118.316 142.105 117.393 142.522 116.135C142.993 114.717 142.741 113.203 141.866 112.176C141.632 111.902 141.624 111.488 141.877 111.232C142.157 110.949 142.611 110.968 142.868 111.263C144.071 112.651 144.43 114.682 143.805 116.563V116.565Z" fill="#F60EA6"/>
<path d="M80.4748 147.925V134.149H83.6908L84.0028 137.029C84.4668 136.021 85.1708 135.213 86.1148 134.605C87.0588 133.997 88.2188 133.693 89.5948 133.693C91.5468 133.693 93.0508 134.269 94.1068 135.421C95.1788 136.557 95.7148 138.085 95.7148 140.005V147.925H91.9708V140.893C91.9708 139.613 91.7068 138.605 91.1788 137.869C90.6508 137.133 89.7068 136.765 88.3468 136.765C86.9388 136.765 85.8988 137.165 85.2268 137.965C84.5708 138.765 84.2428 139.909 84.2428 141.397V147.925H80.4748Z" fill="#316AFA"/>
<path d="M102.574 148.333C100.846 148.333 99.5257 148.013 98.6137 147.373C97.7017 146.717 97.2457 145.765 97.2457 144.517V144.493C97.2457 142.909 97.9257 141.757 99.2857 141.037C99.7177 140.813 100.174 140.629 100.654 140.485C101.134 140.341 101.75 140.213 102.502 140.101C103.27 139.989 104.27 139.885 105.502 139.789C106.926 139.677 107.902 139.525 108.43 139.333C108.958 139.141 109.222 138.797 109.222 138.301C109.222 137.789 108.974 137.357 108.478 137.005C107.982 136.637 107.07 136.453 105.742 136.453C104.222 136.453 103.142 136.661 102.502 137.077C101.878 137.493 101.526 138.125 101.446 138.973H97.6297C97.8057 137.261 98.5577 135.957 99.8857 135.061C101.23 134.165 103.086 133.717 105.454 133.717C107.934 133.717 109.774 134.125 110.974 134.941C112.174 135.757 112.774 137.133 112.774 139.069V147.925H109.774L109.438 144.853C108.894 145.861 108.054 146.693 106.918 147.349C105.782 148.005 104.334 148.333 102.574 148.333ZM103.75 145.645C104.838 145.645 105.798 145.437 106.63 145.021C107.462 144.605 108.11 144.077 108.574 143.437C109.038 142.797 109.27 142.141 109.27 141.469V141.133C108.79 141.581 107.702 141.877 106.006 142.021C104.886 142.117 104.03 142.221 103.438 142.333C102.862 142.445 102.398 142.597 102.046 142.789C101.486 143.109 101.206 143.549 101.206 144.109C101.206 144.605 101.406 144.989 101.806 145.261C102.206 145.517 102.854 145.645 103.75 145.645Z" fill="#316AFA"/>
<path d="M116.957 141.637V137.317H113.597V134.293C113.949 134.293 114.301 134.293 114.653 134.293C115.005 134.277 115.341 134.261 115.661 134.245C116.173 134.197 116.525 134.069 116.717 133.861C116.925 133.637 117.085 133.237 117.197 132.661C117.261 132.341 117.301 131.957 117.317 131.509C117.333 131.061 117.341 130.685 117.341 130.381H120.461V134.149H125.405V137.317H120.461V141.037C120.461 142.093 120.533 142.877 120.677 143.389C120.837 143.901 121.149 144.237 121.613 144.397C122.093 144.557 122.805 144.637 123.749 144.637H125.405V147.925H122.789C121.269 147.925 120.085 147.725 119.237 147.325C118.389 146.925 117.797 146.269 117.461 145.357C117.125 144.429 116.957 143.189 116.957 141.637Z" fill="#316AFA"/>
<path d="M132.849 148.309C130.913 148.309 129.449 147.749 128.457 146.629C127.465 145.509 126.969 143.989 126.969 142.069V134.149H130.689V141.253C130.689 142.501 130.961 143.477 131.505 144.181C132.049 144.869 132.977 145.213 134.289 145.213C135.505 145.213 136.425 144.821 137.049 144.037C137.673 143.253 137.985 142.205 137.985 140.893V134.149H141.729V147.925H138.585L138.249 144.997C137.833 146.005 137.169 146.813 136.257 147.421C135.361 148.013 134.225 148.309 132.849 148.309Z" fill="#316AFA"/>
<path d="M144.157 147.925V134.149H147.301L147.733 137.725C148.053 136.541 148.637 135.629 149.485 134.989C150.333 134.333 151.485 134.005 152.941 134.005H154.357V137.677H152.701C151.421 137.677 150.429 137.837 149.725 138.157C149.037 138.461 148.557 138.981 148.285 139.717C148.029 140.437 147.901 141.413 147.901 142.645V147.925H144.157Z" fill="#316AFA"/>
<path d="M160.045 148.333C158.317 148.333 156.997 148.013 156.085 147.373C155.173 146.717 154.717 145.765 154.717 144.517V144.493C154.717 142.909 155.397 141.757 156.757 141.037C157.189 140.813 157.645 140.629 158.125 140.485C158.605 140.341 159.221 140.213 159.973 140.101C160.741 139.989 161.741 139.885 162.973 139.789C164.397 139.677 165.373 139.525 165.901 139.333C166.429 139.141 166.693 138.797 166.693 138.301C166.693 137.789 166.445 137.357 165.949 137.005C165.453 136.637 164.541 136.453 163.213 136.453C161.693 136.453 160.613 136.661 159.973 137.077C159.349 137.493 158.997 138.125 158.917 138.973H155.101C155.277 137.261 156.029 135.957 157.357 135.061C158.701 134.165 160.557 133.717 162.925 133.717C165.405 133.717 167.245 134.125 168.445 134.941C169.645 135.757 170.245 137.133 170.245 139.069V147.925H167.245L166.909 144.853C166.365 145.861 165.525 146.693 164.389 147.349C163.253 148.005 161.805 148.333 160.045 148.333ZM161.221 145.645C162.309 145.645 163.269 145.437 164.101 145.021C164.933 144.605 165.581 144.077 166.045 143.437C166.509 142.797 166.741 142.141 166.741 141.469V141.133C166.261 141.581 165.173 141.877 163.477 142.021C162.357 142.117 161.501 142.221 160.909 142.333C160.333 142.445 159.869 142.597 159.517 142.789C158.957 143.109 158.677 143.549 158.677 144.109C158.677 144.605 158.877 144.989 159.277 145.261C159.677 145.517 160.325 145.645 161.221 145.645Z" fill="#316AFA"/>
<path d="M172.625 130.237H176.345V147.925H172.625V130.237Z" fill="#316AFA"/>
<path d="M178.842 130.237H182.562V147.925H178.842V130.237Z" fill="#316AFA"/>
<path d="M184.196 153.709V150.493H186.044C186.764 150.493 187.34 150.421 187.772 150.277C188.22 150.133 188.596 149.885 188.9 149.533C189.204 149.181 189.516 148.709 189.836 148.117L190.22 147.349L183.428 134.149H187.46L191.972 143.293L192.116 143.797L192.284 143.341L196.724 134.149H200.684L193.244 148.741C192.684 149.813 192.18 150.677 191.732 151.333C191.284 151.989 190.804 152.485 190.292 152.821C189.796 153.173 189.204 153.405 188.516 153.517C187.828 153.645 186.964 153.709 185.924 153.709H184.196Z" fill="#316AFA"/>
<path d="M73.0209 174.237C70.1729 174.237 68.0929 173.629 66.7809 172.413C65.4849 171.181 64.8369 169.445 64.8369 167.205V167.061C64.8369 165.525 65.1809 164.205 65.8689 163.101C66.5729 161.997 67.5409 161.157 68.7729 160.581C70.0209 159.989 71.4609 159.693 73.0929 159.693C75.5249 159.693 77.4529 160.221 78.8769 161.277C80.3009 162.317 81.1249 163.845 81.3489 165.861V165.885H77.4129V165.861C77.2529 164.821 76.8209 164.045 76.1169 163.533C75.4129 163.005 74.4209 162.741 73.1409 162.741C71.7009 162.741 70.5889 163.109 69.8049 163.845C69.0209 164.565 68.6289 165.637 68.6289 167.061V167.181C68.6289 168.493 68.9969 169.501 69.7329 170.205C70.4689 170.893 71.5889 171.237 73.0929 171.237C74.4529 171.237 75.4689 170.973 76.1409 170.445C76.8289 169.901 77.2529 169.101 77.4129 168.045H81.3729V168.069C81.2129 170.053 80.4289 171.581 79.0209 172.653C77.6289 173.709 75.6289 174.237 73.0209 174.237Z" fill="#316AFA"/>
<path d="M90.6525 174.333C87.8045 174.333 85.7245 173.709 84.4125 172.461C83.1165 171.197 82.4685 169.445 82.4685 167.205V167.061C82.4685 165.525 82.8125 164.205 83.5005 163.101C84.2045 161.997 85.1725 161.157 86.4045 160.581C87.6525 159.989 89.0925 159.693 90.7245 159.693C92.4045 159.693 93.8605 159.989 95.0925 160.581C96.3405 161.157 97.3005 161.997 97.9725 163.101C98.6605 164.189 99.0045 165.509 99.0045 167.061V167.205C99.0045 169.381 98.3005 171.117 96.8925 172.413C95.5005 173.693 93.4205 174.333 90.6525 174.333ZM90.7245 171.237C92.2925 171.237 93.4365 170.893 94.1565 170.205C94.8765 169.501 95.2365 168.493 95.2365 167.181V167.061C95.2365 165.669 94.8605 164.605 94.1085 163.869C93.3725 163.117 92.2605 162.741 90.7725 162.741C89.3165 162.741 88.1965 163.109 87.4125 163.845C86.6285 164.565 86.2365 165.637 86.2365 167.061V167.181C86.2365 168.493 86.6045 169.501 87.3405 170.205C88.0925 170.893 89.2205 171.237 90.7245 171.237Z" fill="#316AFA"/>
<path d="M100.888 156.237H104.608V173.925H100.888V156.237Z" fill="#316AFA"/>
<path d="M114.502 174.333C111.654 174.333 109.574 173.709 108.262 172.461C106.966 171.197 106.318 169.445 106.318 167.205V167.061C106.318 165.525 106.662 164.205 107.35 163.101C108.054 161.997 109.022 161.157 110.254 160.581C111.502 159.989 112.942 159.693 114.574 159.693C116.254 159.693 117.71 159.989 118.942 160.581C120.19 161.157 121.15 161.997 121.822 163.101C122.51 164.189 122.854 165.509 122.854 167.061V167.205C122.854 169.381 122.15 171.117 120.742 172.413C119.35 173.693 117.27 174.333 114.502 174.333ZM114.574 171.237C116.142 171.237 117.286 170.893 118.006 170.205C118.726 169.501 119.086 168.493 119.086 167.181V167.061C119.086 165.669 118.71 164.605 117.958 163.869C117.222 163.117 116.11 162.741 114.622 162.741C113.166 162.741 112.046 163.109 111.262 163.845C110.478 164.565 110.086 165.637 110.086 167.061V167.181C110.086 168.493 110.454 169.501 111.19 170.205C111.942 170.893 113.07 171.237 114.574 171.237Z" fill="#316AFA"/>
<path d="M130.473 174.309C128.537 174.309 127.073 173.749 126.081 172.629C125.089 171.509 124.593 169.989 124.593 168.069V160.149H128.313V167.253C128.313 168.501 128.585 169.477 129.129 170.181C129.673 170.869 130.601 171.213 131.913 171.213C133.129 171.213 134.049 170.821 134.673 170.037C135.297 169.253 135.609 168.205 135.609 166.893V160.149H139.353V173.925H136.209L135.873 170.997C135.457 172.005 134.793 172.813 133.881 173.421C132.985 174.013 131.849 174.309 130.473 174.309Z" fill="#316AFA"/>
<path d="M141.782 173.925V160.149H144.926L145.358 163.725C145.678 162.541 146.262 161.629 147.11 160.989C147.958 160.333 149.11 160.005 150.566 160.005H151.982V163.677H150.326C149.046 163.677 148.054 163.837 147.35 164.157C146.662 164.461 146.182 164.981 145.91 165.717C145.654 166.437 145.526 167.413 145.526 168.645V173.925H141.782Z" fill="#316AFA"/>
<path d="M160.55 174.333C158.63 174.333 157.07 174.045 155.87 173.469C154.686 172.877 153.822 172.053 153.278 170.997C152.734 169.941 152.462 168.709 152.462 167.301V167.181C152.462 165.773 152.774 164.509 153.398 163.389C154.038 162.253 154.974 161.357 156.206 160.701C157.454 160.029 158.982 159.693 160.79 159.693C162.566 159.693 164.054 160.005 165.254 160.629C166.47 161.253 167.382 162.109 167.99 163.197C168.614 164.285 168.926 165.525 168.926 166.917V168.381H156.014C156.206 169.357 156.686 170.109 157.454 170.637C158.222 171.165 159.342 171.429 160.814 171.429C161.902 171.429 162.742 171.293 163.334 171.021C163.942 170.733 164.398 170.333 164.702 169.821H168.734C168.142 171.405 167.15 172.557 165.758 173.277C164.382 173.981 162.646 174.333 160.55 174.333ZM160.862 162.573C159.502 162.573 158.422 162.845 157.622 163.389C156.822 163.917 156.302 164.669 156.062 165.645H165.254C165.078 164.605 164.63 163.837 163.91 163.341C163.206 162.829 162.19 162.573 160.862 162.573Z" fill="#316AFA"/>
<path d="M177.337 174.285C175.961 174.285 174.745 174.029 173.689 173.517C172.633 173.005 171.801 172.221 171.193 171.165C170.585 170.109 170.281 168.765 170.281 167.133V166.989C170.281 165.437 170.577 164.125 171.169 163.053C171.761 161.981 172.593 161.165 173.665 160.605C174.737 160.029 176.009 159.741 177.481 159.741C178.729 159.741 179.809 159.973 180.721 160.437C181.649 160.901 182.377 161.565 182.905 162.429V156.237H186.505V173.925H183.361L183.049 171.213C182.601 172.189 181.897 172.949 180.937 173.493C179.977 174.021 178.777 174.285 177.337 174.285ZM178.465 171.237C179.953 171.237 181.081 170.877 181.849 170.157C182.617 169.437 183.001 168.421 183.001 167.109V167.013C183.001 165.669 182.609 164.621 181.825 163.869C181.041 163.117 179.937 162.741 178.513 162.741C177.009 162.741 175.889 163.117 175.153 163.869C174.417 164.605 174.049 165.653 174.049 167.013V167.109C174.049 169.861 175.521 171.237 178.465 171.237Z" fill="#316AFA"/>
<path d="M200.149 174.309C198.181 174.309 196.597 173.917 195.397 173.133C194.213 172.349 193.621 171.181 193.621 169.629C193.621 168.141 194.109 166.965 195.085 166.101C196.061 165.237 197.509 164.581 199.429 164.133C199.317 163.733 199.221 163.341 199.141 162.957C199.077 162.557 199.045 162.181 199.045 161.829C199.045 160.693 199.293 159.725 199.789 158.925C200.285 158.125 200.957 157.517 201.805 157.101C202.653 156.685 203.605 156.477 204.661 156.477C205.669 156.477 206.533 156.669 207.253 157.053C207.973 157.437 208.517 157.957 208.885 158.613C209.269 159.253 209.461 159.973 209.461 160.773C209.461 162.021 209.005 163.045 208.093 163.845C207.197 164.629 205.685 165.301 203.557 165.861C203.733 166.117 203.925 166.381 204.133 166.653C204.357 166.909 204.589 167.173 204.829 167.445C205.149 167.797 205.461 168.125 205.765 168.429C206.085 168.733 206.397 169.013 206.701 169.269C207.693 168.565 208.581 167.733 209.365 166.773C210.165 165.813 210.829 164.805 211.357 163.749C211.501 163.461 211.629 163.173 211.741 162.885C211.853 162.597 211.965 162.309 212.077 162.021H215.509C215.109 163.173 214.605 164.277 213.997 165.333C212.781 167.445 211.269 169.221 209.461 170.661C209.429 170.693 209.389 170.725 209.341 170.757C209.309 170.789 209.269 170.821 209.221 170.853C210.117 171.205 211.021 171.381 211.933 171.381C212.733 171.381 213.365 171.261 213.829 171.021C214.309 170.781 214.733 170.477 215.101 170.109V173.301C214.461 173.941 213.421 174.261 211.981 174.261C210.909 174.261 209.917 174.149 209.005 173.925C208.109 173.685 207.213 173.277 206.317 172.701C205.261 173.229 204.205 173.629 203.149 173.901C202.093 174.173 201.093 174.309 200.149 174.309ZM202.045 161.637C202.045 162.277 202.149 162.909 202.357 163.533C203.445 163.293 204.285 163.053 204.877 162.813C205.469 162.557 205.877 162.261 206.101 161.925C206.341 161.589 206.461 161.189 206.461 160.725C206.461 160.213 206.285 159.813 205.933 159.525C205.597 159.237 205.133 159.093 204.541 159.093C203.789 159.093 203.181 159.325 202.717 159.789C202.269 160.253 202.045 160.869 202.045 161.637ZM197.077 169.221C197.077 169.989 197.365 170.557 197.941 170.925C198.517 171.277 199.341 171.453 200.413 171.453C201.005 171.453 201.597 171.389 202.189 171.261C202.781 171.133 203.365 170.965 203.941 170.757C203.701 170.533 203.453 170.293 203.197 170.037C202.941 169.765 202.677 169.477 202.405 169.173C202.053 168.773 201.717 168.357 201.397 167.925C201.077 167.477 200.781 167.021 200.509 166.557C199.245 166.861 198.357 167.221 197.845 167.637C197.349 168.037 197.093 168.565 197.077 169.221Z" fill="#316AFA"/>
<path d="M74.0945 197.333C74.0945 196.565 74.4065 195.925 75.0305 195.413C75.6545 194.901 76.6465 194.581 78.0065 194.453C76.8865 194.197 76.0305 193.773 75.4385 193.181C74.8465 192.589 74.5505 191.741 74.5505 190.637C74.5505 189.213 75.1505 188.093 76.3505 187.277C77.5665 186.445 79.3345 186.005 81.6545 185.957C81.7665 185.957 81.8705 185.957 81.9665 185.957C82.0625 185.957 82.1585 185.949 82.2545 185.933C83.1345 185.901 83.8225 185.821 84.3185 185.693C84.8145 185.549 85.1585 185.285 85.3505 184.901C85.5585 184.501 85.6625 183.925 85.6625 183.173V182.957H89.8145V183.245C89.8145 183.981 89.7345 184.565 89.5745 184.997C89.4145 185.429 89.1345 185.749 88.7345 185.957C88.3345 186.149 87.7985 186.277 87.1265 186.341C86.4545 186.405 85.5985 186.437 84.5585 186.437C86.3185 186.581 87.6145 187.013 88.4465 187.733C89.2785 188.437 89.6945 189.405 89.6945 190.637V190.685C89.6945 192.205 89.0625 193.349 87.7985 194.117C86.5505 194.869 84.7345 195.245 82.3505 195.245H81.2945C80.1105 195.245 79.2385 195.285 78.6785 195.365C78.1185 195.429 77.7425 195.533 77.5505 195.677C77.3745 195.821 77.2865 196.013 77.2865 196.253C77.2865 196.557 77.5345 196.773 78.0305 196.901C78.5265 197.029 79.4305 197.085 80.7425 197.069H84.1025C86.3425 197.069 87.9665 197.397 88.9745 198.053C89.9825 198.709 90.4865 199.749 90.4865 201.173V201.245C90.4865 202.781 89.8305 203.989 88.5185 204.869C87.2065 205.749 85.1105 206.189 82.2305 206.189H81.5105C79.6225 206.189 78.1265 206.061 77.0225 205.805C75.9185 205.549 75.1345 205.173 74.6705 204.677C74.2065 204.197 73.9745 203.621 73.9745 202.949C73.9745 202.117 74.2785 201.445 74.8865 200.933C75.4945 200.437 76.4945 200.093 77.8865 199.901C76.6225 199.837 75.6705 199.613 75.0305 199.229C74.4065 198.845 74.0945 198.213 74.0945 197.333ZM82.0865 192.773C83.4465 192.773 84.4465 192.597 85.0865 192.245C85.7425 191.893 86.0705 191.365 86.0705 190.661V190.637C86.0705 189.821 85.7505 189.245 85.1105 188.909C84.4865 188.573 83.5345 188.405 82.2545 188.405H81.9665C79.4865 188.405 78.2465 189.165 78.2465 190.685V190.733C78.2465 191.469 78.5585 191.997 79.1825 192.317C79.8225 192.621 80.7905 192.773 82.0865 192.773ZM81.7985 203.261H82.5185C84.2305 203.261 85.4145 203.085 86.0705 202.733C86.7265 202.397 87.0545 201.957 87.0545 201.413V201.341C87.0545 201.037 86.9665 200.781 86.7905 200.573C86.6305 200.365 86.3185 200.205 85.8545 200.093C85.3905 199.981 84.6945 199.925 83.7665 199.925H80.6705C78.7025 199.989 77.7185 200.557 77.7185 201.629V201.653C77.7185 202.181 78.0465 202.581 78.7025 202.853C79.3585 203.125 80.3905 203.261 81.7985 203.261Z" fill="#316AFA"/>
<path d="M91.4182 199.925V186.149H94.5862L94.8982 188.909C95.3142 187.949 95.9382 187.173 96.7702 186.581C97.6182 185.989 98.6662 185.693 99.9142 185.693C101.29 185.693 102.386 185.989 103.202 186.581C104.034 187.173 104.626 187.981 104.978 189.005C105.394 188.013 106.042 187.221 106.922 186.629C107.802 186.021 108.898 185.717 110.21 185.717C112.13 185.717 113.562 186.301 114.506 187.469C115.466 188.621 115.946 190.149 115.946 192.053V199.925H112.226V192.845C112.226 191.613 111.986 190.629 111.506 189.893C111.042 189.141 110.17 188.765 108.89 188.765C107.738 188.765 106.898 189.157 106.37 189.941C105.842 190.709 105.578 191.717 105.578 192.965V199.925H101.882V192.653C101.882 191.917 101.794 191.261 101.618 190.685C101.442 190.093 101.114 189.629 100.634 189.293C100.17 188.941 99.5062 188.765 98.6422 188.765C97.4262 188.765 96.5382 189.173 95.9782 189.989C95.4342 190.789 95.1622 191.877 95.1622 193.253V199.925H91.4182Z" fill="#316AFA"/>
<path d="M125.869 200.333C123.021 200.333 120.941 199.709 119.629 198.461C118.333 197.197 117.685 195.445 117.685 193.205V193.061C117.685 191.525 118.029 190.205 118.717 189.101C119.421 187.997 120.389 187.157 121.621 186.581C122.869 185.989 124.309 185.693 125.941 185.693C127.621 185.693 129.077 185.989 130.309 186.581C131.557 187.157 132.517 187.997 133.189 189.101C133.877 190.189 134.221 191.509 134.221 193.061V193.205C134.221 195.381 133.517 197.117 132.109 198.413C130.717 199.693 128.637 200.333 125.869 200.333ZM125.941 197.237C127.509 197.237 128.653 196.893 129.373 196.205C130.093 195.501 130.453 194.493 130.453 193.181V193.061C130.453 191.669 130.077 190.605 129.325 189.869C128.589 189.117 127.477 188.741 125.989 188.741C124.533 188.741 123.413 189.109 122.629 189.845C121.845 190.565 121.453 191.637 121.453 193.061V193.181C121.453 194.493 121.821 195.501 122.557 196.205C123.309 196.893 124.437 197.237 125.941 197.237Z" fill="#316AFA"/>
<path d="M146.722 190.445V194.141H136.474V190.445H146.722Z" fill="#316AFA"/>
<path d="M147.82 186.149H151.06V185.477C151.06 184.149 151.228 183.101 151.564 182.333C151.9 181.565 152.46 181.013 153.244 180.677C154.028 180.341 155.084 180.173 156.412 180.173H158.74V183.149H156.82C156.212 183.149 155.748 183.213 155.428 183.341C155.108 183.453 154.884 183.685 154.756 184.037C154.644 184.389 154.588 184.917 154.588 185.621V186.149H158.74V189.269H154.588L154.564 199.925H151.06V189.269H147.82V186.149Z" fill="#316AFA"/>
<path d="M160.257 199.925V186.149H163.401L163.833 189.725C164.153 188.541 164.737 187.629 165.585 186.989C166.433 186.333 167.585 186.005 169.041 186.005H170.457V189.677H168.801C167.521 189.677 166.529 189.837 165.825 190.157C165.137 190.461 164.657 190.981 164.385 191.717C164.129 192.437 164.001 193.413 164.001 194.645V199.925H160.257Z" fill="#316AFA"/>
<path d="M179.026 200.333C177.106 200.333 175.546 200.045 174.346 199.469C173.162 198.877 172.298 198.053 171.754 196.997C171.21 195.941 170.938 194.709 170.938 193.301V193.181C170.938 191.773 171.25 190.509 171.874 189.389C172.514 188.253 173.45 187.357 174.682 186.701C175.93 186.029 177.458 185.693 179.266 185.693C181.042 185.693 182.53 186.005 183.73 186.629C184.946 187.253 185.858 188.109 186.466 189.197C187.09 190.285 187.402 191.525 187.402 192.917V194.381H174.49C174.682 195.357 175.162 196.109 175.93 196.637C176.698 197.165 177.818 197.429 179.29 197.429C180.378 197.429 181.218 197.293 181.81 197.021C182.418 196.733 182.874 196.333 183.178 195.821H187.21C186.618 197.405 185.626 198.557 184.234 199.277C182.858 199.981 181.122 200.333 179.026 200.333ZM179.338 188.573C177.978 188.573 176.898 188.845 176.098 189.389C175.298 189.917 174.778 190.669 174.538 191.645H183.73C183.554 190.605 183.106 189.837 182.386 189.341C181.682 188.829 180.666 188.573 179.338 188.573Z" fill="#316AFA"/>
<path d="M196.845 200.333C194.925 200.333 193.365 200.045 192.165 199.469C190.981 198.877 190.117 198.053 189.573 196.997C189.029 195.941 188.757 194.709 188.757 193.301V193.181C188.757 191.773 189.069 190.509 189.693 189.389C190.333 188.253 191.269 187.357 192.501 186.701C193.749 186.029 195.277 185.693 197.085 185.693C198.861 185.693 200.349 186.005 201.549 186.629C202.765 187.253 203.677 188.109 204.285 189.197C204.909 190.285 205.221 191.525 205.221 192.917V194.381H192.309C192.501 195.357 192.981 196.109 193.749 196.637C194.517 197.165 195.637 197.429 197.109 197.429C198.197 197.429 199.037 197.293 199.629 197.021C200.237 196.733 200.693 196.333 200.997 195.821H205.029C204.437 197.405 203.445 198.557 202.053 199.277C200.677 199.981 198.941 200.333 196.845 200.333ZM197.157 188.573C195.797 188.573 194.717 188.845 193.917 189.389C193.117 189.917 192.597 190.669 192.357 191.645H201.549C201.373 190.605 200.925 189.837 200.205 189.341C199.501 188.829 198.485 188.573 197.157 188.573Z" fill="#316AFA"/>
</svg>
