<svg xmlns="http://www.w3.org/2000/svg" fill="none" viewBox="0 0 236 236" height="236" width="236">
<path fill="white" d="M136.568 230.457C158.202 244.455 186.772 230.457 189.515 204.505C190.938 190.921 199.97 179.407 212.65 174.957C236.898 166.47 243.963 135.006 225.718 116.636C216.169 107.036 212.96 92.6758 217.463 79.7903C226.055 55.1837 206.31 29.9562 180.82 33.0352C167.492 34.6394 154.45 28.2484 147.385 16.6308C133.85 -5.5436 102.15 -5.5436 88.6152 16.6308C81.5504 28.2484 68.5077 34.6136 55.1804 33.0352C29.7162 29.982 9.94513 55.2096 18.5367 79.7903C23.0396 92.6499 19.8306 107.01 10.2815 116.636C-7.96266 135.006 -0.897876 166.47 23.3501 174.957C36.0305 179.407 45.062 190.921 46.4853 204.505C49.2284 230.457 77.798 244.481 99.4323 230.457C110.767 223.135 125.233 223.135 136.568 230.457Z" clip-rule="evenodd" fill-rule="evenodd"></path>
<g clip-path="url(#clip0_574_1118)">
<path fill="#F60EA6" d="M127.547 71.8628C123.377 71.8628 119.8 74.4643 118.335 78.1385C116.871 74.4643 113.294 71.8628 109.123 71.8628C103.645 71.8628 99.1887 76.3382 99.1887 81.8389C99.1887 85.1239 101.047 88.6421 104.56 92.0138C107.805 95.1262 112.273 97.9677 117.481 100.23L118.307 100.575L118.568 100.477C118.702 100.427 121.857 99.2467 122.664 98.9132C126.996 97.1218 130.719 94.4915 133.432 91.3048C136.043 88.237 137.481 84.8757 137.481 81.8389C137.482 76.3382 133.025 71.8628 127.547 71.8628ZM132.73 81.0928C132.705 81.4531 132.407 81.7289 132.052 81.7289C132.036 81.7289 132.021 81.7289 132.005 81.7275C131.63 81.7014 131.347 81.3761 131.373 80.9999C131.447 79.9148 130.807 78.7677 129.703 78.0072C128.461 77.151 126.921 76.9791 125.685 77.5574C125.345 77.717 124.94 77.5691 124.781 77.2274C124.623 76.8856 124.77 76.4792 125.11 76.3196C126.78 75.537 128.835 75.7523 130.472 76.8808C131.994 77.9295 132.838 79.5042 132.729 81.0928H132.73Z"></path>
<path fill="#F60EA6" d="M129.66 120.263H107.013C103.626 120.263 100.679 119.538 98.2552 118.11C96.3008 116.958 94.688 115.354 93.4622 113.343C91.3907 109.944 91.1476 106.582 91.1387 106.44C91.1174 106.114 91.2975 105.808 91.5927 105.67C94.4038 104.358 97.1657 103.678 99.8008 103.65C102.204 103.626 104.568 104.139 106.828 105.18C110.457 106.852 113.944 109.926 117.489 114.576C117.494 114.582 117.498 114.588 117.502 114.594C117.764 114.958 118.066 115.389 118.33 115.768C118.62 115.354 119.002 114.823 119.464 114.213C119.467 114.211 119.468 114.208 119.47 114.206C122.978 109.68 126.441 106.696 130.055 105.086C132.289 104.091 134.625 103.609 136.998 103.652C139.594 103.7 142.315 104.379 145.083 105.671C145.378 105.809 145.558 106.115 145.537 106.441C145.527 106.582 145.284 109.945 143.212 113.343C141.986 115.355 140.374 116.959 138.419 118.11C135.995 119.539 133.048 120.264 129.662 120.264L129.66 120.263ZM92.7747 106.87C92.9274 107.898 93.4109 110.252 94.8373 112.568C95.9296 114.343 97.3588 115.754 99.0852 116.765C101.258 118.036 103.925 118.681 107.013 118.681H129.66C132.763 118.681 135.44 118.03 137.62 116.745C139.349 115.727 140.778 114.304 141.867 112.517C143.276 110.206 143.751 107.888 143.9 106.87C141.513 105.824 139.184 105.274 136.968 105.233C134.825 105.194 132.715 105.63 130.693 106.531C127.323 108.033 124.058 110.86 120.714 115.174C119.638 116.595 119.004 117.583 118.998 117.593C118.856 117.815 118.611 117.952 118.348 117.956C118.084 117.96 117.835 117.832 117.686 117.614C117.678 117.602 116.841 116.38 116.23 115.529C112.848 111.094 109.557 108.18 106.17 106.619C104.123 105.675 101.985 105.208 99.8166 105.232C97.567 105.256 95.2003 105.808 92.774 106.871L92.7747 106.87Z"></path>
<path fill="#F60EA6" d="M128.996 110.993C128.744 110.993 128.496 110.872 128.344 110.648C128.099 110.287 128.192 109.796 128.552 109.549C132.138 107.096 135.816 106.372 139.799 107.338C140.221 107.44 140.481 107.868 140.379 108.292C140.277 108.717 139.851 108.977 139.429 108.875C135.904 108.021 132.636 108.668 129.439 110.857C129.303 110.949 129.148 110.994 128.996 110.994V110.993Z"></path>
<path fill="#F60EA6" d="M107.447 111.133C107.277 111.133 107.106 111.078 106.961 110.964C104.109 108.715 100.869 107.94 97.0554 108.596C96.6267 108.669 96.2199 108.381 96.1466 107.949C96.0734 107.519 96.3617 107.11 96.7904 107.037C101.067 106.302 104.713 107.18 107.934 109.721C108.276 109.99 108.336 110.488 108.067 110.831C107.912 111.03 107.681 111.134 107.447 111.134V111.133Z"></path>
<path fill="#F60EA6" d="M117.754 117.064C116.787 112.956 114.521 103.336 119.239 97.5317L120.459 98.5316C116.233 103.732 118.373 112.819 119.286 116.701L117.754 117.064Z"></path>
</g>
<path fill="#316AFA" d="M91.2154 139.871V136.991H88.9754V134.975C89.21 134.975 89.4447 134.975 89.6794 134.975C89.914 134.964 90.138 134.953 90.3514 134.943C90.6927 134.911 90.9274 134.825 91.0554 134.687C91.194 134.537 91.3007 134.271 91.3754 133.887C91.418 133.673 91.4447 133.417 91.4554 133.119C91.466 132.82 91.4714 132.569 91.4714 132.367H93.5514V134.879H96.8474V136.991H93.5514V139.471C93.5514 140.175 93.5994 140.697 93.6954 141.039C93.802 141.38 94.01 141.604 94.3194 141.711C94.6394 141.817 95.114 141.871 95.7434 141.871H96.8474V144.063H95.1034C94.09 144.063 93.3007 143.929 92.7354 143.663C92.17 143.396 91.7754 142.959 91.5514 142.351C91.3274 141.732 91.2154 140.905 91.2154 139.871ZM102.854 144.335C100.955 144.335 99.5687 143.919 98.694 143.087C97.83 142.244 97.398 141.076 97.398 139.583V139.487C97.398 138.463 97.6273 137.583 98.086 136.847C98.5553 136.111 99.2007 135.551 100.022 135.167C100.854 134.772 101.814 134.575 102.902 134.575C104.022 134.575 104.993 134.772 105.814 135.167C106.646 135.551 107.286 136.111 107.734 136.847C108.193 137.572 108.422 138.452 108.422 139.487V139.583C108.422 141.033 107.953 142.191 107.014 143.055C106.086 143.908 104.699 144.335 102.854 144.335ZM102.902 142.271C103.947 142.271 104.71 142.041 105.19 141.583C105.67 141.113 105.91 140.441 105.91 139.567V139.487C105.91 138.559 105.659 137.849 105.158 137.359C104.667 136.857 103.926 136.607 102.934 136.607C101.963 136.607 101.217 136.852 100.694 137.343C100.171 137.823 99.91 138.537 99.91 139.487V139.567C99.91 140.441 100.155 141.113 100.646 141.583C101.147 142.041 101.899 142.271 102.902 142.271ZM110.88 139.871V136.991H108.64V134.975C108.875 134.975 109.11 134.975 109.344 134.975C109.579 134.964 109.803 134.953 110.016 134.943C110.358 134.911 110.592 134.825 110.72 134.687C110.859 134.537 110.966 134.271 111.04 133.887C111.083 133.673 111.11 133.417 111.12 133.119C111.131 132.82 111.136 132.569 111.136 132.367H113.216V134.879H116.512V136.991H113.216V139.471C113.216 140.175 113.264 140.697 113.36 141.039C113.467 141.38 113.675 141.604 113.984 141.711C114.304 141.817 114.779 141.871 115.408 141.871H116.512V144.063H114.768C113.755 144.063 112.966 143.929 112.4 143.663C111.835 143.396 111.44 142.959 111.216 142.351C110.992 141.732 110.88 140.905 110.88 139.871ZM120.8 144.335C119.648 144.335 118.768 144.121 118.16 143.695C117.552 143.257 117.248 142.623 117.248 141.791V141.775C117.248 140.719 117.702 139.951 118.608 139.471C118.896 139.321 119.2 139.199 119.52 139.103C119.84 139.007 120.251 138.921 120.752 138.847C121.264 138.772 121.931 138.703 122.752 138.639C123.702 138.564 124.352 138.463 124.704 138.335C125.056 138.207 125.232 137.977 125.232 137.647C125.232 137.305 125.067 137.017 124.736 136.783C124.406 136.537 123.798 136.415 122.912 136.415C121.899 136.415 121.179 136.553 120.752 136.831C120.336 137.108 120.102 137.529 120.048 138.095H117.504C117.622 136.953 118.123 136.084 119.008 135.487C119.904 134.889 121.142 134.591 122.72 134.591C124.374 134.591 125.6 134.863 126.4 135.407C127.2 135.951 127.6 136.868 127.6 138.159V144.063H125.6L125.376 142.015C125.014 142.687 124.454 143.241 123.696 143.679C122.939 144.116 121.974 144.335 120.8 144.335ZM121.584 142.543C122.31 142.543 122.95 142.404 123.504 142.127C124.059 141.849 124.491 141.497 124.8 141.071C125.11 140.644 125.264 140.207 125.264 139.759V139.535C124.944 139.833 124.219 140.031 123.088 140.127C122.342 140.191 121.771 140.26 121.376 140.335C120.992 140.409 120.683 140.511 120.448 140.639C120.075 140.852 119.888 141.145 119.888 141.519C119.888 141.849 120.022 142.105 120.288 142.287C120.555 142.457 120.987 142.543 121.584 142.543ZM129.186 132.271H131.666V144.063H129.186V132.271ZM133.331 132.271H135.811V144.063H133.331V132.271ZM136.901 147.919V145.775H138.133C138.613 145.775 138.997 145.727 139.285 145.631C139.584 145.535 139.834 145.369 140.037 145.135C140.24 144.9 140.448 144.585 140.661 144.191L140.917 143.679L136.389 134.879H139.077L142.085 140.975L142.181 141.311L142.293 141.007L145.253 134.879H147.893L142.933 144.607C142.56 145.321 142.224 145.897 141.925 146.335C141.626 146.772 141.306 147.103 140.965 147.327C140.634 147.561 140.24 147.716 139.781 147.791C139.322 147.876 138.746 147.919 138.053 147.919H136.901ZM94.4954 162.063L90.0474 152.879H92.7354L95.6954 159.439L98.7514 152.879H101.455L96.7834 162.063H94.4954ZM106.505 162.335C105.225 162.335 104.185 162.143 103.385 161.759C102.596 161.364 102.02 160.815 101.657 160.111C101.295 159.407 101.113 158.585 101.113 157.647V157.567C101.113 156.628 101.321 155.785 101.737 155.039C102.164 154.281 102.788 153.684 103.609 153.247C104.441 152.799 105.46 152.575 106.665 152.575C107.849 152.575 108.841 152.783 109.641 153.199C110.452 153.615 111.06 154.185 111.465 154.911C111.881 155.636 112.089 156.463 112.089 157.391V158.367H103.481C103.609 159.017 103.929 159.519 104.441 159.871C104.953 160.223 105.7 160.399 106.681 160.399C107.407 160.399 107.967 160.308 108.361 160.127C108.767 159.935 109.071 159.668 109.273 159.327H111.961C111.567 160.383 110.905 161.151 109.977 161.631C109.06 162.1 107.903 162.335 106.505 162.335ZM106.713 154.495C105.807 154.495 105.087 154.676 104.553 155.039C104.02 155.391 103.673 155.892 103.513 156.543H109.641C109.524 155.849 109.225 155.337 108.745 155.007C108.276 154.665 107.599 154.495 106.713 154.495ZM112.644 160.335C112.644 159.823 112.852 159.396 113.268 159.055C113.684 158.713 114.346 158.5 115.252 158.415C114.506 158.244 113.935 157.961 113.54 157.567C113.146 157.172 112.948 156.607 112.948 155.871C112.948 154.921 113.348 154.175 114.148 153.631C114.959 153.076 116.138 152.783 117.684 152.751C117.759 152.751 117.828 152.751 117.892 152.751C117.956 152.751 118.02 152.745 118.084 152.735C118.671 152.713 119.13 152.66 119.46 152.575C119.791 152.479 120.02 152.303 120.148 152.047C120.287 151.78 120.356 151.396 120.356 150.895V150.751H123.124V150.943C123.124 151.433 123.071 151.823 122.964 152.111C122.858 152.399 122.671 152.612 122.404 152.751C122.138 152.879 121.78 152.964 121.332 153.007C120.884 153.049 120.314 153.071 119.62 153.071C120.794 153.167 121.658 153.455 122.212 153.935C122.767 154.404 123.044 155.049 123.044 155.871V155.903C123.044 156.916 122.623 157.679 121.78 158.191C120.948 158.692 119.738 158.943 118.148 158.943H117.444C116.655 158.943 116.074 158.969 115.7 159.023C115.327 159.065 115.076 159.135 114.948 159.231C114.831 159.327 114.772 159.455 114.772 159.615C114.772 159.817 114.938 159.961 115.268 160.047C115.599 160.132 116.202 160.169 117.076 160.159H119.316C120.81 160.159 121.892 160.377 122.564 160.815C123.236 161.252 123.572 161.945 123.572 162.895V162.943C123.572 163.967 123.135 164.772 122.26 165.359C121.386 165.945 119.988 166.239 118.068 166.239H117.588C116.33 166.239 115.332 166.153 114.596 165.983C113.86 165.812 113.338 165.561 113.028 165.231C112.719 164.911 112.564 164.527 112.564 164.079C112.564 163.524 112.767 163.076 113.172 162.735C113.578 162.404 114.244 162.175 115.172 162.047C114.33 162.004 113.695 161.855 113.268 161.599C112.852 161.343 112.644 160.921 112.644 160.335ZM117.972 157.295C118.879 157.295 119.546 157.177 119.972 156.943C120.41 156.708 120.628 156.356 120.628 155.887V155.871C120.628 155.327 120.415 154.943 119.988 154.719C119.572 154.495 118.938 154.383 118.084 154.383H117.892C116.239 154.383 115.412 154.889 115.412 155.903V155.935C115.412 156.425 115.62 156.777 116.036 156.991C116.463 157.193 117.108 157.295 117.972 157.295ZM117.78 164.287H118.26C119.402 164.287 120.191 164.169 120.628 163.935C121.066 163.711 121.284 163.417 121.284 163.055V163.007C121.284 162.804 121.226 162.633 121.108 162.495C121.002 162.356 120.794 162.249 120.484 162.175C120.175 162.1 119.711 162.063 119.092 162.063H117.028C115.716 162.105 115.06 162.484 115.06 163.199V163.215C115.06 163.567 115.279 163.833 115.716 164.015C116.154 164.196 116.842 164.287 117.78 164.287ZM127.156 162.335C126.004 162.335 125.124 162.121 124.516 161.695C123.908 161.257 123.604 160.623 123.604 159.791V159.775C123.604 158.719 124.058 157.951 124.964 157.471C125.252 157.321 125.556 157.199 125.876 157.103C126.196 157.007 126.607 156.921 127.108 156.847C127.62 156.772 128.287 156.703 129.108 156.639C130.058 156.564 130.708 156.463 131.06 156.335C131.412 156.207 131.588 155.977 131.588 155.647C131.588 155.305 131.423 155.017 131.092 154.783C130.762 154.537 130.154 154.415 129.268 154.415C128.255 154.415 127.535 154.553 127.108 154.831C126.692 155.108 126.458 155.529 126.404 156.095H123.86C123.978 154.953 124.479 154.084 125.364 153.487C126.26 152.889 127.498 152.591 129.076 152.591C130.73 152.591 131.956 152.863 132.756 153.407C133.556 153.951 133.956 154.868 133.956 156.159V162.063H131.956L131.732 160.015C131.37 160.687 130.81 161.241 130.052 161.679C129.295 162.116 128.33 162.335 127.156 162.335ZM127.94 160.543C128.666 160.543 129.306 160.404 129.86 160.127C130.415 159.849 130.847 159.497 131.156 159.071C131.466 158.644 131.62 158.207 131.62 157.759V157.535C131.3 157.833 130.575 158.031 129.444 158.127C128.698 158.191 128.127 158.26 127.732 158.335C127.348 158.409 127.039 158.511 126.804 158.639C126.431 158.852 126.244 159.145 126.244 159.519C126.244 159.849 126.378 160.105 126.644 160.287C126.911 160.457 127.343 160.543 127.94 160.543ZM135.51 162.063V152.879H137.654L137.862 154.799C138.172 154.127 138.641 153.588 139.27 153.183C139.9 152.777 140.673 152.575 141.59 152.575C142.892 152.575 143.894 152.959 144.598 153.727C145.313 154.484 145.67 155.503 145.67 156.783V162.063H143.174V157.375C143.174 156.521 142.998 155.849 142.646 155.359C142.294 154.868 141.665 154.623 140.758 154.623C139.82 154.623 139.126 154.889 138.678 155.423C138.241 155.956 138.022 156.719 138.022 157.711V162.063H135.51Z"></path>
<defs>
<clipPath id="clip0_574_1118">
<rect transform="translate(88.3367 71.0627)" fill="white" height="50" width="60"></rect>
</clipPath>
</defs>
</svg>
