<svg width="53" height="14" viewBox="0 0 53 14" fill="none" xmlns="http://www.w3.org/2000/svg">
<path d="M5.0253 1.27H6.1653C6.85955 1.16772 7.56856 1.25765 8.2153 1.53C9.02668 2.01816 9.61519 2.80404 9.8553 3.72C10.0253 4.2 10.0253 4.2 10.4353 4.03H10.7553V0.23H0.0253001V0.9H0.4653C0.656505 0.898676 0.845578 0.940206 1.01863 1.02154C1.19168 1.10287 1.34431 1.22194 1.4653 1.37C1.8753 2.03 1.9453 2.77 1.9453 6.62C1.9453 10.71 1.8553 11.71 1.4653 12.22C1.36902 12.3511 1.24437 12.4588 1.10065 12.535C0.956926 12.6112 0.797852 12.6539 0.6353 12.66C0.0253001 12.77 0.0253001 12.76 0.0253001 13.03C-0.00843337 13.1203 -0.00843337 13.2197 0.0253001 13.31H6.7953C6.8401 13.2217 6.86345 13.124 6.86345 13.025C6.86345 12.926 6.8401 12.8283 6.7953 12.74C6.63133 12.6944 6.46421 12.661 6.2953 12.64C6.11258 12.6183 5.93196 12.5815 5.7553 12.53C5.50232 12.3453 5.30191 12.0978 5.17388 11.8119C5.04585 11.5261 4.99464 11.2117 5.0253 10.9C4.9253 10.24 4.8753 9.03 4.8753 8.03V7.24H5.2753C5.77365 7.22475 6.27172 7.2786 6.7553 7.4C6.98697 7.54316 7.18417 7.7357 7.33283 7.96388C7.48149 8.19206 7.57795 8.45024 7.6153 8.72L7.7053 9.03H8.3153V4.6H7.7553L7.6653 5.03C7.62744 5.30587 7.52538 5.569 7.36733 5.79826C7.20929 6.02751 6.99966 6.21649 6.7553 6.35C6.51865 6.42043 6.26934 6.4375 6.0253 6.4H4.8753V5.32C4.8753 4.2 4.9353 1.84 4.9753 1.47L5.0253 1.27ZM51.8253 9.2C51.3526 8.43921 50.6154 7.88003 49.7553 7.63C49.096 7.4239 48.4865 7.08341 47.9653 6.63C47.848 6.51657 47.7603 6.37616 47.7097 6.22103C47.6592 6.06589 47.6474 5.90075 47.6753 5.74C47.6761 5.42469 47.802 5.12257 48.0253 4.9C48.1767 4.74146 48.3683 4.62701 48.5796 4.56889C48.791 4.51077 49.0141 4.51115 49.2253 4.57C49.6625 4.69459 50.0578 4.93511 50.3694 5.26608C50.681 5.59704 50.8973 6.00613 50.9953 6.45C51.1553 6.9 51.1753 6.9 51.4653 6.78L51.6453 6.71V4.22L51.5153 4.16C50.5308 3.81423 49.4865 3.67136 48.4453 3.74C47.5487 3.76272 46.6928 4.11933 46.0453 4.74C45.7516 5.01489 45.5216 5.35064 45.3713 5.72376C45.2211 6.09687 45.1542 6.49832 45.1753 6.9C45.1809 7.51412 45.4247 8.10209 45.8553 8.54C46.3312 9.008 46.915 9.35147 47.5553 9.54C49.1053 10.15 49.5553 10.54 49.5553 11.25C49.5619 11.5494 49.4666 11.8422 49.2849 12.0802C49.1031 12.3183 48.8459 12.4875 48.5553 12.56C48.2061 12.6367 47.8445 12.6367 47.4953 12.56C47.0381 12.3826 46.6299 12.0985 46.3047 11.7315C45.9794 11.3645 45.7465 10.9252 45.6253 10.45L45.4953 10.13H45.3153C45.2293 10.1364 45.1449 10.1567 45.0653 10.19H44.9653V13.03H45.1353C45.8109 13.2547 46.5079 13.4089 47.2153 13.49H48.2153C48.649 13.5218 49.0849 13.4813 49.5053 13.37C50.039 13.2715 50.5376 13.0351 50.9516 12.6842C51.3656 12.3334 51.6806 11.8803 51.8653 11.37C51.9846 11.085 52.0458 10.779 52.0453 10.47C52.0847 10.0347 52.0088 9.59669 51.8253 9.2ZM42.4053 4.03C41.8061 3.77841 41.1604 3.65637 40.5107 3.67188C39.861 3.68739 39.2218 3.8401 38.6353 4.12C38.084 4.38968 37.5953 4.77198 37.2009 5.24221C36.8064 5.71244 36.515 6.26016 36.3453 6.85C36.129 7.49345 36.0374 8.17223 36.0753 8.85C36.0681 9.21876 36.0983 9.58731 36.1653 9.95C36.3268 10.8418 36.7573 11.6628 37.3991 12.3028C38.0408 12.9428 38.863 13.371 39.7553 13.53C40.3363 13.6032 40.9243 13.6032 41.5053 13.53C42.1082 13.4237 42.6853 13.2031 43.2053 12.88C43.6355 12.6389 43.9995 12.2954 44.2653 11.88C44.2482 11.8148 44.2182 11.7538 44.1769 11.7005C44.1357 11.6472 44.0841 11.6028 44.0253 11.57C43.9112 11.6113 43.8034 11.6686 43.7053 11.74C43.2079 12.0678 42.6206 12.2321 42.0253 12.21C41.6302 12.2367 41.2341 12.1752 40.8657 12.0299C40.4973 11.8846 40.1658 11.6592 39.8953 11.37C39.686 11.1756 39.5133 10.9453 39.3853 10.69C39.0746 10.0683 38.9071 9.38491 38.8953 8.69V8.3H44.4353V8.1C44.4475 7.90019 44.4475 7.69981 44.4353 7.5C44.4333 6.7939 44.2444 6.10091 43.8879 5.49145C43.5314 4.88198 43.0198 4.37775 42.4053 4.03ZM39.6153 7.49H38.9153V6.9C39.1453 5.39 39.7153 4.49 40.4153 4.49C41.1153 4.49 41.4153 5.38 41.5453 7.01V7.47H40.9453L39.6153 7.49ZM25.2353 3.7C24.8898 3.6866 24.5463 3.75873 24.2353 3.91C23.5594 4.23823 23.0135 4.78413 22.6853 5.46L22.5553 5.7V3.7H22.5053C22.3853 3.7 18.6853 4.44 18.5653 4.49C18.4453 4.54 18.4853 4.55 18.4853 4.73C18.4853 4.91 18.4853 4.94 18.5653 4.95L18.9553 5.03C19.0645 5.03268 19.1717 5.06018 19.2687 5.11043C19.3658 5.16067 19.4501 5.23234 19.5153 5.32C19.7653 5.65 19.8153 6.23 19.8153 8.7C19.8647 9.81196 19.8179 10.9261 19.6753 12.03C19.6417 12.1965 19.5573 12.3484 19.4337 12.4648C19.3101 12.5812 19.1535 12.6564 18.9853 12.68L18.6453 12.75H18.5153V13.03C18.479 13.1233 18.479 13.2267 18.5153 13.32H24.1053V13.03C24.1247 12.9343 24.1247 12.8357 24.1053 12.74C23.7687 12.7269 23.434 12.6834 23.1053 12.61C22.9263 12.5164 22.7798 12.3707 22.6852 12.1922C22.5906 12.0137 22.5523 11.8107 22.5753 11.61C22.4953 11.03 22.4553 9.33 22.4753 8.03C22.4953 6.73 22.4753 6.65 22.5853 6.56C22.9199 6.30343 23.334 6.17249 23.7553 6.19C24.1524 6.19866 24.5423 6.29785 24.8953 6.48C25.0177 6.54795 25.1489 6.59844 25.2853 6.63C25.2853 6.63 26.2853 4.21 26.2853 4.1C26.1573 3.9513 25.9943 3.83684 25.811 3.767C25.6276 3.69716 25.4298 3.67413 25.2353 3.7ZM18.4953 7.9C18.4604 7.1854 18.2552 6.4895 17.8969 5.87025C17.5386 5.251 17.0375 4.72635 16.4353 4.34C15.7197 3.95395 14.9235 3.74109 14.1108 3.71851C13.298 3.69593 12.4912 3.86427 11.7553 4.21C10.7148 4.75868 9.92917 5.69138 9.5653 6.81C9.18947 8.06241 9.18947 9.39759 9.5653 10.65C9.76233 11.3345 10.1306 11.9574 10.6353 12.46C11.2639 13.0734 12.0744 13.4663 12.9453 13.58C13.5043 13.6267 14.0663 13.6267 14.6253 13.58C14.831 13.5487 15.0347 13.5053 15.2353 13.45C16.0493 13.2223 16.7816 12.7675 17.3465 12.1388C17.9114 11.5102 18.2856 10.7336 18.4253 9.9C18.5251 9.23821 18.5486 8.56715 18.4953 7.9ZM14.3353 12.9C13.3353 13.2 12.5853 12.23 12.3353 10.19C12.2435 9.12197 12.2435 8.04803 12.3353 6.98C12.5353 5.34 13.0453 4.51 13.8353 4.51C13.9947 4.50012 14.1541 4.52856 14.3003 4.59293C14.4464 4.6573 14.575 4.75574 14.6753 4.88C15.3453 5.55 15.6753 6.88 15.6753 8.88C15.7585 10.0119 15.5806 11.1478 15.1553 12.2C14.9675 12.5069 14.6769 12.7372 14.3353 12.85V12.9ZM32.3353 3.9C32.0531 3.86369 31.7675 3.86369 31.4853 3.9C30.9437 3.89954 30.4082 4.01549 29.9153 4.24L29.6053 4.37V2.2C29.6595 1.46767 29.6595 0.732333 29.6053 0C29.4853 0 25.6653 0.73 25.6053 0.76C25.5758 0.83383 25.5758 0.91617 25.6053 0.99C25.6053 1.2 25.6053 1.19 26.0553 1.29C26.1816 1.31833 26.303 1.36553 26.4153 1.43C26.6105 1.61356 26.7404 1.85584 26.7853 2.12C26.8992 2.88102 26.936 3.65158 26.8953 4.42V13.2L27.1653 13.26C27.5653 13.35 28.6953 13.54 29.0653 13.58C29.8041 13.6388 30.5465 13.6388 31.2853 13.58C32.1054 13.4962 32.887 13.1903 33.5461 12.6951C34.2051 12.2 34.7166 11.5343 35.0253 10.77C35.2093 10.2794 35.3368 9.76947 35.4053 9.25C35.4648 8.54636 35.4413 7.83815 35.3353 7.14C35.228 6.35742 34.8826 5.62677 34.346 5.04717C33.8093 4.46757 33.1073 4.06707 32.3353 3.9ZM29.7153 12.73C29.7153 12.6 29.6153 8.22 29.6353 6.47V5.1L29.9253 5.03C30.121 5.00197 30.3196 5.00197 30.5153 5.03C30.7317 5.008 30.9494 5.05715 31.1353 5.17C31.5088 5.42774 31.8189 5.76683 32.0423 6.16176C32.2658 6.55668 32.3967 6.99715 32.4253 7.45C32.4981 8.17818 32.4981 8.91182 32.4253 9.64C32.3654 10.6984 31.9577 11.7073 31.2653 12.51C31.0688 12.6967 30.822 12.8218 30.5553 12.87C30.3535 12.9051 30.1471 12.9051 29.9453 12.87C29.7553 12.87 29.7553 12.81 29.7553 12.73H29.7153Z" fill="white"/>
</svg>
