<svg width="49" height="40" viewBox="0 0 49 40" fill="none" xmlns="http://www.w3.org/2000/svg">
<g clip-path="url(#clip0_641_1669)">
<path d="M13.5599 36.1519C10.8408 36.1519 7.38136 35.8441 4.73995 33.4448C1.99674 30.954 0.611279 26.6886 0.503454 20.4065C0.414303 15.2025 2.05457 10.4974 5.00379 7.49698C6.14408 6.33741 7.46991 5.43806 8.94512 4.82485C10.5161 4.17127 12.2654 3.83997 14.143 3.83997C17.5404 3.83997 20.0595 4.30379 21.8456 5.25795C24.0508 6.4362 25.1875 8.38668 25.2243 11.054C25.2484 12.8298 24.7424 14.2369 23.7201 15.2357C23.1997 15.7441 22.3732 16.3061 21.1077 16.6181C21.2366 16.7067 21.3588 16.7958 21.4745 16.885C23.6467 18.5554 24.9725 21.2425 25.1116 24.2562C25.2851 28.0132 24.3822 30.9552 22.4287 33.0015C20.4324 35.0917 17.4488 36.1519 13.5599 36.1519ZM14.143 5.22543C10.8492 5.22543 8.10662 6.31632 5.99108 8.46861C3.30088 11.2052 1.80579 15.5477 1.88831 20.3824C1.94132 23.4822 2.32624 26.0971 3.03222 28.1542C3.65929 29.9806 4.52189 31.3757 5.67062 32.419C7.96084 34.499 11.0896 34.7658 13.5593 34.7658C17.0549 34.7658 19.7011 33.8502 21.4257 32.0443C23.1081 30.283 23.8822 27.6837 23.7268 24.3201C23.6063 21.7142 22.4775 19.4047 20.6294 17.9831C19.974 17.4789 19.2445 17.0988 18.453 16.8452C18.3855 16.835 18.3211 16.8151 18.2614 16.7868C16.8693 16.3808 15.2923 16.3567 13.5924 16.7253C13.2184 16.8067 12.8497 16.5687 12.7684 16.1953C12.6871 15.8212 12.925 15.4525 13.2985 15.3712C15.4959 14.8947 17.2868 15.0453 18.7072 15.4718C19.7806 15.4971 21.6161 15.3543 22.7509 14.2454C23.4912 13.5219 23.8569 12.4545 23.8382 11.0733C23.7828 7.02893 20.7926 5.22603 14.1424 5.22603L14.143 5.22543Z" fill="#F60EA6"/>
<path d="M13.446 26.5344C12.2822 26.5344 11.3708 25.3556 11.3708 23.8503C11.3708 22.3449 12.2822 21.1661 13.446 21.1661C14.6098 21.1661 15.5212 22.3449 15.5212 23.8503C15.5212 25.3556 14.6098 26.5344 13.446 26.5344ZM13.446 22.5521C13.1268 22.5521 12.7563 23.1196 12.7563 23.8509C12.7563 24.5821 13.1274 25.1496 13.446 25.1496C13.7647 25.1496 14.1357 24.5821 14.1357 23.8509C14.1357 23.1196 13.7647 22.5521 13.446 22.5521Z" fill="#F60EA6"/>
<path d="M37.0881 23.0707C35.9243 23.0707 35.0129 21.8919 35.0129 20.3866C35.0129 18.8812 35.9243 17.7024 37.0881 17.7024C38.2519 17.7024 39.1633 18.8812 39.1633 20.3866C39.1633 21.8919 38.2519 23.0707 37.0881 23.0707ZM37.0881 19.0885C36.7689 19.0885 36.3984 19.6559 36.3984 20.3872C36.3984 21.1185 36.7695 21.6859 37.0881 21.6859C37.4068 21.6859 37.7778 21.1185 37.7778 20.3872C37.7778 19.6559 37.4068 19.0885 37.0881 19.0885Z" fill="#F60EA6"/>
<path d="M20.3703 11.3299C20.3636 11.3299 20.3576 11.3299 20.351 11.3299C19.9685 11.3197 19.6673 11.001 19.6775 10.6185C19.692 10.086 19.5191 9.65833 19.148 9.31016C18.3812 8.59152 16.797 8.24636 15.0127 8.41021C14.6314 8.44575 14.2947 8.16504 14.2598 7.78374C14.2248 7.40304 14.5055 7.06571 14.8862 7.03077C17.0855 6.82838 19.033 7.30305 20.0962 8.29937C20.754 8.9162 21.0883 9.73122 21.063 10.6559C21.0527 11.0317 20.7443 11.3299 20.3709 11.3299H20.3703Z" fill="#F60EA6"/>
<path d="M37.0899 35.7302C37.0899 35.7302 37.0875 35.7302 37.0863 35.7302C32.792 35.7302 29.8229 34.2737 28.0073 31.2781C26.4165 28.653 25.6755 24.7809 25.6755 19.0927C25.6755 5.85552 32.1854 4.27187 37.0821 4.23212C40.3126 4.23212 42.7745 5.06279 44.6136 6.77112C45.8352 7.9066 46.7809 9.44205 47.4236 11.3347C48.1381 13.4376 48.5001 16.0477 48.5001 19.0921C48.5001 24.8375 47.817 28.5656 46.2852 31.1811C44.4919 34.2424 41.4836 35.7302 37.0899 35.7302ZM37.0881 34.3448H37.0899C41.0035 34.3448 43.5456 33.1171 45.0894 30.4806C46.4713 28.1223 47.1146 24.5032 47.1146 19.0921C47.1146 7.01388 41.3921 5.61697 37.0875 5.61697C35.0394 5.63384 32.4227 5.89648 30.4054 7.79697C28.1856 9.88781 27.0604 13.6882 27.0604 19.0921C27.0604 24.496 27.7375 28.1602 29.1916 30.5601C30.756 33.1424 33.2648 34.3448 37.0857 34.3448H37.0875H37.0881Z" fill="#F60EA6"/>
<path d="M43.5955 13.3184C43.2437 13.3184 42.9425 13.0515 42.907 12.6937C42.7805 11.4112 42.2197 10.3734 41.2854 9.69327C40.4047 9.05175 39.2114 8.74574 37.9254 8.83128C37.5429 8.85597 37.2134 8.56804 37.1881 8.18614C37.1628 7.80423 37.4513 7.47413 37.8332 7.44883C39.4428 7.34161 40.9583 7.74038 42.101 8.57286C43.3636 9.49208 44.119 10.8697 44.2852 12.557C44.3226 12.9377 44.0449 13.2768 43.6642 13.3147C43.6413 13.3172 43.6178 13.3184 43.5955 13.3184Z" fill="#F60EA6"/>
</g>
<defs>
<clipPath id="clip0_641_1669">
<rect width="48" height="40" fill="white" transform="translate(0.5)"/>
</clipPath>
</defs>
</svg>
