<svg width="48" height="40" viewBox="0 0 48 40" fill="none" xmlns="http://www.w3.org/2000/svg">
<g clip-path="url(#clip0_562_626)">
<path d="M37.9806 29.2837H29.2856C28.399 29.2837 27.5507 29.1902 26.7625 29.0056L27.0813 27.646C27.7645 27.8063 28.5059 27.8877 29.285 27.8877H37.98C40.8825 27.8877 43.1809 26.7449 44.4525 24.6706C45.9663 22.1997 45.8734 18.7683 44.2035 15.4904C44.1367 15.3605 44.0699 15.2305 44.0031 15.1024L43.6977 14.5182L44.263 14.1794C45.7295 13.3001 46.6045 11.7559 46.6045 10.0484C46.6045 7.39477 44.4458 5.23606 41.7922 5.23606C41.0173 5.23606 40.2789 5.41398 39.5964 5.76496C38.9443 6.10015 38.3674 6.58897 37.9283 7.17981L37.6035 7.61641L37.1007 7.40813C36.0484 6.97214 34.9134 6.76021 33.6328 6.76021C32.9994 6.76021 32.3904 6.81365 31.8208 6.91991C31.2488 7.02618 30.6932 7.19013 30.1685 7.40692L29.6663 7.61459L29.3415 7.1786C28.4221 5.9447 27.0139 5.23666 25.4782 5.23666C22.8246 5.23666 20.6659 7.39538 20.6659 10.049C20.6659 10.6331 20.7667 11.2015 20.9659 11.7377L19.6567 12.2241C19.3998 11.5319 19.2693 10.8001 19.2693 10.049C19.2693 6.62541 22.0547 3.84003 25.4782 3.84003C27.252 3.84003 28.9516 4.61243 30.1236 5.92952C30.5899 5.76617 31.0727 5.63804 31.5652 5.54635C32.2185 5.42491 32.9138 5.36358 33.6322 5.36358C34.9061 5.36358 36.0611 5.54939 37.145 5.93073C37.6563 5.35507 38.2745 4.87354 38.957 4.52316C39.8266 4.07624 40.8066 3.84003 41.791 3.84003C45.2145 3.84003 47.9999 6.62541 47.9999 10.049C47.9999 11.9988 47.0654 13.8454 45.5242 15.0101C47.3411 18.6796 47.3878 22.5519 45.6426 25.3998C44.1076 27.9047 41.3865 29.2837 37.9794 29.2837H37.9806Z" fill="#F60EA6"/>
<path d="M43.9777 12.3152C43.869 12.3152 43.7579 12.2897 43.6546 12.2356C43.3128 12.0571 43.1804 11.6351 43.3589 11.2932C43.8344 10.3842 43.7263 9.34581 43.0899 8.71004C42.4535 8.07427 41.42 7.96679 40.5128 8.438C40.1703 8.61592 39.7489 8.48233 39.571 8.13985C39.3931 7.79737 39.5267 7.37595 39.8691 7.19803C41.3192 6.44506 43.011 6.65516 44.0773 7.72207C45.1472 8.79202 45.3555 10.4868 44.5964 11.9399C44.472 12.1786 44.2285 12.3146 43.9771 12.3146L43.9777 12.3152Z" fill="#F60EA6"/>
<path d="M18.7113 36.2651H10.0157C6.60913 36.2651 3.88751 34.8855 2.35303 32.3812C0.60784 29.5327 0.654597 25.6604 2.47083 21.9921C0.912671 20.8298 0 19.0172 0 17.0298C0 13.6062 2.78538 10.8208 6.20896 10.8208C7.98269 10.8208 9.68173 11.5932 10.8537 12.9103C11.9358 12.5302 13.0895 12.345 14.3629 12.345C15.6363 12.345 16.7918 12.5308 17.8757 12.9115C19.0471 11.5938 20.7473 10.8208 22.5217 10.8208C25.9453 10.8208 28.7306 13.6062 28.7306 17.0298C28.7306 18.9796 27.7961 20.8262 26.2549 21.9909C28.0718 25.6592 28.1185 29.5321 26.3734 32.3806C24.8383 34.8855 22.1173 36.2645 18.7107 36.2645L18.7113 36.2651ZM6.20896 12.2174C3.55535 12.2174 1.39664 14.3762 1.39664 17.0298C1.39664 18.7355 2.26255 20.2742 3.71384 21.1456L4.298 21.499L3.99499 22.0801C3.92819 22.2089 3.86018 22.3388 3.79339 22.4706C2.12349 25.7484 2.02998 29.1799 3.54381 31.6507C4.81536 33.7256 7.11374 34.8679 10.0157 34.8679H18.7113C21.6133 34.8679 23.9122 33.725 25.1832 31.6507C26.697 29.1799 26.6041 25.7484 24.9342 22.4712C24.8674 22.34 24.8 22.2101 24.7332 22.0819L24.429 21.4984L24.9931 21.1602C26.4596 20.2809 27.3346 18.7367 27.3346 17.0298C27.3346 14.3762 25.1759 12.2174 22.5223 12.2174C20.9854 12.2174 19.5772 12.9255 18.6585 14.1606L18.3336 14.5972L17.8308 14.3889C16.7791 13.9529 15.6448 13.741 14.3635 13.741C13.0822 13.741 11.9497 13.9523 10.8992 14.3871L10.397 14.5948L10.0722 14.1588C9.15343 12.9249 7.74526 12.2168 6.20957 12.2168L6.20896 12.2174Z" fill="#F60EA6"/>
<path d="M24.7077 19.2959C24.599 19.2959 24.4878 19.2704 24.3846 19.2164C24.0427 19.0378 23.9104 18.6158 24.0889 18.2739C24.5643 17.3649 24.4563 16.3265 23.8199 15.6908C23.1859 15.0568 22.15 14.9475 21.2428 15.4187C20.9003 15.596 20.4789 15.463 20.301 15.1206C20.123 14.7781 20.2566 14.3567 20.5991 14.1788C22.0498 13.4258 23.7409 13.6365 24.8072 14.7028C25.8772 15.7727 26.0855 17.4675 25.3264 18.9206C25.2019 19.1593 24.9584 19.2953 24.707 19.2953L24.7077 19.2959Z" fill="#F60EA6"/>
</g>
<defs>
<clipPath id="clip0_562_626">
<rect width="48" height="40" fill="white"/>
</clipPath>
</defs>
</svg>
