<svg width="49" height="40" viewBox="0 0 49 40" fill="none" xmlns="http://www.w3.org/2000/svg">
<path d="M31.8987 39.3599C30.3795 39.3599 28.721 39.179 26.9319 38.8172C22.6888 37.9587 18.7814 36.2718 15.6323 33.9389C13.2858 32.2 11.3513 30.0704 10.4581 28.2414C9.74378 26.7801 9.42009 25.2085 9.4969 23.5691L11.1746 23.6472C11.111 25.003 11.3782 26.3025 11.9685 27.5091C12.2615 28.1086 13.4624 30.2458 16.6352 32.5962C19.5874 34.7837 23.2638 36.3679 27.2666 37.1778C30.6429 37.8604 33.476 37.8582 35.6876 37.1713C37.3894 36.6428 38.2244 35.8636 38.6255 35.4892L38.6573 35.4597C39.0512 35.0925 39.8709 34.328 40.515 32.6678C41.3533 30.5076 41.5848 27.643 41.203 24.1549C40.7569 20.0777 39.4858 16.2633 37.5271 13.1239C35.4423 9.78274 33.3882 8.3958 32.8083 8.05043C31.7303 7.40724 30.5474 7.04383 29.2927 6.97006L29.3914 5.30005C30.9188 5.38967 32.3585 5.83231 33.6708 6.61486C35.4368 7.66736 37.4114 9.77017 38.953 12.2402C41.0444 15.5912 42.3995 19.6482 42.8725 23.9729C43.2839 27.7299 43.0173 30.8579 42.0813 33.27C41.2984 35.2876 40.2516 36.2636 39.8045 36.6805L39.7732 36.7095C39.3195 37.133 38.2563 38.1254 36.1868 38.768C34.9178 39.162 33.4843 39.3593 31.8987 39.3593V39.3599Z" fill="#F60EA6"/>
<path d="M20.0007 22.8379C19.3072 22.8379 18.6033 22.7275 17.9115 22.4783C16.6798 22.0346 15.6516 21.2056 14.8567 20.0154C13.9997 18.7323 13.4352 17.0459 13.1789 15.0026C13.1213 14.5441 13.4483 14.1261 13.9081 14.0692C14.3678 14.0119 14.7881 14.3376 14.8451 14.7955C15.2566 18.0831 16.5146 20.1957 18.482 20.905C20.4939 21.6296 22.7542 20.7061 24.0035 19.541C25.2692 18.3607 26.3615 16.1354 25.7701 14.0381C25.2028 12.0276 23.2146 10.6161 20.0199 9.95596C19.5656 9.86196 19.2737 9.41932 19.3681 8.96685C19.4624 8.51437 19.9068 8.22365 20.3611 8.31764C22.3515 8.72913 23.9706 9.41878 25.1737 10.3685C26.2885 11.2484 27.033 12.3304 27.3875 13.5856C28.1731 16.3704 26.8306 19.1968 25.1518 20.7624C23.9146 21.916 22.0043 22.8379 20.0001 22.8379H20.0007Z" fill="#F60EA6"/>
<path d="M10.1623 24.45C9.64604 24.45 9.13472 24.3336 8.63875 24.103C7.33629 23.4964 6.46287 22.5067 6.11229 21.2417C5.6487 19.5689 6.12766 17.5672 7.46083 15.6043C8.64588 13.8594 10.7373 12.6255 12.1209 11.809C12.3003 11.7036 12.4956 11.5883 12.6772 11.4773C10.7576 10.3013 9.80515 8.7488 9.843 6.85146C9.88141 4.97926 10.6681 3.42564 12.3941 1.81465C13.3992 0.876361 14.716 0.564874 15.9164 0.980737C16.967 1.34469 17.7389 2.20046 17.8832 3.1606C18.0116 4.01419 17.6325 4.8339 16.843 5.41042C15.6064 6.31264 15.4232 6.84381 15.4018 7.0307C15.3891 7.14109 15.4061 7.30503 15.653 7.59029C15.6794 7.62089 15.7436 7.68428 15.856 7.78374C17.114 5.73448 19.1967 3.78194 21.6918 2.3327C23.7273 1.1496 25.7419 0.818436 27.3636 1.39879C28.6079 1.84416 29.5324 2.80103 30.0366 4.16611C30.307 4.89783 30.3465 5.63338 30.1529 6.35199C29.7935 7.6892 28.665 8.81165 26.9757 9.51332C25.2876 10.2144 23.1956 10.4396 20.9265 10.1642L21.1295 8.50344C23.0821 8.74061 24.9288 8.55098 26.3294 7.96899C27.5096 7.47881 28.3122 6.73178 28.5306 5.91864C28.6321 5.54048 28.6085 5.14484 28.4603 4.74373C28.1284 3.84533 27.5683 3.24968 26.7958 2.97317C25.6661 2.56878 24.1141 2.86169 22.5384 3.77757C20.0476 5.22407 17.9524 7.28481 16.933 9.29036C16.8035 9.54884 16.5632 9.73737 16.2763 9.80295C15.9893 9.86852 15.6909 9.80295 15.4577 9.62425L15.4511 9.61878C14.6392 8.98215 14.4433 8.75482 14.3791 8.67995C13.8777 8.10015 13.6598 7.48045 13.7334 6.84053C13.8387 5.92082 14.5119 5.03773 15.8505 4.06064C16.2741 3.75134 16.2351 3.49341 16.2225 3.4087C16.1709 3.06661 15.8182 2.71796 15.365 2.56058C15.0073 2.43653 14.2946 2.33325 13.5424 3.03492C12.1368 4.34699 11.5514 5.46234 11.5218 6.88425C11.4922 8.37884 12.3662 9.50949 14.2727 10.4429C14.818 10.7101 14.8932 11.1609 14.9003 11.3424C14.9299 12.0954 14.2359 12.5047 12.9768 13.2479C11.6469 14.0326 9.82545 15.107 8.85162 16.5415C7.81361 18.0699 7.40487 19.6208 7.73076 20.7963C7.94967 21.5865 8.49446 22.1887 9.34923 22.5871C9.65866 22.7308 9.97138 22.7931 10.2792 22.7729C11.0187 22.7226 11.7544 22.1914 12.3503 21.2766C13.0476 20.205 13.492 18.6825 13.6011 16.989L15.2772 17.0961C15.01 21.2449 13.0009 24.2658 10.3927 24.4423C10.3159 24.4472 10.2391 24.45 10.1629 24.45H10.1623ZM15.4358 8.53186C15.4358 8.53186 15.4336 8.53677 15.4319 8.53896C15.433 8.53677 15.4341 8.53459 15.4358 8.53186Z" fill="#F60EA6"/>
<path d="M37.1409 31.5497C37.0532 31.5497 36.9643 31.536 36.8765 31.5071C36.4365 31.3617 36.1978 30.8885 36.3438 30.4497C36.978 28.5452 37.1783 26.6277 36.939 24.75C36.6987 22.8619 36.0069 20.9504 34.8833 19.0683C34.6463 18.6711 34.7769 18.1579 35.1757 17.9219C35.5746 17.6858 36.0898 17.8158 36.3268 18.2131C38.8236 22.3936 39.3657 26.6878 37.9381 30.9759C37.8212 31.3268 37.4932 31.5492 37.1409 31.5492V31.5497Z" fill="#F60EA6"/>
<path d="M22.4459 18.8531C22.2259 18.8531 22.0059 18.7673 21.8413 18.5973C21.5193 18.2651 21.5292 17.735 21.8627 17.4148C22.4854 16.8169 22.7362 15.9819 22.5518 15.124C22.362 14.243 21.7464 13.5179 20.9443 13.231C20.5076 13.0747 20.281 12.596 20.4379 12.161C20.5948 11.726 21.0754 11.5003 21.5122 11.6566C22.8563 12.1375 23.8839 13.3315 24.1944 14.7731C24.4989 16.1879 24.0633 17.6257 23.0291 18.6192C22.8662 18.7755 22.6561 18.8536 22.4465 18.8536L22.4459 18.8531Z" fill="#F60EA6"/>
</svg>
