<svg width="64" height="74" viewBox="0 0 64 74" fill="none" xmlns="http://www.w3.org/2000/svg">
<path fill-rule="evenodd" clip-rule="evenodd" d="M28.334 73.0437L26.0311 62.2648C25.0942 57.7934 24.1332 54.2859 23.1298 51.6994C22.1265 49.113 20.7423 47.1426 18.9774 45.7762C17.2124 44.4098 14.6678 43.3179 11.3615 42.4578L0.33667 39.6578L0.33667 33.4357L11.3676 30.5686C14.6738 29.6719 17.2185 28.5556 18.9834 27.1892C20.7484 25.8228 22.1325 23.8768 23.1359 21.327C24.1392 18.7832 25.1003 15.2757 26.0371 10.8226L28.334 0.0498047L35.3877 0.0498047L37.6181 10.8287C38.5549 15.3001 39.516 18.7832 40.5193 21.3331C41.5227 23.8768 42.9068 25.8228 44.7141 27.1953C46.4972 28.5617 49.0479 29.678 52.3723 30.5747L63.3367 33.4418V39.6639L52.3723 42.4639C49.066 43.3179 46.5214 44.4098 44.7141 45.7823C42.925 47.1487 41.5227 49.1191 40.5193 51.7055C39.516 54.292 38.5549 57.8239 37.6181 62.2709L35.3877 73.0498H28.334V73.0437Z" fill="white"/>
</svg>
