<svg width="102" height="102" viewBox="0 0 102 102" fill="none" xmlns="http://www.w3.org/2000/svg">
<path fill-rule="evenodd" clip-rule="evenodd" d="M59.025 99.6044C68.3754 105.654 80.7233 99.6044 81.9089 88.3878C82.5241 82.5168 86.4275 77.5403 91.908 75.6168C102.388 71.9488 105.441 58.3502 97.5563 50.4103C93.4291 46.2614 92.0422 40.0548 93.9884 34.4857C97.7017 23.8506 89.1678 12.9471 78.1508 14.2779C72.3907 14.9713 66.7536 12.2091 63.7002 7.18789C57.8506 -2.39596 44.1494 -2.39596 38.2998 7.18789C35.2464 12.2091 29.6093 14.9601 23.8492 14.2779C12.8434 12.9583 4.29832 23.8618 8.01164 34.4857C9.95777 40.0436 8.57087 46.2502 4.44372 50.4103C-3.44149 58.3502 -0.388065 71.9488 10.092 75.6168C15.5725 77.5403 19.4759 82.5168 20.0911 88.3878C21.2767 99.6044 33.6246 105.666 42.975 99.6044C47.8739 96.4396 54.1261 96.4396 59.025 99.6044Z" fill="#FFCBFF"/>
<path d="M34.952 37.92C30.936 37.92 29.336 36.512 29 33.68H30.952C31.192 35.552 32.456 36.336 34.984 36.336C37.288 36.336 38.28 35.584 38.28 34.432C38.28 33.008 36.936 32.848 34.168 32.592C31.32 32.304 29.512 31.712 29.512 29.392C29.512 27.44 31.144 26.032 34.392 26.032C37.832 26.032 39.656 27.312 39.976 29.76H38.072C37.848 28.208 36.584 27.568 34.376 27.568C32.232 27.568 31.336 28.272 31.336 29.344C31.336 30.56 32.424 30.848 35.032 31.088C38.216 31.376 40.088 31.968 40.104 34.352C40.104 36.48 38.424 37.92 34.952 37.92Z" fill="#316AFA"/>
<path d="M43.0803 33.616V30.064H40.8723V28.576C41.3203 28.576 41.7683 28.56 42.2003 28.544C42.9523 28.496 43.0963 28.336 43.1923 27.552C43.2563 27.088 43.2723 26.48 43.2723 26H44.7923V28.496H48.2803V30.064H44.7923V33.344C44.7923 35.632 45.2723 36 47.2563 36H48.2803V37.632H46.8243C43.9603 37.632 43.0803 36.64 43.0803 33.616Z" fill="#316AFA"/>
<path d="M54.3621 37.904C50.6661 37.904 48.9861 36.08 48.9861 33.2V33.12C48.9861 30.208 51.0501 28.176 54.4901 28.176C57.9141 28.176 59.8021 30.16 59.8021 32.944V33.712H50.7301C50.9221 35.488 52.1541 36.448 54.4901 36.448C56.1701 36.448 57.1781 35.952 57.6741 34.992H59.6581C58.8581 37.024 57.0021 37.904 54.3621 37.904ZM54.5221 29.616C52.3781 29.616 51.0341 30.592 50.7461 32.352H58.0101C57.8181 30.56 56.6341 29.616 54.5221 29.616Z" fill="#316AFA"/>
<path d="M61.3771 40.864V28.496H62.9291L63.0891 30.448C63.8091 29.056 65.2811 28.192 67.2651 28.192C70.2091 28.192 72.1451 29.952 72.1451 33.072V33.152C72.1451 36.256 69.9691 37.872 67.1691 37.872C65.1691 37.872 63.8251 37.136 63.1531 35.872V40.864H61.3771ZM66.6571 36.368C69.0571 36.368 70.3051 35.216 70.3051 33.136V33.072C70.3051 30.912 68.9291 29.68 66.7211 29.68C64.4971 29.68 63.0891 31.04 63.0891 33.056V33.104C63.0891 35.168 64.3851 36.368 66.6571 36.368Z" fill="#316AFA"/>
<path d="M40.4526 69.504H47.7326V56.504H42.8526V51.744C46.8526 51.504 48.3726 49.944 48.8526 46.864H53.9326V69.504H60.6926V75.384H40.4526V69.504Z" fill="#F60EA6"/>
</svg>
