<svg width="3845" height="1008" viewBox="0 0 3845 1008" fill="none" xmlns="http://www.w3.org/2000/svg">
<g clip-path="url(#clip0_3007_1710)">
<path fill-rule="evenodd" clip-rule="evenodd" d="M3337.85 1705.16C3296.51 1492.05 3240.68 1281.91 3169.88 1077.96C3123.46 944.341 3064.54 804.907 2954.62 718.472C2856.08 640.953 2723.63 612.1 2614.95 683.675C2437.94 800.201 2487.45 1008.86 2478.05 1194.98C2475.32 1248.97 2471.98 1303.21 2466.29 1357.07C2459.6 1420.1 2444.62 1477.56 2397.71 1520.03C2343.86 1568.82 2272.81 1571.18 2205.84 1566.72C2112.51 1560.4 2026.6 1542.82 1938.34 1588.02C1766.78 1675.82 1716.03 1890.42 1700.8 2077.77C1696.34 2132.51 1693 2187.61 1694.24 2242.59C1694.86 2270.21 1696.59 2297.82 1700.06 2325.31C1700.31 2327.67 1700.68 2329.89 1700.93 2332.12H1824.59C1816.42 2316.27 1809.11 2299.93 1802.55 2283.71C1777.05 2221.17 1762.45 2149.35 1760.22 2076.78C1754.9 1904.53 1819.14 1727.82 1973 1658.97C2138.75 1584.92 2309.45 1650.8 2468.39 1709.37C2525.45 1730.43 2629.06 1753.21 2660.88 1678.04C2671.64 1652.53 2668.55 1622.94 2664.09 1595.2C2649.98 1507.78 2625.23 1422.7 2601.95 1337.75C2578.68 1253.05 2543.65 1166.99 2534.61 1078.95C2528.43 1018.52 2538.58 954.743 2569.65 903.229C2603.44 847.381 2658.65 809.365 2720.04 800.696C2946.57 768.995 3056.24 1119.69 3112.19 1297.01C3168.76 1476.07 3203.55 1662.07 3231.65 1848.56C3244.77 1935.49 3256.03 2021.43 3262.22 2108.98C3265.69 2157.64 3268.16 2206.43 3269.52 2255.35C3269.77 2263.15 3268.04 2298.94 3267.3 2332H3415.84C3403.58 2121.36 3377.71 1911.84 3337.73 1705.29L3337.85 1705.16Z" fill="#FFCBFF"/>
<path fill-rule="evenodd" clip-rule="evenodd" d="M2931.1 1193.86C2899.29 1107.18 2851.01 991.273 2756.31 970.841C2723.39 963.783 2690.09 973.441 2665.83 998.827C2614.33 1052.82 2615.94 1141.23 2630.3 1209.46C2639.96 1255.16 2655.8 1298.87 2672.14 1342.09C2689.47 1388.03 2707.05 1433.97 2724.38 1479.91C2757.68 1567.96 2792.46 1662.69 2775.38 1759.53C2763.87 1824.66 2724.25 1887.07 2666.08 1908.37C2577.69 1940.69 2470.87 1882.86 2394.99 1837.42C2340.15 1804.48 2290.27 1761.51 2227.88 1746.65C2058.05 1706.4 1874.6 1769.43 1854.05 1975.61C1845.14 2065.02 1859.25 2162.35 1878.8 2229.71C1889.08 2264.88 1902.08 2299.31 1917.8 2332H2010.26C1999.49 2317.76 1989.22 2303.02 1979.57 2288.04C1938.72 2225.01 1909.26 2140.31 1910.25 2060.56C1911.24 1988.74 1936.86 1920.88 2001.23 1876.42C2133.93 1784.66 2298.44 1942.18 2390.04 2034.8C2481.64 2127.43 2624.36 2307.6 2768.07 2216.46C2972.57 2086.69 2870.94 1694.02 2796.54 1512.48C2768.45 1443.88 2650.23 1244.88 2721.65 1171.82C2733.66 1159.56 2751.86 1158.45 2767.33 1162.16C2842.47 1180.12 2866.85 1297.01 2890.62 1362.27C3001.66 1667.15 3046.84 2012.64 2967.62 2332.12H3151.31C3129.65 2064.03 3096.23 1793.33 3032.6 1532.91C3004.75 1418.86 2971.33 1303.82 2931.1 1194.11V1193.86Z" fill="#FFCBFF"/>
<path fill-rule="evenodd" clip-rule="evenodd" d="M3487.88 2332H3534.92C3540.12 2316.77 3544.82 2301.41 3549.03 2285.81C3583.57 2156.65 3580.84 2019.2 3561.41 1887.44C3541.11 1750.24 3502.36 1617.24 3467.33 1483.75C3449.51 1415.77 3431.93 1347.41 3419.55 1278.07C3408.91 1218.88 3406.31 1147.43 3432.67 1093.31C3443.94 1070.15 3460.65 1050.22 3484.29 1035.73C3505.83 1022.6 3530.09 1016.53 3554.35 1013.32C3676.78 996.97 3758.1 979.881 3838.19 871.156C3840.54 867.937 3842.9 864.717 3845.12 861.498V676.617C3794.62 737.418 3725.3 781.131 3653.01 804.04C3579.36 827.444 3501.99 832.521 3425.74 828.558C3383.04 826.329 3339.22 813.822 3296.39 820.138C3238.08 828.806 3205.78 870.661 3205.03 932.948C3203.67 1045.14 3287.85 1204.64 3315.33 1272.12C3346.27 1348.03 3377.47 1423.82 3401.73 1502.57C3427.1 1584.68 3445.92 1669 3461.52 1753.95C3476.99 1838.03 3489.61 1922.86 3501.99 2007.56C3513.75 2088.17 3523.78 2172.26 3507.69 2253C3502.12 2281.1 3492.46 2304.51 3488.01 2332.12L3487.88 2332Z" fill="#FFCBFF"/>
<path fill-rule="evenodd" clip-rule="evenodd" d="M1599.17 307.227C1585.81 275.03 1618.61 242.463 1650.42 256.827C1696.22 277.507 1746.6 284.689 1798.59 273.544C1896.88 252.617 1979.69 182.652 2061.39 124.327C2106.32 92.2546 2154.22 60.4299 2208.44 52.0093C2259.07 44.2079 2307.1 62.4112 2351.41 87.1775C2393.5 110.706 2433.24 139.311 2477.06 159.495C2520.88 179.68 2567.42 187.729 2614.83 186.614C2717.94 184.014 2816.84 144.635 2919.83 141.54C3157.87 134.234 3228.55 393.785 3420.91 478.61C3590.99 553.652 3736.07 430.811 3845.12 301.53V565.787C3787.32 634.885 3711.93 691.353 3624.54 705.841C3509.17 724.911 3406.8 650.984 3327.08 568.759C3247.99 487.278 3179.9 388.832 3080.88 333.727C2982.22 278.745 2868.46 279.984 2760.4 286.299C2653.45 292.491 2544.52 305.369 2439.42 276.64C2338.05 248.902 2235.3 152.561 2125.88 178.565C2032.54 200.731 1969.04 290.509 1887.59 338.061C1812.95 381.649 1725.31 381.402 1646.71 352.549C1625.29 344.748 1608.09 328.402 1599.42 307.35L1599.17 307.227Z" fill="#FFCBFF"/>
<path fill-rule="evenodd" clip-rule="evenodd" d="M0 745.715V444.185C19.6818 462.017 36.6403 478.858 46.7906 486.164C103.855 527.276 187.534 556.624 247.322 508.454C366.403 412.36 469.144 290.262 583.273 186.986C633.282 141.788 683.168 93.7409 740.232 59.068C833.319 2.60075 945.715 -11.3922 1049.94 8.66851C1169.02 31.5774 1225.34 94.6078 1305.31 185.5C1385.15 276.145 1450.51 401.711 1556.72 457.683C1654.88 509.32 1777.3 515.017 1876.95 464.741C1926.71 439.603 1964.34 401.834 2001.6 359.236C2034.15 322.087 2071.41 280.355 2120.93 273.792C2147.17 270.325 2174.03 277.755 2195.2 294.968C2216.98 312.552 2230.35 338.556 2248.55 359.732C2291.38 409.636 2357.36 407.655 2414.79 396.881C2481.14 384.374 2546.13 364.561 2612.35 351.311C2733.91 327.164 2862.64 317.505 2979.75 367.657C3060.7 402.33 3129.9 465.112 3177.18 544.117C3201.69 585.105 3203.8 636.619 3158.74 661.881C3110.09 689 3045.1 642.811 3005.86 614.701C2951.15 575.323 2897.06 540.898 2833.68 518.608C2750.62 489.26 2665.33 488.145 2580.91 511.549C2497.73 534.582 2420.11 575.694 2343 615.816C2203.24 688.629 2038.49 768.5 1881.4 713.395C1845.75 700.888 1813.82 680.456 1781.76 659.9C1747.96 638.229 1712.07 615.32 1672.08 611.234C1629.13 606.9 1590.01 627.58 1550.03 640.706C1516.98 651.603 1482.2 657.547 1447.54 657.547C1381.81 657.547 1315.21 633.895 1272.26 577.923C1247.13 545.232 1231.29 506.101 1214.7 467.961C1169.39 363.694 1095 256.456 990.401 213.486C914.769 182.404 832.205 190.949 758.429 224.012C599.984 294.968 506.527 456.94 402.176 594.517C355.386 656.309 302.035 716.862 234.077 751.04C169.709 783.36 96.0569 786.827 29.4608 759.956C19.3104 755.869 9.53142 751.164 0.123785 745.839L0 745.715Z" fill="#FFCBFF"/>
<path fill-rule="evenodd" clip-rule="evenodd" d="M1559.07 2073.93C1561.42 1955.3 1586.55 1836.55 1634.95 1729.81C1677.53 1635.69 1740.78 1547.03 1827.93 1497.37C1877.07 1469.39 1931.78 1457.13 1987.12 1457.75C2017.44 1458.12 2047.65 1461.83 2077.48 1468.15C2138.13 1481.03 2203.49 1511.61 2265.63 1492.79C2330.87 1473.1 2351.04 1403.63 2359.09 1338.37C2373.82 1218.88 2346.09 1096.04 2372.46 977.9C2383.85 926.757 2417.14 882.301 2424.08 830.664C2433.36 761.565 2380.01 726.15 2321.95 737.418C2294.72 742.743 2268.23 754.259 2242.48 764.661C2168.96 794.381 2107.19 838.341 2078.1 918.956C2068.32 946.199 2061.51 974.432 2053.34 1002.29C2046.28 1026.32 2038.24 1050.09 2028.71 1073.13C1988.97 1169.47 1921.01 1253.18 1816.91 1258.13C1686.32 1264.2 1556.96 1220.11 1426.12 1219.74C1310.51 1219.37 1145.13 1230.52 1061.21 1329.71C989.906 1413.91 994.858 1542.82 993.496 1649.19C991.887 1777.98 901.276 1866.39 807.943 1930.78C687.253 2014 547.376 2084.96 401.682 2087.93C266.509 2090.78 127.498 2056.85 0.124023 1999.14V2082.23C12.2549 2087.18 24.0145 2092.51 35.2789 2097.09C258.586 2189.35 512.964 2210.15 736.643 2108.24C835.299 2063.28 925.662 1995.92 995.972 1908.37C1035.95 1858.59 1062.44 1800.14 1078.29 1736.74C1093.39 1676.06 1092.03 1608.33 1112.7 1549.88C1148.47 1448.46 1233.89 1378.87 1332.79 1365C1455.09 1347.79 1578.87 1379.73 1702.16 1365.74C1805.9 1353.98 1913.46 1318.44 2000.98 1252.43C2042.94 1220.86 2086.89 1174.92 2114.86 1128.48C2143.08 1081.79 2144.94 1019.01 2183.31 979.014C2233.32 926.881 2231.71 1067.43 2232.21 1084.52C2234.69 1172.07 2264.52 1347.54 2167.35 1390.75C2121.42 1411.19 2069.19 1399.18 2021.53 1394.22C1906.9 1382.21 1784.85 1395.09 1687.93 1468.03C1600.16 1534.03 1542.98 1637.18 1502.13 1741.69C1431.57 1921.87 1388.25 2142.66 1450.39 2331.75H1590.88C1567.98 2248.17 1557.46 2160.86 1559.19 2073.69L1559.07 2073.93Z" fill="#FFCBFF"/>
<path fill-rule="evenodd" clip-rule="evenodd" d="M638.977 1908.25C735.405 1870.97 824.778 1805.34 883.823 1713.96C913.284 1668.26 933.832 1616.62 943.859 1561.89C954.999 1501.83 955.866 1440.29 963.169 1379.61C973.196 1295.03 999.314 1220.73 1067.27 1172.93C1161.97 1106.31 1265.33 1111.27 1373.14 1120.68C1532.33 1134.67 1773.22 1187.55 1900.47 1064.33C1935.37 1030.53 1959.76 982.605 1961.37 931.958C1967.81 714.633 1534.68 795 1429.96 784.35C1349.13 776.177 1269.78 750.297 1218.54 677.855C1138.08 564.178 1137.33 413.722 1028.16 317.257C920.216 221.906 766.97 278.869 673.265 366.542C580.303 453.596 513.831 573.713 464.441 694.201C425.82 788.437 364.423 850.229 279.754 896.542C214.024 932.577 141.239 952.885 67.7107 957.839C46.296 959.201 23.5196 956.6 0.248047 953.257V1004.77C2.47617 1005.51 4.58051 1006.26 6.80864 1006.88C104.227 1038.33 212.786 1035.73 305.996 990.035C490.559 899.762 505.661 696.306 620.904 540.897C672.028 472.047 745.061 418.427 828.615 412.979C962.055 404.187 985.203 516.007 1014.29 629.932C1028.16 684.542 1045.61 742.867 1090.79 776.425C1151.2 821.128 1234.13 826.082 1304.2 839.208C1399.02 856.916 1495.69 863.479 1591.87 858.773C1683.6 854.191 1768.14 844.904 1856.28 881.93C1913.22 905.829 1918.66 964.773 1864.45 998.579C1692.76 1105.57 1483.68 1105.2 1293.67 1074.12C1191.55 1057.4 1089.55 1039.07 987.307 1023.72C911.18 1012.2 795.812 982.605 754.468 1078.08C719.066 1159.93 759.667 1248.97 794.079 1321.78C814.256 1364.5 834.557 1408.34 841.86 1456.14C847.926 1496.14 844.955 1537.12 834.309 1576.01C812.152 1657.24 759.172 1727.7 693.937 1773.52C619.79 1825.53 530.789 1847.57 443.521 1854.38C354.891 1861.19 263.786 1855.5 176.517 1837.29C115.368 1824.54 55.2085 1803.73 0.248047 1772.28V1887.07C74.8902 1915.06 157.578 1928.31 229.869 1937.6C360.833 1954.31 513.707 1956.79 639.225 1908.37L638.977 1908.25Z" fill="#FFCBFF"/>
<path fill-rule="evenodd" clip-rule="evenodd" d="M601.222 1659.47C685.767 1571.92 672.893 1455.89 655.687 1342.71C645.661 1276.46 638.11 1209.09 648.879 1142.22C658.039 1085.01 680.568 1030.28 719.436 989.416C737.014 970.841 757.81 955.362 780.71 945.579C876.519 904.715 987.678 955.362 1084.23 969.231C1206.16 986.692 1329.08 991.397 1451 1007.5C1518.47 1016.41 1588.78 1033.75 1655.62 1011.21C1730.88 985.825 1651.78 943.474 1609.94 930.224C1527.63 904.22 1437.51 913.507 1354.95 903.105C1260.38 891.217 1162.96 885.521 1073.09 848.743C989.287 814.318 924.548 721.072 904.247 628.075C886.422 546.717 832.08 493.346 758.429 554.89C686.51 615.072 645.537 732.341 605.183 817.414C560.868 911.03 514.697 1005.14 446.12 1081.05C397.225 1135.17 327.41 1157.95 259.329 1166C176.764 1175.91 97.6659 1151.26 28.0989 1102.85C18.0723 1095.91 8.91226 1087.74 -0.124023 1079.94V1136.16C45.9239 1148.42 81.2025 1192.13 122.175 1215.04C217.861 1268.53 312.185 1278.19 418.021 1270.76C557.526 1260.98 565.448 1436.45 482.017 1522.14C421.61 1584.3 329.391 1565.36 263.29 1526.23C238.78 1511.74 215.633 1494.65 192.733 1477.31C130.716 1430.5 69.0716 1383.08 7.42684 1335.77C4.82736 1333.79 2.35167 1331.93 -0.124023 1330.08V1469.39C33.793 1501.58 68.2051 1531.68 98.161 1560.4C223.926 1681.14 452.061 1813.64 601.222 1659.22V1659.47Z" fill="#FFCBFF"/>
</g>
<defs>
<clipPath id="clip0_3007_1710">
<rect width="3845" height="1008" fill="white"/>
</clipPath>
</defs>
</svg>
